%TF.GenerationSoftware,KiCad,Pcbnew,10.0.3*%
%TF.CreationDate,2026-08-30T15:43:09-07:00*%
%TF.ProjectId,farseer,66617273-6565-4722-9e6b-696361645f70,rev?*%
%TF.SameCoordinates,PX2719c40PY92dda80*%
%TF.FileFunction,Legend,Top*%
%TF.FilePolarity,Positive*%
%FSLAX46Y46*%
G04 Gerber Fmt 4.6, Leading zero omitted, Abs format (unit mm)*
G04 Created by KiCad (PCBNEW 10.0.3) date 2026-08-30 15:43:09*
%MOMM*%
%LPD*%
G01*
G04 APERTURE LIST*
%ADD10C,0.400000*%
%ADD11C,0.250000*%
%ADD12C,0.150000*%
%ADD13C,0.120000*%
%ADD14C,0.100000*%
G04 APERTURE END LIST*
D10*
X57902204Y43675562D02*
X57235537Y44627943D01*
X56759347Y43675562D02*
X56759347Y45675562D01*
X56759347Y45675562D02*
X57521252Y45675562D01*
X57521252Y45675562D02*
X57711728Y45580324D01*
X57711728Y45580324D02*
X57806966Y45485086D01*
X57806966Y45485086D02*
X57902204Y45294610D01*
X57902204Y45294610D02*
X57902204Y45008896D01*
X57902204Y45008896D02*
X57806966Y44818420D01*
X57806966Y44818420D02*
X57711728Y44723181D01*
X57711728Y44723181D02*
X57521252Y44627943D01*
X57521252Y44627943D02*
X56759347Y44627943D01*
X59521252Y43770800D02*
X59330776Y43675562D01*
X59330776Y43675562D02*
X58949823Y43675562D01*
X58949823Y43675562D02*
X58759347Y43770800D01*
X58759347Y43770800D02*
X58664109Y43961277D01*
X58664109Y43961277D02*
X58664109Y44723181D01*
X58664109Y44723181D02*
X58759347Y44913658D01*
X58759347Y44913658D02*
X58949823Y45008896D01*
X58949823Y45008896D02*
X59330776Y45008896D01*
X59330776Y45008896D02*
X59521252Y44913658D01*
X59521252Y44913658D02*
X59616490Y44723181D01*
X59616490Y44723181D02*
X59616490Y44532705D01*
X59616490Y44532705D02*
X58664109Y44342229D01*
X60283157Y45008896D02*
X60759347Y43675562D01*
X60759347Y43675562D02*
X61235538Y45008896D01*
X63045062Y43675562D02*
X61902205Y43675562D01*
X62473633Y43675562D02*
X62473633Y45675562D01*
X62473633Y45675562D02*
X62283157Y45389848D01*
X62283157Y45389848D02*
X62092681Y45199372D01*
X62092681Y45199372D02*
X61902205Y45104134D01*
D11*
X57327330Y47785381D02*
X56660663Y47785381D01*
X56660663Y46737762D02*
X56660663Y48737762D01*
X56660663Y48737762D02*
X57613044Y48737762D01*
X59232092Y46737762D02*
X59232092Y47785381D01*
X59232092Y47785381D02*
X59136854Y47975858D01*
X59136854Y47975858D02*
X58946378Y48071096D01*
X58946378Y48071096D02*
X58565425Y48071096D01*
X58565425Y48071096D02*
X58374949Y47975858D01*
X59232092Y46833000D02*
X59041616Y46737762D01*
X59041616Y46737762D02*
X58565425Y46737762D01*
X58565425Y46737762D02*
X58374949Y46833000D01*
X58374949Y46833000D02*
X58279711Y47023477D01*
X58279711Y47023477D02*
X58279711Y47213953D01*
X58279711Y47213953D02*
X58374949Y47404429D01*
X58374949Y47404429D02*
X58565425Y47499667D01*
X58565425Y47499667D02*
X59041616Y47499667D01*
X59041616Y47499667D02*
X59232092Y47594905D01*
X60184473Y46737762D02*
X60184473Y48071096D01*
X60184473Y47690143D02*
X60279711Y47880620D01*
X60279711Y47880620D02*
X60374949Y47975858D01*
X60374949Y47975858D02*
X60565425Y48071096D01*
X60565425Y48071096D02*
X60755902Y48071096D01*
X61327330Y46833000D02*
X61517806Y46737762D01*
X61517806Y46737762D02*
X61898758Y46737762D01*
X61898758Y46737762D02*
X62089235Y46833000D01*
X62089235Y46833000D02*
X62184473Y47023477D01*
X62184473Y47023477D02*
X62184473Y47118715D01*
X62184473Y47118715D02*
X62089235Y47309191D01*
X62089235Y47309191D02*
X61898758Y47404429D01*
X61898758Y47404429D02*
X61613044Y47404429D01*
X61613044Y47404429D02*
X61422568Y47499667D01*
X61422568Y47499667D02*
X61327330Y47690143D01*
X61327330Y47690143D02*
X61327330Y47785381D01*
X61327330Y47785381D02*
X61422568Y47975858D01*
X61422568Y47975858D02*
X61613044Y48071096D01*
X61613044Y48071096D02*
X61898758Y48071096D01*
X61898758Y48071096D02*
X62089235Y47975858D01*
X63803521Y46833000D02*
X63613045Y46737762D01*
X63613045Y46737762D02*
X63232092Y46737762D01*
X63232092Y46737762D02*
X63041616Y46833000D01*
X63041616Y46833000D02*
X62946378Y47023477D01*
X62946378Y47023477D02*
X62946378Y47785381D01*
X62946378Y47785381D02*
X63041616Y47975858D01*
X63041616Y47975858D02*
X63232092Y48071096D01*
X63232092Y48071096D02*
X63613045Y48071096D01*
X63613045Y48071096D02*
X63803521Y47975858D01*
X63803521Y47975858D02*
X63898759Y47785381D01*
X63898759Y47785381D02*
X63898759Y47594905D01*
X63898759Y47594905D02*
X62946378Y47404429D01*
X65517807Y46833000D02*
X65327331Y46737762D01*
X65327331Y46737762D02*
X64946378Y46737762D01*
X64946378Y46737762D02*
X64755902Y46833000D01*
X64755902Y46833000D02*
X64660664Y47023477D01*
X64660664Y47023477D02*
X64660664Y47785381D01*
X64660664Y47785381D02*
X64755902Y47975858D01*
X64755902Y47975858D02*
X64946378Y48071096D01*
X64946378Y48071096D02*
X65327331Y48071096D01*
X65327331Y48071096D02*
X65517807Y47975858D01*
X65517807Y47975858D02*
X65613045Y47785381D01*
X65613045Y47785381D02*
X65613045Y47594905D01*
X65613045Y47594905D02*
X64660664Y47404429D01*
X66470188Y46737762D02*
X66470188Y48071096D01*
X66470188Y47690143D02*
X66565426Y47880620D01*
X66565426Y47880620D02*
X66660664Y47975858D01*
X66660664Y47975858D02*
X66851140Y48071096D01*
X66851140Y48071096D02*
X67041617Y48071096D01*
D12*
X35561905Y63545181D02*
X35561905Y64545181D01*
X35561905Y64545181D02*
X35800000Y64545181D01*
X35800000Y64545181D02*
X35942857Y64497562D01*
X35942857Y64497562D02*
X36038095Y64402324D01*
X36038095Y64402324D02*
X36085714Y64307086D01*
X36085714Y64307086D02*
X36133333Y64116610D01*
X36133333Y64116610D02*
X36133333Y63973753D01*
X36133333Y63973753D02*
X36085714Y63783277D01*
X36085714Y63783277D02*
X36038095Y63688039D01*
X36038095Y63688039D02*
X35942857Y63592800D01*
X35942857Y63592800D02*
X35800000Y63545181D01*
X35800000Y63545181D02*
X35561905Y63545181D01*
X36990476Y64211848D02*
X36990476Y63545181D01*
X36752381Y64592800D02*
X36514286Y63878515D01*
X36514286Y63878515D02*
X37133333Y63878515D01*
X98572842Y45071429D02*
X98615700Y45028572D01*
X98615700Y45028572D02*
X98658557Y44900000D01*
X98658557Y44900000D02*
X98658557Y44814286D01*
X98658557Y44814286D02*
X98615700Y44685715D01*
X98615700Y44685715D02*
X98529985Y44600000D01*
X98529985Y44600000D02*
X98444271Y44557143D01*
X98444271Y44557143D02*
X98272842Y44514286D01*
X98272842Y44514286D02*
X98144271Y44514286D01*
X98144271Y44514286D02*
X97972842Y44557143D01*
X97972842Y44557143D02*
X97887128Y44600000D01*
X97887128Y44600000D02*
X97801414Y44685715D01*
X97801414Y44685715D02*
X97758557Y44814286D01*
X97758557Y44814286D02*
X97758557Y44900000D01*
X97758557Y44900000D02*
X97801414Y45028572D01*
X97801414Y45028572D02*
X97844271Y45071429D01*
X97758557Y45885715D02*
X97758557Y45457143D01*
X97758557Y45457143D02*
X98187128Y45414286D01*
X98187128Y45414286D02*
X98144271Y45457143D01*
X98144271Y45457143D02*
X98101414Y45542857D01*
X98101414Y45542857D02*
X98101414Y45757143D01*
X98101414Y45757143D02*
X98144271Y45842857D01*
X98144271Y45842857D02*
X98187128Y45885715D01*
X98187128Y45885715D02*
X98272842Y45928572D01*
X98272842Y45928572D02*
X98487128Y45928572D01*
X98487128Y45928572D02*
X98572842Y45885715D01*
X98572842Y45885715D02*
X98615700Y45842857D01*
X98615700Y45842857D02*
X98658557Y45757143D01*
X98658557Y45757143D02*
X98658557Y45542857D01*
X98658557Y45542857D02*
X98615700Y45457143D01*
X98615700Y45457143D02*
X98572842Y45414286D01*
X97758557Y46228572D02*
X97758557Y46828572D01*
X97758557Y46828572D02*
X98658557Y46442858D01*
X98572842Y34171429D02*
X98615700Y34128572D01*
X98615700Y34128572D02*
X98658557Y34000000D01*
X98658557Y34000000D02*
X98658557Y33914286D01*
X98658557Y33914286D02*
X98615700Y33785715D01*
X98615700Y33785715D02*
X98529985Y33700000D01*
X98529985Y33700000D02*
X98444271Y33657143D01*
X98444271Y33657143D02*
X98272842Y33614286D01*
X98272842Y33614286D02*
X98144271Y33614286D01*
X98144271Y33614286D02*
X97972842Y33657143D01*
X97972842Y33657143D02*
X97887128Y33700000D01*
X97887128Y33700000D02*
X97801414Y33785715D01*
X97801414Y33785715D02*
X97758557Y33914286D01*
X97758557Y33914286D02*
X97758557Y34000000D01*
X97758557Y34000000D02*
X97801414Y34128572D01*
X97801414Y34128572D02*
X97844271Y34171429D01*
X97758557Y34985715D02*
X97758557Y34557143D01*
X97758557Y34557143D02*
X98187128Y34514286D01*
X98187128Y34514286D02*
X98144271Y34557143D01*
X98144271Y34557143D02*
X98101414Y34642857D01*
X98101414Y34642857D02*
X98101414Y34857143D01*
X98101414Y34857143D02*
X98144271Y34942857D01*
X98144271Y34942857D02*
X98187128Y34985715D01*
X98187128Y34985715D02*
X98272842Y35028572D01*
X98272842Y35028572D02*
X98487128Y35028572D01*
X98487128Y35028572D02*
X98572842Y34985715D01*
X98572842Y34985715D02*
X98615700Y34942857D01*
X98615700Y34942857D02*
X98658557Y34857143D01*
X98658557Y34857143D02*
X98658557Y34642857D01*
X98658557Y34642857D02*
X98615700Y34557143D01*
X98615700Y34557143D02*
X98572842Y34514286D01*
X98658557Y35457143D02*
X98658557Y35628572D01*
X98658557Y35628572D02*
X98615700Y35714286D01*
X98615700Y35714286D02*
X98572842Y35757143D01*
X98572842Y35757143D02*
X98444271Y35842858D01*
X98444271Y35842858D02*
X98272842Y35885715D01*
X98272842Y35885715D02*
X97929985Y35885715D01*
X97929985Y35885715D02*
X97844271Y35842858D01*
X97844271Y35842858D02*
X97801414Y35800000D01*
X97801414Y35800000D02*
X97758557Y35714286D01*
X97758557Y35714286D02*
X97758557Y35542858D01*
X97758557Y35542858D02*
X97801414Y35457143D01*
X97801414Y35457143D02*
X97844271Y35414286D01*
X97844271Y35414286D02*
X97929985Y35371429D01*
X97929985Y35371429D02*
X98144271Y35371429D01*
X98144271Y35371429D02*
X98229985Y35414286D01*
X98229985Y35414286D02*
X98272842Y35457143D01*
X98272842Y35457143D02*
X98315700Y35542858D01*
X98315700Y35542858D02*
X98315700Y35714286D01*
X98315700Y35714286D02*
X98272842Y35800000D01*
X98272842Y35800000D02*
X98229985Y35842858D01*
X98229985Y35842858D02*
X98144271Y35885715D01*
X98432842Y39571429D02*
X98475700Y39528572D01*
X98475700Y39528572D02*
X98518557Y39400000D01*
X98518557Y39400000D02*
X98518557Y39314286D01*
X98518557Y39314286D02*
X98475700Y39185715D01*
X98475700Y39185715D02*
X98389985Y39100000D01*
X98389985Y39100000D02*
X98304271Y39057143D01*
X98304271Y39057143D02*
X98132842Y39014286D01*
X98132842Y39014286D02*
X98004271Y39014286D01*
X98004271Y39014286D02*
X97832842Y39057143D01*
X97832842Y39057143D02*
X97747128Y39100000D01*
X97747128Y39100000D02*
X97661414Y39185715D01*
X97661414Y39185715D02*
X97618557Y39314286D01*
X97618557Y39314286D02*
X97618557Y39400000D01*
X97618557Y39400000D02*
X97661414Y39528572D01*
X97661414Y39528572D02*
X97704271Y39571429D01*
X97618557Y40385715D02*
X97618557Y39957143D01*
X97618557Y39957143D02*
X98047128Y39914286D01*
X98047128Y39914286D02*
X98004271Y39957143D01*
X98004271Y39957143D02*
X97961414Y40042857D01*
X97961414Y40042857D02*
X97961414Y40257143D01*
X97961414Y40257143D02*
X98004271Y40342857D01*
X98004271Y40342857D02*
X98047128Y40385715D01*
X98047128Y40385715D02*
X98132842Y40428572D01*
X98132842Y40428572D02*
X98347128Y40428572D01*
X98347128Y40428572D02*
X98432842Y40385715D01*
X98432842Y40385715D02*
X98475700Y40342857D01*
X98475700Y40342857D02*
X98518557Y40257143D01*
X98518557Y40257143D02*
X98518557Y40042857D01*
X98518557Y40042857D02*
X98475700Y39957143D01*
X98475700Y39957143D02*
X98432842Y39914286D01*
X98004271Y40942858D02*
X97961414Y40857143D01*
X97961414Y40857143D02*
X97918557Y40814286D01*
X97918557Y40814286D02*
X97832842Y40771429D01*
X97832842Y40771429D02*
X97789985Y40771429D01*
X97789985Y40771429D02*
X97704271Y40814286D01*
X97704271Y40814286D02*
X97661414Y40857143D01*
X97661414Y40857143D02*
X97618557Y40942858D01*
X97618557Y40942858D02*
X97618557Y41114286D01*
X97618557Y41114286D02*
X97661414Y41200000D01*
X97661414Y41200000D02*
X97704271Y41242858D01*
X97704271Y41242858D02*
X97789985Y41285715D01*
X97789985Y41285715D02*
X97832842Y41285715D01*
X97832842Y41285715D02*
X97918557Y41242858D01*
X97918557Y41242858D02*
X97961414Y41200000D01*
X97961414Y41200000D02*
X98004271Y41114286D01*
X98004271Y41114286D02*
X98004271Y40942858D01*
X98004271Y40942858D02*
X98047128Y40857143D01*
X98047128Y40857143D02*
X98089985Y40814286D01*
X98089985Y40814286D02*
X98175700Y40771429D01*
X98175700Y40771429D02*
X98347128Y40771429D01*
X98347128Y40771429D02*
X98432842Y40814286D01*
X98432842Y40814286D02*
X98475700Y40857143D01*
X98475700Y40857143D02*
X98518557Y40942858D01*
X98518557Y40942858D02*
X98518557Y41114286D01*
X98518557Y41114286D02*
X98475700Y41200000D01*
X98475700Y41200000D02*
X98432842Y41242858D01*
X98432842Y41242858D02*
X98347128Y41285715D01*
X98347128Y41285715D02*
X98175700Y41285715D01*
X98175700Y41285715D02*
X98089985Y41242858D01*
X98089985Y41242858D02*
X98047128Y41200000D01*
X98047128Y41200000D02*
X98004271Y41114286D01*
X43375000Y85127158D02*
X43332143Y85084300D01*
X43332143Y85084300D02*
X43203571Y85041443D01*
X43203571Y85041443D02*
X43117857Y85041443D01*
X43117857Y85041443D02*
X42989286Y85084300D01*
X42989286Y85084300D02*
X42903571Y85170015D01*
X42903571Y85170015D02*
X42860714Y85255729D01*
X42860714Y85255729D02*
X42817857Y85427158D01*
X42817857Y85427158D02*
X42817857Y85555729D01*
X42817857Y85555729D02*
X42860714Y85727158D01*
X42860714Y85727158D02*
X42903571Y85812872D01*
X42903571Y85812872D02*
X42989286Y85898586D01*
X42989286Y85898586D02*
X43117857Y85941443D01*
X43117857Y85941443D02*
X43203571Y85941443D01*
X43203571Y85941443D02*
X43332143Y85898586D01*
X43332143Y85898586D02*
X43375000Y85855729D01*
X44146429Y85641443D02*
X44146429Y85041443D01*
X43932143Y85984300D02*
X43717857Y85341443D01*
X43717857Y85341443D02*
X44275000Y85341443D01*
X58280000Y85117158D02*
X58237143Y85074300D01*
X58237143Y85074300D02*
X58108571Y85031443D01*
X58108571Y85031443D02*
X58022857Y85031443D01*
X58022857Y85031443D02*
X57894286Y85074300D01*
X57894286Y85074300D02*
X57808571Y85160015D01*
X57808571Y85160015D02*
X57765714Y85245729D01*
X57765714Y85245729D02*
X57722857Y85417158D01*
X57722857Y85417158D02*
X57722857Y85545729D01*
X57722857Y85545729D02*
X57765714Y85717158D01*
X57765714Y85717158D02*
X57808571Y85802872D01*
X57808571Y85802872D02*
X57894286Y85888586D01*
X57894286Y85888586D02*
X58022857Y85931443D01*
X58022857Y85931443D02*
X58108571Y85931443D01*
X58108571Y85931443D02*
X58237143Y85888586D01*
X58237143Y85888586D02*
X58280000Y85845729D01*
X59094286Y85931443D02*
X58665714Y85931443D01*
X58665714Y85931443D02*
X58622857Y85502872D01*
X58622857Y85502872D02*
X58665714Y85545729D01*
X58665714Y85545729D02*
X58751429Y85588586D01*
X58751429Y85588586D02*
X58965714Y85588586D01*
X58965714Y85588586D02*
X59051429Y85545729D01*
X59051429Y85545729D02*
X59094286Y85502872D01*
X59094286Y85502872D02*
X59137143Y85417158D01*
X59137143Y85417158D02*
X59137143Y85202872D01*
X59137143Y85202872D02*
X59094286Y85117158D01*
X59094286Y85117158D02*
X59051429Y85074300D01*
X59051429Y85074300D02*
X58965714Y85031443D01*
X58965714Y85031443D02*
X58751429Y85031443D01*
X58751429Y85031443D02*
X58665714Y85074300D01*
X58665714Y85074300D02*
X58622857Y85117158D01*
X33502842Y68441429D02*
X33545700Y68398572D01*
X33545700Y68398572D02*
X33588557Y68270000D01*
X33588557Y68270000D02*
X33588557Y68184286D01*
X33588557Y68184286D02*
X33545700Y68055715D01*
X33545700Y68055715D02*
X33459985Y67970000D01*
X33459985Y67970000D02*
X33374271Y67927143D01*
X33374271Y67927143D02*
X33202842Y67884286D01*
X33202842Y67884286D02*
X33074271Y67884286D01*
X33074271Y67884286D02*
X32902842Y67927143D01*
X32902842Y67927143D02*
X32817128Y67970000D01*
X32817128Y67970000D02*
X32731414Y68055715D01*
X32731414Y68055715D02*
X32688557Y68184286D01*
X32688557Y68184286D02*
X32688557Y68270000D01*
X32688557Y68270000D02*
X32731414Y68398572D01*
X32731414Y68398572D02*
X32774271Y68441429D01*
X32988557Y69212857D02*
X33588557Y69212857D01*
X32645700Y68998572D02*
X33288557Y68784286D01*
X33288557Y68784286D02*
X33288557Y69341429D01*
X33588557Y70155715D02*
X33588557Y69641429D01*
X33588557Y69898572D02*
X32688557Y69898572D01*
X32688557Y69898572D02*
X32817128Y69812858D01*
X32817128Y69812858D02*
X32902842Y69727143D01*
X32902842Y69727143D02*
X32945700Y69641429D01*
X90952842Y26841429D02*
X90995700Y26798572D01*
X90995700Y26798572D02*
X91038557Y26670000D01*
X91038557Y26670000D02*
X91038557Y26584286D01*
X91038557Y26584286D02*
X90995700Y26455715D01*
X90995700Y26455715D02*
X90909985Y26370000D01*
X90909985Y26370000D02*
X90824271Y26327143D01*
X90824271Y26327143D02*
X90652842Y26284286D01*
X90652842Y26284286D02*
X90524271Y26284286D01*
X90524271Y26284286D02*
X90352842Y26327143D01*
X90352842Y26327143D02*
X90267128Y26370000D01*
X90267128Y26370000D02*
X90181414Y26455715D01*
X90181414Y26455715D02*
X90138557Y26584286D01*
X90138557Y26584286D02*
X90138557Y26670000D01*
X90138557Y26670000D02*
X90181414Y26798572D01*
X90181414Y26798572D02*
X90224271Y26841429D01*
X90138557Y27612857D02*
X90138557Y27441429D01*
X90138557Y27441429D02*
X90181414Y27355715D01*
X90181414Y27355715D02*
X90224271Y27312857D01*
X90224271Y27312857D02*
X90352842Y27227143D01*
X90352842Y27227143D02*
X90524271Y27184286D01*
X90524271Y27184286D02*
X90867128Y27184286D01*
X90867128Y27184286D02*
X90952842Y27227143D01*
X90952842Y27227143D02*
X90995700Y27270000D01*
X90995700Y27270000D02*
X91038557Y27355715D01*
X91038557Y27355715D02*
X91038557Y27527143D01*
X91038557Y27527143D02*
X90995700Y27612857D01*
X90995700Y27612857D02*
X90952842Y27655715D01*
X90952842Y27655715D02*
X90867128Y27698572D01*
X90867128Y27698572D02*
X90652842Y27698572D01*
X90652842Y27698572D02*
X90567128Y27655715D01*
X90567128Y27655715D02*
X90524271Y27612857D01*
X90524271Y27612857D02*
X90481414Y27527143D01*
X90481414Y27527143D02*
X90481414Y27355715D01*
X90481414Y27355715D02*
X90524271Y27270000D01*
X90524271Y27270000D02*
X90567128Y27227143D01*
X90567128Y27227143D02*
X90652842Y27184286D01*
X90138557Y28255715D02*
X90138557Y28341429D01*
X90138557Y28341429D02*
X90181414Y28427143D01*
X90181414Y28427143D02*
X90224271Y28470000D01*
X90224271Y28470000D02*
X90309985Y28512858D01*
X90309985Y28512858D02*
X90481414Y28555715D01*
X90481414Y28555715D02*
X90695700Y28555715D01*
X90695700Y28555715D02*
X90867128Y28512858D01*
X90867128Y28512858D02*
X90952842Y28470000D01*
X90952842Y28470000D02*
X90995700Y28427143D01*
X90995700Y28427143D02*
X91038557Y28341429D01*
X91038557Y28341429D02*
X91038557Y28255715D01*
X91038557Y28255715D02*
X90995700Y28170000D01*
X90995700Y28170000D02*
X90952842Y28127143D01*
X90952842Y28127143D02*
X90867128Y28084286D01*
X90867128Y28084286D02*
X90695700Y28041429D01*
X90695700Y28041429D02*
X90481414Y28041429D01*
X90481414Y28041429D02*
X90309985Y28084286D01*
X90309985Y28084286D02*
X90224271Y28127143D01*
X90224271Y28127143D02*
X90181414Y28170000D01*
X90181414Y28170000D02*
X90138557Y28255715D01*
X44425000Y80927158D02*
X44382143Y80884300D01*
X44382143Y80884300D02*
X44253571Y80841443D01*
X44253571Y80841443D02*
X44167857Y80841443D01*
X44167857Y80841443D02*
X44039286Y80884300D01*
X44039286Y80884300D02*
X43953571Y80970015D01*
X43953571Y80970015D02*
X43910714Y81055729D01*
X43910714Y81055729D02*
X43867857Y81227158D01*
X43867857Y81227158D02*
X43867857Y81355729D01*
X43867857Y81355729D02*
X43910714Y81527158D01*
X43910714Y81527158D02*
X43953571Y81612872D01*
X43953571Y81612872D02*
X44039286Y81698586D01*
X44039286Y81698586D02*
X44167857Y81741443D01*
X44167857Y81741443D02*
X44253571Y81741443D01*
X44253571Y81741443D02*
X44382143Y81698586D01*
X44382143Y81698586D02*
X44425000Y81655729D01*
X44767857Y81655729D02*
X44810714Y81698586D01*
X44810714Y81698586D02*
X44896429Y81741443D01*
X44896429Y81741443D02*
X45110714Y81741443D01*
X45110714Y81741443D02*
X45196429Y81698586D01*
X45196429Y81698586D02*
X45239286Y81655729D01*
X45239286Y81655729D02*
X45282143Y81570015D01*
X45282143Y81570015D02*
X45282143Y81484300D01*
X45282143Y81484300D02*
X45239286Y81355729D01*
X45239286Y81355729D02*
X44725000Y80841443D01*
X44725000Y80841443D02*
X45282143Y80841443D01*
X97966666Y73165181D02*
X97966666Y72450896D01*
X97966666Y72450896D02*
X97919047Y72308039D01*
X97919047Y72308039D02*
X97823809Y72212800D01*
X97823809Y72212800D02*
X97680952Y72165181D01*
X97680952Y72165181D02*
X97585714Y72165181D01*
X98966666Y72165181D02*
X98395238Y72165181D01*
X98680952Y72165181D02*
X98680952Y73165181D01*
X98680952Y73165181D02*
X98585714Y73022324D01*
X98585714Y73022324D02*
X98490476Y72927086D01*
X98490476Y72927086D02*
X98395238Y72879467D01*
X75171428Y86877158D02*
X75128571Y86834300D01*
X75128571Y86834300D02*
X74999999Y86791443D01*
X74999999Y86791443D02*
X74914285Y86791443D01*
X74914285Y86791443D02*
X74785714Y86834300D01*
X74785714Y86834300D02*
X74699999Y86920015D01*
X74699999Y86920015D02*
X74657142Y87005729D01*
X74657142Y87005729D02*
X74614285Y87177158D01*
X74614285Y87177158D02*
X74614285Y87305729D01*
X74614285Y87305729D02*
X74657142Y87477158D01*
X74657142Y87477158D02*
X74699999Y87562872D01*
X74699999Y87562872D02*
X74785714Y87648586D01*
X74785714Y87648586D02*
X74914285Y87691443D01*
X74914285Y87691443D02*
X74999999Y87691443D01*
X74999999Y87691443D02*
X75128571Y87648586D01*
X75128571Y87648586D02*
X75171428Y87605729D01*
X75471428Y87691443D02*
X76028571Y87691443D01*
X76028571Y87691443D02*
X75728571Y87348586D01*
X75728571Y87348586D02*
X75857142Y87348586D01*
X75857142Y87348586D02*
X75942857Y87305729D01*
X75942857Y87305729D02*
X75985714Y87262872D01*
X75985714Y87262872D02*
X76028571Y87177158D01*
X76028571Y87177158D02*
X76028571Y86962872D01*
X76028571Y86962872D02*
X75985714Y86877158D01*
X75985714Y86877158D02*
X75942857Y86834300D01*
X75942857Y86834300D02*
X75857142Y86791443D01*
X75857142Y86791443D02*
X75599999Y86791443D01*
X75599999Y86791443D02*
X75514285Y86834300D01*
X75514285Y86834300D02*
X75471428Y86877158D01*
X76585714Y87691443D02*
X76671428Y87691443D01*
X76671428Y87691443D02*
X76757142Y87648586D01*
X76757142Y87648586D02*
X76800000Y87605729D01*
X76800000Y87605729D02*
X76842857Y87520015D01*
X76842857Y87520015D02*
X76885714Y87348586D01*
X76885714Y87348586D02*
X76885714Y87134300D01*
X76885714Y87134300D02*
X76842857Y86962872D01*
X76842857Y86962872D02*
X76800000Y86877158D01*
X76800000Y86877158D02*
X76757142Y86834300D01*
X76757142Y86834300D02*
X76671428Y86791443D01*
X76671428Y86791443D02*
X76585714Y86791443D01*
X76585714Y86791443D02*
X76500000Y86834300D01*
X76500000Y86834300D02*
X76457142Y86877158D01*
X76457142Y86877158D02*
X76414285Y86962872D01*
X76414285Y86962872D02*
X76371428Y87134300D01*
X76371428Y87134300D02*
X76371428Y87348586D01*
X76371428Y87348586D02*
X76414285Y87520015D01*
X76414285Y87520015D02*
X76457142Y87605729D01*
X76457142Y87605729D02*
X76500000Y87648586D01*
X76500000Y87648586D02*
X76585714Y87691443D01*
X85389580Y22333334D02*
X85437200Y22285715D01*
X85437200Y22285715D02*
X85484819Y22142858D01*
X85484819Y22142858D02*
X85484819Y22047620D01*
X85484819Y22047620D02*
X85437200Y21904763D01*
X85437200Y21904763D02*
X85341961Y21809525D01*
X85341961Y21809525D02*
X85246723Y21761906D01*
X85246723Y21761906D02*
X85056247Y21714287D01*
X85056247Y21714287D02*
X84913390Y21714287D01*
X84913390Y21714287D02*
X84722914Y21761906D01*
X84722914Y21761906D02*
X84627676Y21809525D01*
X84627676Y21809525D02*
X84532438Y21904763D01*
X84532438Y21904763D02*
X84484819Y22047620D01*
X84484819Y22047620D02*
X84484819Y22142858D01*
X84484819Y22142858D02*
X84532438Y22285715D01*
X84532438Y22285715D02*
X84580057Y22333334D01*
X85484819Y22809525D02*
X85484819Y23000001D01*
X85484819Y23000001D02*
X85437200Y23095239D01*
X85437200Y23095239D02*
X85389580Y23142858D01*
X85389580Y23142858D02*
X85246723Y23238096D01*
X85246723Y23238096D02*
X85056247Y23285715D01*
X85056247Y23285715D02*
X84675295Y23285715D01*
X84675295Y23285715D02*
X84580057Y23238096D01*
X84580057Y23238096D02*
X84532438Y23190477D01*
X84532438Y23190477D02*
X84484819Y23095239D01*
X84484819Y23095239D02*
X84484819Y22904763D01*
X84484819Y22904763D02*
X84532438Y22809525D01*
X84532438Y22809525D02*
X84580057Y22761906D01*
X84580057Y22761906D02*
X84675295Y22714287D01*
X84675295Y22714287D02*
X84913390Y22714287D01*
X84913390Y22714287D02*
X85008628Y22761906D01*
X85008628Y22761906D02*
X85056247Y22809525D01*
X85056247Y22809525D02*
X85103866Y22904763D01*
X85103866Y22904763D02*
X85103866Y23095239D01*
X85103866Y23095239D02*
X85056247Y23190477D01*
X85056247Y23190477D02*
X85008628Y23238096D01*
X85008628Y23238096D02*
X84913390Y23285715D01*
X13441428Y78457158D02*
X13398571Y78414300D01*
X13398571Y78414300D02*
X13269999Y78371443D01*
X13269999Y78371443D02*
X13184285Y78371443D01*
X13184285Y78371443D02*
X13055714Y78414300D01*
X13055714Y78414300D02*
X12969999Y78500015D01*
X12969999Y78500015D02*
X12927142Y78585729D01*
X12927142Y78585729D02*
X12884285Y78757158D01*
X12884285Y78757158D02*
X12884285Y78885729D01*
X12884285Y78885729D02*
X12927142Y79057158D01*
X12927142Y79057158D02*
X12969999Y79142872D01*
X12969999Y79142872D02*
X13055714Y79228586D01*
X13055714Y79228586D02*
X13184285Y79271443D01*
X13184285Y79271443D02*
X13269999Y79271443D01*
X13269999Y79271443D02*
X13398571Y79228586D01*
X13398571Y79228586D02*
X13441428Y79185729D01*
X13741428Y79271443D02*
X14298571Y79271443D01*
X14298571Y79271443D02*
X13998571Y78928586D01*
X13998571Y78928586D02*
X14127142Y78928586D01*
X14127142Y78928586D02*
X14212857Y78885729D01*
X14212857Y78885729D02*
X14255714Y78842872D01*
X14255714Y78842872D02*
X14298571Y78757158D01*
X14298571Y78757158D02*
X14298571Y78542872D01*
X14298571Y78542872D02*
X14255714Y78457158D01*
X14255714Y78457158D02*
X14212857Y78414300D01*
X14212857Y78414300D02*
X14127142Y78371443D01*
X14127142Y78371443D02*
X13869999Y78371443D01*
X13869999Y78371443D02*
X13784285Y78414300D01*
X13784285Y78414300D02*
X13741428Y78457158D01*
X14598571Y79271443D02*
X15155714Y79271443D01*
X15155714Y79271443D02*
X14855714Y78928586D01*
X14855714Y78928586D02*
X14984285Y78928586D01*
X14984285Y78928586D02*
X15070000Y78885729D01*
X15070000Y78885729D02*
X15112857Y78842872D01*
X15112857Y78842872D02*
X15155714Y78757158D01*
X15155714Y78757158D02*
X15155714Y78542872D01*
X15155714Y78542872D02*
X15112857Y78457158D01*
X15112857Y78457158D02*
X15070000Y78414300D01*
X15070000Y78414300D02*
X14984285Y78371443D01*
X14984285Y78371443D02*
X14727142Y78371443D01*
X14727142Y78371443D02*
X14641428Y78414300D01*
X14641428Y78414300D02*
X14598571Y78457158D01*
X70908557Y76851429D02*
X70479985Y76551429D01*
X70908557Y76337143D02*
X70008557Y76337143D01*
X70008557Y76337143D02*
X70008557Y76680000D01*
X70008557Y76680000D02*
X70051414Y76765715D01*
X70051414Y76765715D02*
X70094271Y76808572D01*
X70094271Y76808572D02*
X70179985Y76851429D01*
X70179985Y76851429D02*
X70308557Y76851429D01*
X70308557Y76851429D02*
X70394271Y76808572D01*
X70394271Y76808572D02*
X70437128Y76765715D01*
X70437128Y76765715D02*
X70479985Y76680000D01*
X70479985Y76680000D02*
X70479985Y76337143D01*
X70308557Y77622857D02*
X70908557Y77622857D01*
X69965700Y77408572D02*
X70608557Y77194286D01*
X70608557Y77194286D02*
X70608557Y77751429D01*
X70008557Y78265715D02*
X70008557Y78351429D01*
X70008557Y78351429D02*
X70051414Y78437143D01*
X70051414Y78437143D02*
X70094271Y78480000D01*
X70094271Y78480000D02*
X70179985Y78522858D01*
X70179985Y78522858D02*
X70351414Y78565715D01*
X70351414Y78565715D02*
X70565700Y78565715D01*
X70565700Y78565715D02*
X70737128Y78522858D01*
X70737128Y78522858D02*
X70822842Y78480000D01*
X70822842Y78480000D02*
X70865700Y78437143D01*
X70865700Y78437143D02*
X70908557Y78351429D01*
X70908557Y78351429D02*
X70908557Y78265715D01*
X70908557Y78265715D02*
X70865700Y78180000D01*
X70865700Y78180000D02*
X70822842Y78137143D01*
X70822842Y78137143D02*
X70737128Y78094286D01*
X70737128Y78094286D02*
X70565700Y78051429D01*
X70565700Y78051429D02*
X70351414Y78051429D01*
X70351414Y78051429D02*
X70179985Y78094286D01*
X70179985Y78094286D02*
X70094271Y78137143D01*
X70094271Y78137143D02*
X70051414Y78180000D01*
X70051414Y78180000D02*
X70008557Y78265715D01*
X83651785Y84711443D02*
X83651785Y83982872D01*
X83651785Y83982872D02*
X83694642Y83897158D01*
X83694642Y83897158D02*
X83737500Y83854300D01*
X83737500Y83854300D02*
X83823214Y83811443D01*
X83823214Y83811443D02*
X83994642Y83811443D01*
X83994642Y83811443D02*
X84080357Y83854300D01*
X84080357Y83854300D02*
X84123214Y83897158D01*
X84123214Y83897158D02*
X84166071Y83982872D01*
X84166071Y83982872D02*
X84166071Y84711443D01*
X84980357Y84711443D02*
X84808928Y84711443D01*
X84808928Y84711443D02*
X84723214Y84668586D01*
X84723214Y84668586D02*
X84680357Y84625729D01*
X84680357Y84625729D02*
X84594642Y84497158D01*
X84594642Y84497158D02*
X84551785Y84325729D01*
X84551785Y84325729D02*
X84551785Y83982872D01*
X84551785Y83982872D02*
X84594642Y83897158D01*
X84594642Y83897158D02*
X84637499Y83854300D01*
X84637499Y83854300D02*
X84723214Y83811443D01*
X84723214Y83811443D02*
X84894642Y83811443D01*
X84894642Y83811443D02*
X84980357Y83854300D01*
X84980357Y83854300D02*
X85023214Y83897158D01*
X85023214Y83897158D02*
X85066071Y83982872D01*
X85066071Y83982872D02*
X85066071Y84197158D01*
X85066071Y84197158D02*
X85023214Y84282872D01*
X85023214Y84282872D02*
X84980357Y84325729D01*
X84980357Y84325729D02*
X84894642Y84368586D01*
X84894642Y84368586D02*
X84723214Y84368586D01*
X84723214Y84368586D02*
X84637499Y84325729D01*
X84637499Y84325729D02*
X84594642Y84282872D01*
X84594642Y84282872D02*
X84551785Y84197158D01*
X87350000Y113291443D02*
X86921428Y113291443D01*
X86921428Y113291443D02*
X86921428Y114191443D01*
X88035714Y113891443D02*
X88035714Y113291443D01*
X87821428Y114234300D02*
X87607142Y113591443D01*
X87607142Y113591443D02*
X88164285Y113591443D01*
X87450000Y59611443D02*
X87150000Y60040015D01*
X86935714Y59611443D02*
X86935714Y60511443D01*
X86935714Y60511443D02*
X87278571Y60511443D01*
X87278571Y60511443D02*
X87364286Y60468586D01*
X87364286Y60468586D02*
X87407143Y60425729D01*
X87407143Y60425729D02*
X87450000Y60340015D01*
X87450000Y60340015D02*
X87450000Y60211443D01*
X87450000Y60211443D02*
X87407143Y60125729D01*
X87407143Y60125729D02*
X87364286Y60082872D01*
X87364286Y60082872D02*
X87278571Y60040015D01*
X87278571Y60040015D02*
X86935714Y60040015D01*
X88264286Y60511443D02*
X87835714Y60511443D01*
X87835714Y60511443D02*
X87792857Y60082872D01*
X87792857Y60082872D02*
X87835714Y60125729D01*
X87835714Y60125729D02*
X87921429Y60168586D01*
X87921429Y60168586D02*
X88135714Y60168586D01*
X88135714Y60168586D02*
X88221429Y60125729D01*
X88221429Y60125729D02*
X88264286Y60082872D01*
X88264286Y60082872D02*
X88307143Y59997158D01*
X88307143Y59997158D02*
X88307143Y59782872D01*
X88307143Y59782872D02*
X88264286Y59697158D01*
X88264286Y59697158D02*
X88221429Y59654300D01*
X88221429Y59654300D02*
X88135714Y59611443D01*
X88135714Y59611443D02*
X87921429Y59611443D01*
X87921429Y59611443D02*
X87835714Y59654300D01*
X87835714Y59654300D02*
X87792857Y59697158D01*
X45932842Y126421429D02*
X45975700Y126378572D01*
X45975700Y126378572D02*
X46018557Y126250000D01*
X46018557Y126250000D02*
X46018557Y126164286D01*
X46018557Y126164286D02*
X45975700Y126035715D01*
X45975700Y126035715D02*
X45889985Y125950000D01*
X45889985Y125950000D02*
X45804271Y125907143D01*
X45804271Y125907143D02*
X45632842Y125864286D01*
X45632842Y125864286D02*
X45504271Y125864286D01*
X45504271Y125864286D02*
X45332842Y125907143D01*
X45332842Y125907143D02*
X45247128Y125950000D01*
X45247128Y125950000D02*
X45161414Y126035715D01*
X45161414Y126035715D02*
X45118557Y126164286D01*
X45118557Y126164286D02*
X45118557Y126250000D01*
X45118557Y126250000D02*
X45161414Y126378572D01*
X45161414Y126378572D02*
X45204271Y126421429D01*
X45118557Y126721429D02*
X45118557Y127278572D01*
X45118557Y127278572D02*
X45461414Y126978572D01*
X45461414Y126978572D02*
X45461414Y127107143D01*
X45461414Y127107143D02*
X45504271Y127192857D01*
X45504271Y127192857D02*
X45547128Y127235715D01*
X45547128Y127235715D02*
X45632842Y127278572D01*
X45632842Y127278572D02*
X45847128Y127278572D01*
X45847128Y127278572D02*
X45932842Y127235715D01*
X45932842Y127235715D02*
X45975700Y127192857D01*
X45975700Y127192857D02*
X46018557Y127107143D01*
X46018557Y127107143D02*
X46018557Y126850000D01*
X46018557Y126850000D02*
X45975700Y126764286D01*
X45975700Y126764286D02*
X45932842Y126721429D01*
X45118557Y128050000D02*
X45118557Y127878572D01*
X45118557Y127878572D02*
X45161414Y127792858D01*
X45161414Y127792858D02*
X45204271Y127750000D01*
X45204271Y127750000D02*
X45332842Y127664286D01*
X45332842Y127664286D02*
X45504271Y127621429D01*
X45504271Y127621429D02*
X45847128Y127621429D01*
X45847128Y127621429D02*
X45932842Y127664286D01*
X45932842Y127664286D02*
X45975700Y127707143D01*
X45975700Y127707143D02*
X46018557Y127792858D01*
X46018557Y127792858D02*
X46018557Y127964286D01*
X46018557Y127964286D02*
X45975700Y128050000D01*
X45975700Y128050000D02*
X45932842Y128092858D01*
X45932842Y128092858D02*
X45847128Y128135715D01*
X45847128Y128135715D02*
X45632842Y128135715D01*
X45632842Y128135715D02*
X45547128Y128092858D01*
X45547128Y128092858D02*
X45504271Y128050000D01*
X45504271Y128050000D02*
X45461414Y127964286D01*
X45461414Y127964286D02*
X45461414Y127792858D01*
X45461414Y127792858D02*
X45504271Y127707143D01*
X45504271Y127707143D02*
X45547128Y127664286D01*
X45547128Y127664286D02*
X45632842Y127621429D01*
X21354819Y3490477D02*
X20354819Y3490477D01*
X20354819Y3490477D02*
X21069104Y3823810D01*
X21069104Y3823810D02*
X20354819Y4157143D01*
X20354819Y4157143D02*
X21354819Y4157143D01*
X21354819Y4633334D02*
X20354819Y4633334D01*
X20354819Y4633334D02*
X20354819Y5014286D01*
X20354819Y5014286D02*
X20402438Y5109524D01*
X20402438Y5109524D02*
X20450057Y5157143D01*
X20450057Y5157143D02*
X20545295Y5204762D01*
X20545295Y5204762D02*
X20688152Y5204762D01*
X20688152Y5204762D02*
X20783390Y5157143D01*
X20783390Y5157143D02*
X20831009Y5109524D01*
X20831009Y5109524D02*
X20878628Y5014286D01*
X20878628Y5014286D02*
X20878628Y4633334D01*
X21354819Y6157143D02*
X21354819Y5585715D01*
X21354819Y5871429D02*
X20354819Y5871429D01*
X20354819Y5871429D02*
X20497676Y5776191D01*
X20497676Y5776191D02*
X20592914Y5680953D01*
X20592914Y5680953D02*
X20640533Y5585715D01*
X85521428Y8491443D02*
X85221428Y8920015D01*
X85007142Y8491443D02*
X85007142Y9391443D01*
X85007142Y9391443D02*
X85349999Y9391443D01*
X85349999Y9391443D02*
X85435714Y9348586D01*
X85435714Y9348586D02*
X85478571Y9305729D01*
X85478571Y9305729D02*
X85521428Y9220015D01*
X85521428Y9220015D02*
X85521428Y9091443D01*
X85521428Y9091443D02*
X85478571Y9005729D01*
X85478571Y9005729D02*
X85435714Y8962872D01*
X85435714Y8962872D02*
X85349999Y8920015D01*
X85349999Y8920015D02*
X85007142Y8920015D01*
X86335714Y9391443D02*
X85907142Y9391443D01*
X85907142Y9391443D02*
X85864285Y8962872D01*
X85864285Y8962872D02*
X85907142Y9005729D01*
X85907142Y9005729D02*
X85992857Y9048586D01*
X85992857Y9048586D02*
X86207142Y9048586D01*
X86207142Y9048586D02*
X86292857Y9005729D01*
X86292857Y9005729D02*
X86335714Y8962872D01*
X86335714Y8962872D02*
X86378571Y8877158D01*
X86378571Y8877158D02*
X86378571Y8662872D01*
X86378571Y8662872D02*
X86335714Y8577158D01*
X86335714Y8577158D02*
X86292857Y8534300D01*
X86292857Y8534300D02*
X86207142Y8491443D01*
X86207142Y8491443D02*
X85992857Y8491443D01*
X85992857Y8491443D02*
X85907142Y8534300D01*
X85907142Y8534300D02*
X85864285Y8577158D01*
X86678571Y9391443D02*
X87278571Y9391443D01*
X87278571Y9391443D02*
X86892857Y8491443D01*
X56889428Y121147158D02*
X56846571Y121104300D01*
X56846571Y121104300D02*
X56717999Y121061443D01*
X56717999Y121061443D02*
X56632285Y121061443D01*
X56632285Y121061443D02*
X56503714Y121104300D01*
X56503714Y121104300D02*
X56417999Y121190015D01*
X56417999Y121190015D02*
X56375142Y121275729D01*
X56375142Y121275729D02*
X56332285Y121447158D01*
X56332285Y121447158D02*
X56332285Y121575729D01*
X56332285Y121575729D02*
X56375142Y121747158D01*
X56375142Y121747158D02*
X56417999Y121832872D01*
X56417999Y121832872D02*
X56503714Y121918586D01*
X56503714Y121918586D02*
X56632285Y121961443D01*
X56632285Y121961443D02*
X56717999Y121961443D01*
X56717999Y121961443D02*
X56846571Y121918586D01*
X56846571Y121918586D02*
X56889428Y121875729D01*
X57660857Y121661443D02*
X57660857Y121061443D01*
X57446571Y122004300D02*
X57232285Y121361443D01*
X57232285Y121361443D02*
X57789428Y121361443D01*
X58175142Y121061443D02*
X58346571Y121061443D01*
X58346571Y121061443D02*
X58432285Y121104300D01*
X58432285Y121104300D02*
X58475142Y121147158D01*
X58475142Y121147158D02*
X58560857Y121275729D01*
X58560857Y121275729D02*
X58603714Y121447158D01*
X58603714Y121447158D02*
X58603714Y121790015D01*
X58603714Y121790015D02*
X58560857Y121875729D01*
X58560857Y121875729D02*
X58518000Y121918586D01*
X58518000Y121918586D02*
X58432285Y121961443D01*
X58432285Y121961443D02*
X58260857Y121961443D01*
X58260857Y121961443D02*
X58175142Y121918586D01*
X58175142Y121918586D02*
X58132285Y121875729D01*
X58132285Y121875729D02*
X58089428Y121790015D01*
X58089428Y121790015D02*
X58089428Y121575729D01*
X58089428Y121575729D02*
X58132285Y121490015D01*
X58132285Y121490015D02*
X58175142Y121447158D01*
X58175142Y121447158D02*
X58260857Y121404300D01*
X58260857Y121404300D02*
X58432285Y121404300D01*
X58432285Y121404300D02*
X58518000Y121447158D01*
X58518000Y121447158D02*
X58560857Y121490015D01*
X58560857Y121490015D02*
X58603714Y121575729D01*
X57738095Y114245181D02*
X57738095Y113435658D01*
X57738095Y113435658D02*
X57785714Y113340420D01*
X57785714Y113340420D02*
X57833333Y113292800D01*
X57833333Y113292800D02*
X57928571Y113245181D01*
X57928571Y113245181D02*
X58119047Y113245181D01*
X58119047Y113245181D02*
X58214285Y113292800D01*
X58214285Y113292800D02*
X58261904Y113340420D01*
X58261904Y113340420D02*
X58309523Y113435658D01*
X58309523Y113435658D02*
X58309523Y114245181D01*
X59214285Y113911848D02*
X59214285Y113245181D01*
X58976190Y114292800D02*
X58738095Y113578515D01*
X58738095Y113578515D02*
X59357142Y113578515D01*
X20507842Y74051429D02*
X20550700Y74008572D01*
X20550700Y74008572D02*
X20593557Y73880000D01*
X20593557Y73880000D02*
X20593557Y73794286D01*
X20593557Y73794286D02*
X20550700Y73665715D01*
X20550700Y73665715D02*
X20464985Y73580000D01*
X20464985Y73580000D02*
X20379271Y73537143D01*
X20379271Y73537143D02*
X20207842Y73494286D01*
X20207842Y73494286D02*
X20079271Y73494286D01*
X20079271Y73494286D02*
X19907842Y73537143D01*
X19907842Y73537143D02*
X19822128Y73580000D01*
X19822128Y73580000D02*
X19736414Y73665715D01*
X19736414Y73665715D02*
X19693557Y73794286D01*
X19693557Y73794286D02*
X19693557Y73880000D01*
X19693557Y73880000D02*
X19736414Y74008572D01*
X19736414Y74008572D02*
X19779271Y74051429D01*
X19693557Y74351429D02*
X19693557Y74908572D01*
X19693557Y74908572D02*
X20036414Y74608572D01*
X20036414Y74608572D02*
X20036414Y74737143D01*
X20036414Y74737143D02*
X20079271Y74822857D01*
X20079271Y74822857D02*
X20122128Y74865715D01*
X20122128Y74865715D02*
X20207842Y74908572D01*
X20207842Y74908572D02*
X20422128Y74908572D01*
X20422128Y74908572D02*
X20507842Y74865715D01*
X20507842Y74865715D02*
X20550700Y74822857D01*
X20550700Y74822857D02*
X20593557Y74737143D01*
X20593557Y74737143D02*
X20593557Y74480000D01*
X20593557Y74480000D02*
X20550700Y74394286D01*
X20550700Y74394286D02*
X20507842Y74351429D01*
X20593557Y75337143D02*
X20593557Y75508572D01*
X20593557Y75508572D02*
X20550700Y75594286D01*
X20550700Y75594286D02*
X20507842Y75637143D01*
X20507842Y75637143D02*
X20379271Y75722858D01*
X20379271Y75722858D02*
X20207842Y75765715D01*
X20207842Y75765715D02*
X19864985Y75765715D01*
X19864985Y75765715D02*
X19779271Y75722858D01*
X19779271Y75722858D02*
X19736414Y75680000D01*
X19736414Y75680000D02*
X19693557Y75594286D01*
X19693557Y75594286D02*
X19693557Y75422858D01*
X19693557Y75422858D02*
X19736414Y75337143D01*
X19736414Y75337143D02*
X19779271Y75294286D01*
X19779271Y75294286D02*
X19864985Y75251429D01*
X19864985Y75251429D02*
X20079271Y75251429D01*
X20079271Y75251429D02*
X20164985Y75294286D01*
X20164985Y75294286D02*
X20207842Y75337143D01*
X20207842Y75337143D02*
X20250700Y75422858D01*
X20250700Y75422858D02*
X20250700Y75594286D01*
X20250700Y75594286D02*
X20207842Y75680000D01*
X20207842Y75680000D02*
X20164985Y75722858D01*
X20164985Y75722858D02*
X20079271Y75765715D01*
X84781057Y81562929D02*
X84352485Y81262929D01*
X84781057Y81048643D02*
X83881057Y81048643D01*
X83881057Y81048643D02*
X83881057Y81391500D01*
X83881057Y81391500D02*
X83923914Y81477215D01*
X83923914Y81477215D02*
X83966771Y81520072D01*
X83966771Y81520072D02*
X84052485Y81562929D01*
X84052485Y81562929D02*
X84181057Y81562929D01*
X84181057Y81562929D02*
X84266771Y81520072D01*
X84266771Y81520072D02*
X84309628Y81477215D01*
X84309628Y81477215D02*
X84352485Y81391500D01*
X84352485Y81391500D02*
X84352485Y81048643D01*
X83881057Y81862929D02*
X83881057Y82420072D01*
X83881057Y82420072D02*
X84223914Y82120072D01*
X84223914Y82120072D02*
X84223914Y82248643D01*
X84223914Y82248643D02*
X84266771Y82334357D01*
X84266771Y82334357D02*
X84309628Y82377215D01*
X84309628Y82377215D02*
X84395342Y82420072D01*
X84395342Y82420072D02*
X84609628Y82420072D01*
X84609628Y82420072D02*
X84695342Y82377215D01*
X84695342Y82377215D02*
X84738200Y82334357D01*
X84738200Y82334357D02*
X84781057Y82248643D01*
X84781057Y82248643D02*
X84781057Y81991500D01*
X84781057Y81991500D02*
X84738200Y81905786D01*
X84738200Y81905786D02*
X84695342Y81862929D01*
X83881057Y82720072D02*
X83881057Y83277215D01*
X83881057Y83277215D02*
X84223914Y82977215D01*
X84223914Y82977215D02*
X84223914Y83105786D01*
X84223914Y83105786D02*
X84266771Y83191500D01*
X84266771Y83191500D02*
X84309628Y83234358D01*
X84309628Y83234358D02*
X84395342Y83277215D01*
X84395342Y83277215D02*
X84609628Y83277215D01*
X84609628Y83277215D02*
X84695342Y83234358D01*
X84695342Y83234358D02*
X84738200Y83191500D01*
X84738200Y83191500D02*
X84781057Y83105786D01*
X84781057Y83105786D02*
X84781057Y82848643D01*
X84781057Y82848643D02*
X84738200Y82762929D01*
X84738200Y82762929D02*
X84695342Y82720072D01*
X48414285Y90011443D02*
X48414285Y89282872D01*
X48414285Y89282872D02*
X48457142Y89197158D01*
X48457142Y89197158D02*
X48500000Y89154300D01*
X48500000Y89154300D02*
X48585714Y89111443D01*
X48585714Y89111443D02*
X48757142Y89111443D01*
X48757142Y89111443D02*
X48842857Y89154300D01*
X48842857Y89154300D02*
X48885714Y89197158D01*
X48885714Y89197158D02*
X48928571Y89282872D01*
X48928571Y89282872D02*
X48928571Y90011443D01*
X49828571Y89111443D02*
X49314285Y89111443D01*
X49571428Y89111443D02*
X49571428Y90011443D01*
X49571428Y90011443D02*
X49485714Y89882872D01*
X49485714Y89882872D02*
X49399999Y89797158D01*
X49399999Y89797158D02*
X49314285Y89754300D01*
X34472842Y121861429D02*
X34515700Y121818572D01*
X34515700Y121818572D02*
X34558557Y121690000D01*
X34558557Y121690000D02*
X34558557Y121604286D01*
X34558557Y121604286D02*
X34515700Y121475715D01*
X34515700Y121475715D02*
X34429985Y121390000D01*
X34429985Y121390000D02*
X34344271Y121347143D01*
X34344271Y121347143D02*
X34172842Y121304286D01*
X34172842Y121304286D02*
X34044271Y121304286D01*
X34044271Y121304286D02*
X33872842Y121347143D01*
X33872842Y121347143D02*
X33787128Y121390000D01*
X33787128Y121390000D02*
X33701414Y121475715D01*
X33701414Y121475715D02*
X33658557Y121604286D01*
X33658557Y121604286D02*
X33658557Y121690000D01*
X33658557Y121690000D02*
X33701414Y121818572D01*
X33701414Y121818572D02*
X33744271Y121861429D01*
X33658557Y122161429D02*
X33658557Y122718572D01*
X33658557Y122718572D02*
X34001414Y122418572D01*
X34001414Y122418572D02*
X34001414Y122547143D01*
X34001414Y122547143D02*
X34044271Y122632857D01*
X34044271Y122632857D02*
X34087128Y122675715D01*
X34087128Y122675715D02*
X34172842Y122718572D01*
X34172842Y122718572D02*
X34387128Y122718572D01*
X34387128Y122718572D02*
X34472842Y122675715D01*
X34472842Y122675715D02*
X34515700Y122632857D01*
X34515700Y122632857D02*
X34558557Y122547143D01*
X34558557Y122547143D02*
X34558557Y122290000D01*
X34558557Y122290000D02*
X34515700Y122204286D01*
X34515700Y122204286D02*
X34472842Y122161429D01*
X34044271Y123232858D02*
X34001414Y123147143D01*
X34001414Y123147143D02*
X33958557Y123104286D01*
X33958557Y123104286D02*
X33872842Y123061429D01*
X33872842Y123061429D02*
X33829985Y123061429D01*
X33829985Y123061429D02*
X33744271Y123104286D01*
X33744271Y123104286D02*
X33701414Y123147143D01*
X33701414Y123147143D02*
X33658557Y123232858D01*
X33658557Y123232858D02*
X33658557Y123404286D01*
X33658557Y123404286D02*
X33701414Y123490000D01*
X33701414Y123490000D02*
X33744271Y123532858D01*
X33744271Y123532858D02*
X33829985Y123575715D01*
X33829985Y123575715D02*
X33872842Y123575715D01*
X33872842Y123575715D02*
X33958557Y123532858D01*
X33958557Y123532858D02*
X34001414Y123490000D01*
X34001414Y123490000D02*
X34044271Y123404286D01*
X34044271Y123404286D02*
X34044271Y123232858D01*
X34044271Y123232858D02*
X34087128Y123147143D01*
X34087128Y123147143D02*
X34129985Y123104286D01*
X34129985Y123104286D02*
X34215700Y123061429D01*
X34215700Y123061429D02*
X34387128Y123061429D01*
X34387128Y123061429D02*
X34472842Y123104286D01*
X34472842Y123104286D02*
X34515700Y123147143D01*
X34515700Y123147143D02*
X34558557Y123232858D01*
X34558557Y123232858D02*
X34558557Y123404286D01*
X34558557Y123404286D02*
X34515700Y123490000D01*
X34515700Y123490000D02*
X34472842Y123532858D01*
X34472842Y123532858D02*
X34387128Y123575715D01*
X34387128Y123575715D02*
X34215700Y123575715D01*
X34215700Y123575715D02*
X34129985Y123532858D01*
X34129985Y123532858D02*
X34087128Y123490000D01*
X34087128Y123490000D02*
X34044271Y123404286D01*
X2821428Y94977158D02*
X2778571Y94934300D01*
X2778571Y94934300D02*
X2649999Y94891443D01*
X2649999Y94891443D02*
X2564285Y94891443D01*
X2564285Y94891443D02*
X2435714Y94934300D01*
X2435714Y94934300D02*
X2349999Y95020015D01*
X2349999Y95020015D02*
X2307142Y95105729D01*
X2307142Y95105729D02*
X2264285Y95277158D01*
X2264285Y95277158D02*
X2264285Y95405729D01*
X2264285Y95405729D02*
X2307142Y95577158D01*
X2307142Y95577158D02*
X2349999Y95662872D01*
X2349999Y95662872D02*
X2435714Y95748586D01*
X2435714Y95748586D02*
X2564285Y95791443D01*
X2564285Y95791443D02*
X2649999Y95791443D01*
X2649999Y95791443D02*
X2778571Y95748586D01*
X2778571Y95748586D02*
X2821428Y95705729D01*
X3121428Y95791443D02*
X3678571Y95791443D01*
X3678571Y95791443D02*
X3378571Y95448586D01*
X3378571Y95448586D02*
X3507142Y95448586D01*
X3507142Y95448586D02*
X3592857Y95405729D01*
X3592857Y95405729D02*
X3635714Y95362872D01*
X3635714Y95362872D02*
X3678571Y95277158D01*
X3678571Y95277158D02*
X3678571Y95062872D01*
X3678571Y95062872D02*
X3635714Y94977158D01*
X3635714Y94977158D02*
X3592857Y94934300D01*
X3592857Y94934300D02*
X3507142Y94891443D01*
X3507142Y94891443D02*
X3249999Y94891443D01*
X3249999Y94891443D02*
X3164285Y94934300D01*
X3164285Y94934300D02*
X3121428Y94977158D01*
X4535714Y94891443D02*
X4021428Y94891443D01*
X4278571Y94891443D02*
X4278571Y95791443D01*
X4278571Y95791443D02*
X4192857Y95662872D01*
X4192857Y95662872D02*
X4107142Y95577158D01*
X4107142Y95577158D02*
X4021428Y95534300D01*
X22258557Y61926429D02*
X21829985Y61626429D01*
X22258557Y61412143D02*
X21358557Y61412143D01*
X21358557Y61412143D02*
X21358557Y61755000D01*
X21358557Y61755000D02*
X21401414Y61840715D01*
X21401414Y61840715D02*
X21444271Y61883572D01*
X21444271Y61883572D02*
X21529985Y61926429D01*
X21529985Y61926429D02*
X21658557Y61926429D01*
X21658557Y61926429D02*
X21744271Y61883572D01*
X21744271Y61883572D02*
X21787128Y61840715D01*
X21787128Y61840715D02*
X21829985Y61755000D01*
X21829985Y61755000D02*
X21829985Y61412143D01*
X21658557Y62697857D02*
X22258557Y62697857D01*
X21315700Y62483572D02*
X21958557Y62269286D01*
X21958557Y62269286D02*
X21958557Y62826429D01*
X21358557Y63597858D02*
X21358557Y63169286D01*
X21358557Y63169286D02*
X21787128Y63126429D01*
X21787128Y63126429D02*
X21744271Y63169286D01*
X21744271Y63169286D02*
X21701414Y63255000D01*
X21701414Y63255000D02*
X21701414Y63469286D01*
X21701414Y63469286D02*
X21744271Y63555000D01*
X21744271Y63555000D02*
X21787128Y63597858D01*
X21787128Y63597858D02*
X21872842Y63640715D01*
X21872842Y63640715D02*
X22087128Y63640715D01*
X22087128Y63640715D02*
X22172842Y63597858D01*
X22172842Y63597858D02*
X22215700Y63555000D01*
X22215700Y63555000D02*
X22258557Y63469286D01*
X22258557Y63469286D02*
X22258557Y63255000D01*
X22258557Y63255000D02*
X22215700Y63169286D01*
X22215700Y63169286D02*
X22172842Y63126429D01*
X70011428Y25991443D02*
X69711428Y26420015D01*
X69497142Y25991443D02*
X69497142Y26891443D01*
X69497142Y26891443D02*
X69839999Y26891443D01*
X69839999Y26891443D02*
X69925714Y26848586D01*
X69925714Y26848586D02*
X69968571Y26805729D01*
X69968571Y26805729D02*
X70011428Y26720015D01*
X70011428Y26720015D02*
X70011428Y26591443D01*
X70011428Y26591443D02*
X69968571Y26505729D01*
X69968571Y26505729D02*
X69925714Y26462872D01*
X69925714Y26462872D02*
X69839999Y26420015D01*
X69839999Y26420015D02*
X69497142Y26420015D01*
X70825714Y26891443D02*
X70397142Y26891443D01*
X70397142Y26891443D02*
X70354285Y26462872D01*
X70354285Y26462872D02*
X70397142Y26505729D01*
X70397142Y26505729D02*
X70482857Y26548586D01*
X70482857Y26548586D02*
X70697142Y26548586D01*
X70697142Y26548586D02*
X70782857Y26505729D01*
X70782857Y26505729D02*
X70825714Y26462872D01*
X70825714Y26462872D02*
X70868571Y26377158D01*
X70868571Y26377158D02*
X70868571Y26162872D01*
X70868571Y26162872D02*
X70825714Y26077158D01*
X70825714Y26077158D02*
X70782857Y26034300D01*
X70782857Y26034300D02*
X70697142Y25991443D01*
X70697142Y25991443D02*
X70482857Y25991443D01*
X70482857Y25991443D02*
X70397142Y26034300D01*
X70397142Y26034300D02*
X70354285Y26077158D01*
X71682857Y26891443D02*
X71254285Y26891443D01*
X71254285Y26891443D02*
X71211428Y26462872D01*
X71211428Y26462872D02*
X71254285Y26505729D01*
X71254285Y26505729D02*
X71340000Y26548586D01*
X71340000Y26548586D02*
X71554285Y26548586D01*
X71554285Y26548586D02*
X71640000Y26505729D01*
X71640000Y26505729D02*
X71682857Y26462872D01*
X71682857Y26462872D02*
X71725714Y26377158D01*
X71725714Y26377158D02*
X71725714Y26162872D01*
X71725714Y26162872D02*
X71682857Y26077158D01*
X71682857Y26077158D02*
X71640000Y26034300D01*
X71640000Y26034300D02*
X71554285Y25991443D01*
X71554285Y25991443D02*
X71340000Y25991443D01*
X71340000Y25991443D02*
X71254285Y26034300D01*
X71254285Y26034300D02*
X71211428Y26077158D01*
X76318842Y95252929D02*
X76361700Y95210072D01*
X76361700Y95210072D02*
X76404557Y95081500D01*
X76404557Y95081500D02*
X76404557Y94995786D01*
X76404557Y94995786D02*
X76361700Y94867215D01*
X76361700Y94867215D02*
X76275985Y94781500D01*
X76275985Y94781500D02*
X76190271Y94738643D01*
X76190271Y94738643D02*
X76018842Y94695786D01*
X76018842Y94695786D02*
X75890271Y94695786D01*
X75890271Y94695786D02*
X75718842Y94738643D01*
X75718842Y94738643D02*
X75633128Y94781500D01*
X75633128Y94781500D02*
X75547414Y94867215D01*
X75547414Y94867215D02*
X75504557Y94995786D01*
X75504557Y94995786D02*
X75504557Y95081500D01*
X75504557Y95081500D02*
X75547414Y95210072D01*
X75547414Y95210072D02*
X75590271Y95252929D01*
X75590271Y95595786D02*
X75547414Y95638643D01*
X75547414Y95638643D02*
X75504557Y95724357D01*
X75504557Y95724357D02*
X75504557Y95938643D01*
X75504557Y95938643D02*
X75547414Y96024357D01*
X75547414Y96024357D02*
X75590271Y96067215D01*
X75590271Y96067215D02*
X75675985Y96110072D01*
X75675985Y96110072D02*
X75761700Y96110072D01*
X75761700Y96110072D02*
X75890271Y96067215D01*
X75890271Y96067215D02*
X76404557Y95552929D01*
X76404557Y95552929D02*
X76404557Y96110072D01*
X75504557Y96410072D02*
X75504557Y97010072D01*
X75504557Y97010072D02*
X76404557Y96624358D01*
X22258557Y65526429D02*
X21829985Y65226429D01*
X22258557Y65012143D02*
X21358557Y65012143D01*
X21358557Y65012143D02*
X21358557Y65355000D01*
X21358557Y65355000D02*
X21401414Y65440715D01*
X21401414Y65440715D02*
X21444271Y65483572D01*
X21444271Y65483572D02*
X21529985Y65526429D01*
X21529985Y65526429D02*
X21658557Y65526429D01*
X21658557Y65526429D02*
X21744271Y65483572D01*
X21744271Y65483572D02*
X21787128Y65440715D01*
X21787128Y65440715D02*
X21829985Y65355000D01*
X21829985Y65355000D02*
X21829985Y65012143D01*
X21658557Y66297857D02*
X22258557Y66297857D01*
X21315700Y66083572D02*
X21958557Y65869286D01*
X21958557Y65869286D02*
X21958557Y66426429D01*
X21358557Y67155000D02*
X21358557Y66983572D01*
X21358557Y66983572D02*
X21401414Y66897858D01*
X21401414Y66897858D02*
X21444271Y66855000D01*
X21444271Y66855000D02*
X21572842Y66769286D01*
X21572842Y66769286D02*
X21744271Y66726429D01*
X21744271Y66726429D02*
X22087128Y66726429D01*
X22087128Y66726429D02*
X22172842Y66769286D01*
X22172842Y66769286D02*
X22215700Y66812143D01*
X22215700Y66812143D02*
X22258557Y66897858D01*
X22258557Y66897858D02*
X22258557Y67069286D01*
X22258557Y67069286D02*
X22215700Y67155000D01*
X22215700Y67155000D02*
X22172842Y67197858D01*
X22172842Y67197858D02*
X22087128Y67240715D01*
X22087128Y67240715D02*
X21872842Y67240715D01*
X21872842Y67240715D02*
X21787128Y67197858D01*
X21787128Y67197858D02*
X21744271Y67155000D01*
X21744271Y67155000D02*
X21701414Y67069286D01*
X21701414Y67069286D02*
X21701414Y66897858D01*
X21701414Y66897858D02*
X21744271Y66812143D01*
X21744271Y66812143D02*
X21787128Y66769286D01*
X21787128Y66769286D02*
X21872842Y66726429D01*
X2521428Y77757158D02*
X2478571Y77714300D01*
X2478571Y77714300D02*
X2349999Y77671443D01*
X2349999Y77671443D02*
X2264285Y77671443D01*
X2264285Y77671443D02*
X2135714Y77714300D01*
X2135714Y77714300D02*
X2049999Y77800015D01*
X2049999Y77800015D02*
X2007142Y77885729D01*
X2007142Y77885729D02*
X1964285Y78057158D01*
X1964285Y78057158D02*
X1964285Y78185729D01*
X1964285Y78185729D02*
X2007142Y78357158D01*
X2007142Y78357158D02*
X2049999Y78442872D01*
X2049999Y78442872D02*
X2135714Y78528586D01*
X2135714Y78528586D02*
X2264285Y78571443D01*
X2264285Y78571443D02*
X2349999Y78571443D01*
X2349999Y78571443D02*
X2478571Y78528586D01*
X2478571Y78528586D02*
X2521428Y78485729D01*
X2821428Y78571443D02*
X3378571Y78571443D01*
X3378571Y78571443D02*
X3078571Y78228586D01*
X3078571Y78228586D02*
X3207142Y78228586D01*
X3207142Y78228586D02*
X3292857Y78185729D01*
X3292857Y78185729D02*
X3335714Y78142872D01*
X3335714Y78142872D02*
X3378571Y78057158D01*
X3378571Y78057158D02*
X3378571Y77842872D01*
X3378571Y77842872D02*
X3335714Y77757158D01*
X3335714Y77757158D02*
X3292857Y77714300D01*
X3292857Y77714300D02*
X3207142Y77671443D01*
X3207142Y77671443D02*
X2949999Y77671443D01*
X2949999Y77671443D02*
X2864285Y77714300D01*
X2864285Y77714300D02*
X2821428Y77757158D01*
X3721428Y78485729D02*
X3764285Y78528586D01*
X3764285Y78528586D02*
X3850000Y78571443D01*
X3850000Y78571443D02*
X4064285Y78571443D01*
X4064285Y78571443D02*
X4150000Y78528586D01*
X4150000Y78528586D02*
X4192857Y78485729D01*
X4192857Y78485729D02*
X4235714Y78400015D01*
X4235714Y78400015D02*
X4235714Y78314300D01*
X4235714Y78314300D02*
X4192857Y78185729D01*
X4192857Y78185729D02*
X3678571Y77671443D01*
X3678571Y77671443D02*
X4235714Y77671443D01*
X29922842Y113821429D02*
X29965700Y113778572D01*
X29965700Y113778572D02*
X30008557Y113650000D01*
X30008557Y113650000D02*
X30008557Y113564286D01*
X30008557Y113564286D02*
X29965700Y113435715D01*
X29965700Y113435715D02*
X29879985Y113350000D01*
X29879985Y113350000D02*
X29794271Y113307143D01*
X29794271Y113307143D02*
X29622842Y113264286D01*
X29622842Y113264286D02*
X29494271Y113264286D01*
X29494271Y113264286D02*
X29322842Y113307143D01*
X29322842Y113307143D02*
X29237128Y113350000D01*
X29237128Y113350000D02*
X29151414Y113435715D01*
X29151414Y113435715D02*
X29108557Y113564286D01*
X29108557Y113564286D02*
X29108557Y113650000D01*
X29108557Y113650000D02*
X29151414Y113778572D01*
X29151414Y113778572D02*
X29194271Y113821429D01*
X29108557Y114121429D02*
X29108557Y114678572D01*
X29108557Y114678572D02*
X29451414Y114378572D01*
X29451414Y114378572D02*
X29451414Y114507143D01*
X29451414Y114507143D02*
X29494271Y114592857D01*
X29494271Y114592857D02*
X29537128Y114635715D01*
X29537128Y114635715D02*
X29622842Y114678572D01*
X29622842Y114678572D02*
X29837128Y114678572D01*
X29837128Y114678572D02*
X29922842Y114635715D01*
X29922842Y114635715D02*
X29965700Y114592857D01*
X29965700Y114592857D02*
X30008557Y114507143D01*
X30008557Y114507143D02*
X30008557Y114250000D01*
X30008557Y114250000D02*
X29965700Y114164286D01*
X29965700Y114164286D02*
X29922842Y114121429D01*
X29408557Y115450000D02*
X30008557Y115450000D01*
X29065700Y115235715D02*
X29708557Y115021429D01*
X29708557Y115021429D02*
X29708557Y115578572D01*
X13121428Y98891443D02*
X12821428Y99320015D01*
X12607142Y98891443D02*
X12607142Y99791443D01*
X12607142Y99791443D02*
X12949999Y99791443D01*
X12949999Y99791443D02*
X13035714Y99748586D01*
X13035714Y99748586D02*
X13078571Y99705729D01*
X13078571Y99705729D02*
X13121428Y99620015D01*
X13121428Y99620015D02*
X13121428Y99491443D01*
X13121428Y99491443D02*
X13078571Y99405729D01*
X13078571Y99405729D02*
X13035714Y99362872D01*
X13035714Y99362872D02*
X12949999Y99320015D01*
X12949999Y99320015D02*
X12607142Y99320015D01*
X13892857Y99491443D02*
X13892857Y98891443D01*
X13678571Y99834300D02*
X13464285Y99191443D01*
X13464285Y99191443D02*
X14021428Y99191443D01*
X14835714Y98891443D02*
X14321428Y98891443D01*
X14578571Y98891443D02*
X14578571Y99791443D01*
X14578571Y99791443D02*
X14492857Y99662872D01*
X14492857Y99662872D02*
X14407142Y99577158D01*
X14407142Y99577158D02*
X14321428Y99534300D01*
X96238557Y92382429D02*
X95809985Y92082429D01*
X96238557Y91868143D02*
X95338557Y91868143D01*
X95338557Y91868143D02*
X95338557Y92211000D01*
X95338557Y92211000D02*
X95381414Y92296715D01*
X95381414Y92296715D02*
X95424271Y92339572D01*
X95424271Y92339572D02*
X95509985Y92382429D01*
X95509985Y92382429D02*
X95638557Y92382429D01*
X95638557Y92382429D02*
X95724271Y92339572D01*
X95724271Y92339572D02*
X95767128Y92296715D01*
X95767128Y92296715D02*
X95809985Y92211000D01*
X95809985Y92211000D02*
X95809985Y91868143D01*
X95424271Y92725286D02*
X95381414Y92768143D01*
X95381414Y92768143D02*
X95338557Y92853857D01*
X95338557Y92853857D02*
X95338557Y93068143D01*
X95338557Y93068143D02*
X95381414Y93153857D01*
X95381414Y93153857D02*
X95424271Y93196715D01*
X95424271Y93196715D02*
X95509985Y93239572D01*
X95509985Y93239572D02*
X95595700Y93239572D01*
X95595700Y93239572D02*
X95724271Y93196715D01*
X95724271Y93196715D02*
X96238557Y92682429D01*
X96238557Y92682429D02*
X96238557Y93239572D01*
X95338557Y94053858D02*
X95338557Y93625286D01*
X95338557Y93625286D02*
X95767128Y93582429D01*
X95767128Y93582429D02*
X95724271Y93625286D01*
X95724271Y93625286D02*
X95681414Y93711000D01*
X95681414Y93711000D02*
X95681414Y93925286D01*
X95681414Y93925286D02*
X95724271Y94011000D01*
X95724271Y94011000D02*
X95767128Y94053858D01*
X95767128Y94053858D02*
X95852842Y94096715D01*
X95852842Y94096715D02*
X96067128Y94096715D01*
X96067128Y94096715D02*
X96152842Y94053858D01*
X96152842Y94053858D02*
X96195700Y94011000D01*
X96195700Y94011000D02*
X96238557Y93925286D01*
X96238557Y93925286D02*
X96238557Y93711000D01*
X96238557Y93711000D02*
X96195700Y93625286D01*
X96195700Y93625286D02*
X96152842Y93582429D01*
X25771428Y52582158D02*
X25728571Y52539300D01*
X25728571Y52539300D02*
X25599999Y52496443D01*
X25599999Y52496443D02*
X25514285Y52496443D01*
X25514285Y52496443D02*
X25385714Y52539300D01*
X25385714Y52539300D02*
X25299999Y52625015D01*
X25299999Y52625015D02*
X25257142Y52710729D01*
X25257142Y52710729D02*
X25214285Y52882158D01*
X25214285Y52882158D02*
X25214285Y53010729D01*
X25214285Y53010729D02*
X25257142Y53182158D01*
X25257142Y53182158D02*
X25299999Y53267872D01*
X25299999Y53267872D02*
X25385714Y53353586D01*
X25385714Y53353586D02*
X25514285Y53396443D01*
X25514285Y53396443D02*
X25599999Y53396443D01*
X25599999Y53396443D02*
X25728571Y53353586D01*
X25728571Y53353586D02*
X25771428Y53310729D01*
X26542857Y53096443D02*
X26542857Y52496443D01*
X26328571Y53439300D02*
X26114285Y52796443D01*
X26114285Y52796443D02*
X26671428Y52796443D01*
X27400000Y53396443D02*
X27228571Y53396443D01*
X27228571Y53396443D02*
X27142857Y53353586D01*
X27142857Y53353586D02*
X27100000Y53310729D01*
X27100000Y53310729D02*
X27014285Y53182158D01*
X27014285Y53182158D02*
X26971428Y53010729D01*
X26971428Y53010729D02*
X26971428Y52667872D01*
X26971428Y52667872D02*
X27014285Y52582158D01*
X27014285Y52582158D02*
X27057142Y52539300D01*
X27057142Y52539300D02*
X27142857Y52496443D01*
X27142857Y52496443D02*
X27314285Y52496443D01*
X27314285Y52496443D02*
X27400000Y52539300D01*
X27400000Y52539300D02*
X27442857Y52582158D01*
X27442857Y52582158D02*
X27485714Y52667872D01*
X27485714Y52667872D02*
X27485714Y52882158D01*
X27485714Y52882158D02*
X27442857Y52967872D01*
X27442857Y52967872D02*
X27400000Y53010729D01*
X27400000Y53010729D02*
X27314285Y53053586D01*
X27314285Y53053586D02*
X27142857Y53053586D01*
X27142857Y53053586D02*
X27057142Y53010729D01*
X27057142Y53010729D02*
X27014285Y52967872D01*
X27014285Y52967872D02*
X26971428Y52882158D01*
X78650000Y72711443D02*
X78650000Y72068586D01*
X78650000Y72068586D02*
X78607143Y71940015D01*
X78607143Y71940015D02*
X78521429Y71854300D01*
X78521429Y71854300D02*
X78392857Y71811443D01*
X78392857Y71811443D02*
X78307143Y71811443D01*
X79078571Y71811443D02*
X79078571Y72711443D01*
X79078571Y72711443D02*
X79421428Y72711443D01*
X79421428Y72711443D02*
X79507143Y72668586D01*
X79507143Y72668586D02*
X79550000Y72625729D01*
X79550000Y72625729D02*
X79592857Y72540015D01*
X79592857Y72540015D02*
X79592857Y72411443D01*
X79592857Y72411443D02*
X79550000Y72325729D01*
X79550000Y72325729D02*
X79507143Y72282872D01*
X79507143Y72282872D02*
X79421428Y72240015D01*
X79421428Y72240015D02*
X79078571Y72240015D01*
X80450000Y71811443D02*
X79935714Y71811443D01*
X80192857Y71811443D02*
X80192857Y72711443D01*
X80192857Y72711443D02*
X80107143Y72582872D01*
X80107143Y72582872D02*
X80021428Y72497158D01*
X80021428Y72497158D02*
X79935714Y72454300D01*
X68211428Y29391443D02*
X67911428Y29820015D01*
X67697142Y29391443D02*
X67697142Y30291443D01*
X67697142Y30291443D02*
X68039999Y30291443D01*
X68039999Y30291443D02*
X68125714Y30248586D01*
X68125714Y30248586D02*
X68168571Y30205729D01*
X68168571Y30205729D02*
X68211428Y30120015D01*
X68211428Y30120015D02*
X68211428Y29991443D01*
X68211428Y29991443D02*
X68168571Y29905729D01*
X68168571Y29905729D02*
X68125714Y29862872D01*
X68125714Y29862872D02*
X68039999Y29820015D01*
X68039999Y29820015D02*
X67697142Y29820015D01*
X69025714Y30291443D02*
X68597142Y30291443D01*
X68597142Y30291443D02*
X68554285Y29862872D01*
X68554285Y29862872D02*
X68597142Y29905729D01*
X68597142Y29905729D02*
X68682857Y29948586D01*
X68682857Y29948586D02*
X68897142Y29948586D01*
X68897142Y29948586D02*
X68982857Y29905729D01*
X68982857Y29905729D02*
X69025714Y29862872D01*
X69025714Y29862872D02*
X69068571Y29777158D01*
X69068571Y29777158D02*
X69068571Y29562872D01*
X69068571Y29562872D02*
X69025714Y29477158D01*
X69025714Y29477158D02*
X68982857Y29434300D01*
X68982857Y29434300D02*
X68897142Y29391443D01*
X68897142Y29391443D02*
X68682857Y29391443D01*
X68682857Y29391443D02*
X68597142Y29434300D01*
X68597142Y29434300D02*
X68554285Y29477158D01*
X69840000Y30291443D02*
X69668571Y30291443D01*
X69668571Y30291443D02*
X69582857Y30248586D01*
X69582857Y30248586D02*
X69540000Y30205729D01*
X69540000Y30205729D02*
X69454285Y30077158D01*
X69454285Y30077158D02*
X69411428Y29905729D01*
X69411428Y29905729D02*
X69411428Y29562872D01*
X69411428Y29562872D02*
X69454285Y29477158D01*
X69454285Y29477158D02*
X69497142Y29434300D01*
X69497142Y29434300D02*
X69582857Y29391443D01*
X69582857Y29391443D02*
X69754285Y29391443D01*
X69754285Y29391443D02*
X69840000Y29434300D01*
X69840000Y29434300D02*
X69882857Y29477158D01*
X69882857Y29477158D02*
X69925714Y29562872D01*
X69925714Y29562872D02*
X69925714Y29777158D01*
X69925714Y29777158D02*
X69882857Y29862872D01*
X69882857Y29862872D02*
X69840000Y29905729D01*
X69840000Y29905729D02*
X69754285Y29948586D01*
X69754285Y29948586D02*
X69582857Y29948586D01*
X69582857Y29948586D02*
X69497142Y29905729D01*
X69497142Y29905729D02*
X69454285Y29862872D01*
X69454285Y29862872D02*
X69411428Y29777158D01*
X30981428Y107441443D02*
X30681428Y107870015D01*
X30467142Y107441443D02*
X30467142Y108341443D01*
X30467142Y108341443D02*
X30809999Y108341443D01*
X30809999Y108341443D02*
X30895714Y108298586D01*
X30895714Y108298586D02*
X30938571Y108255729D01*
X30938571Y108255729D02*
X30981428Y108170015D01*
X30981428Y108170015D02*
X30981428Y108041443D01*
X30981428Y108041443D02*
X30938571Y107955729D01*
X30938571Y107955729D02*
X30895714Y107912872D01*
X30895714Y107912872D02*
X30809999Y107870015D01*
X30809999Y107870015D02*
X30467142Y107870015D01*
X31752857Y108041443D02*
X31752857Y107441443D01*
X31538571Y108384300D02*
X31324285Y107741443D01*
X31324285Y107741443D02*
X31881428Y107741443D01*
X32181428Y108255729D02*
X32224285Y108298586D01*
X32224285Y108298586D02*
X32310000Y108341443D01*
X32310000Y108341443D02*
X32524285Y108341443D01*
X32524285Y108341443D02*
X32610000Y108298586D01*
X32610000Y108298586D02*
X32652857Y108255729D01*
X32652857Y108255729D02*
X32695714Y108170015D01*
X32695714Y108170015D02*
X32695714Y108084300D01*
X32695714Y108084300D02*
X32652857Y107955729D01*
X32652857Y107955729D02*
X32138571Y107441443D01*
X32138571Y107441443D02*
X32695714Y107441443D01*
X70822842Y95903429D02*
X70865700Y95860572D01*
X70865700Y95860572D02*
X70908557Y95732000D01*
X70908557Y95732000D02*
X70908557Y95646286D01*
X70908557Y95646286D02*
X70865700Y95517715D01*
X70865700Y95517715D02*
X70779985Y95432000D01*
X70779985Y95432000D02*
X70694271Y95389143D01*
X70694271Y95389143D02*
X70522842Y95346286D01*
X70522842Y95346286D02*
X70394271Y95346286D01*
X70394271Y95346286D02*
X70222842Y95389143D01*
X70222842Y95389143D02*
X70137128Y95432000D01*
X70137128Y95432000D02*
X70051414Y95517715D01*
X70051414Y95517715D02*
X70008557Y95646286D01*
X70008557Y95646286D02*
X70008557Y95732000D01*
X70008557Y95732000D02*
X70051414Y95860572D01*
X70051414Y95860572D02*
X70094271Y95903429D01*
X70094271Y96246286D02*
X70051414Y96289143D01*
X70051414Y96289143D02*
X70008557Y96374857D01*
X70008557Y96374857D02*
X70008557Y96589143D01*
X70008557Y96589143D02*
X70051414Y96674857D01*
X70051414Y96674857D02*
X70094271Y96717715D01*
X70094271Y96717715D02*
X70179985Y96760572D01*
X70179985Y96760572D02*
X70265700Y96760572D01*
X70265700Y96760572D02*
X70394271Y96717715D01*
X70394271Y96717715D02*
X70908557Y96203429D01*
X70908557Y96203429D02*
X70908557Y96760572D01*
X70008557Y97574858D02*
X70008557Y97146286D01*
X70008557Y97146286D02*
X70437128Y97103429D01*
X70437128Y97103429D02*
X70394271Y97146286D01*
X70394271Y97146286D02*
X70351414Y97232000D01*
X70351414Y97232000D02*
X70351414Y97446286D01*
X70351414Y97446286D02*
X70394271Y97532000D01*
X70394271Y97532000D02*
X70437128Y97574858D01*
X70437128Y97574858D02*
X70522842Y97617715D01*
X70522842Y97617715D02*
X70737128Y97617715D01*
X70737128Y97617715D02*
X70822842Y97574858D01*
X70822842Y97574858D02*
X70865700Y97532000D01*
X70865700Y97532000D02*
X70908557Y97446286D01*
X70908557Y97446286D02*
X70908557Y97232000D01*
X70908557Y97232000D02*
X70865700Y97146286D01*
X70865700Y97146286D02*
X70822842Y97103429D01*
X35172842Y65776429D02*
X35215700Y65733572D01*
X35215700Y65733572D02*
X35258557Y65605000D01*
X35258557Y65605000D02*
X35258557Y65519286D01*
X35258557Y65519286D02*
X35215700Y65390715D01*
X35215700Y65390715D02*
X35129985Y65305000D01*
X35129985Y65305000D02*
X35044271Y65262143D01*
X35044271Y65262143D02*
X34872842Y65219286D01*
X34872842Y65219286D02*
X34744271Y65219286D01*
X34744271Y65219286D02*
X34572842Y65262143D01*
X34572842Y65262143D02*
X34487128Y65305000D01*
X34487128Y65305000D02*
X34401414Y65390715D01*
X34401414Y65390715D02*
X34358557Y65519286D01*
X34358557Y65519286D02*
X34358557Y65605000D01*
X34358557Y65605000D02*
X34401414Y65733572D01*
X34401414Y65733572D02*
X34444271Y65776429D01*
X34658557Y66547857D02*
X35258557Y66547857D01*
X34315700Y66333572D02*
X34958557Y66119286D01*
X34958557Y66119286D02*
X34958557Y66676429D01*
X34444271Y66976429D02*
X34401414Y67019286D01*
X34401414Y67019286D02*
X34358557Y67105000D01*
X34358557Y67105000D02*
X34358557Y67319286D01*
X34358557Y67319286D02*
X34401414Y67405000D01*
X34401414Y67405000D02*
X34444271Y67447858D01*
X34444271Y67447858D02*
X34529985Y67490715D01*
X34529985Y67490715D02*
X34615700Y67490715D01*
X34615700Y67490715D02*
X34744271Y67447858D01*
X34744271Y67447858D02*
X35258557Y66933572D01*
X35258557Y66933572D02*
X35258557Y67490715D01*
X89933557Y103621429D02*
X89504985Y103321429D01*
X89933557Y103107143D02*
X89033557Y103107143D01*
X89033557Y103107143D02*
X89033557Y103450000D01*
X89033557Y103450000D02*
X89076414Y103535715D01*
X89076414Y103535715D02*
X89119271Y103578572D01*
X89119271Y103578572D02*
X89204985Y103621429D01*
X89204985Y103621429D02*
X89333557Y103621429D01*
X89333557Y103621429D02*
X89419271Y103578572D01*
X89419271Y103578572D02*
X89462128Y103535715D01*
X89462128Y103535715D02*
X89504985Y103450000D01*
X89504985Y103450000D02*
X89504985Y103107143D01*
X89033557Y104435715D02*
X89033557Y104007143D01*
X89033557Y104007143D02*
X89462128Y103964286D01*
X89462128Y103964286D02*
X89419271Y104007143D01*
X89419271Y104007143D02*
X89376414Y104092857D01*
X89376414Y104092857D02*
X89376414Y104307143D01*
X89376414Y104307143D02*
X89419271Y104392857D01*
X89419271Y104392857D02*
X89462128Y104435715D01*
X89462128Y104435715D02*
X89547842Y104478572D01*
X89547842Y104478572D02*
X89762128Y104478572D01*
X89762128Y104478572D02*
X89847842Y104435715D01*
X89847842Y104435715D02*
X89890700Y104392857D01*
X89890700Y104392857D02*
X89933557Y104307143D01*
X89933557Y104307143D02*
X89933557Y104092857D01*
X89933557Y104092857D02*
X89890700Y104007143D01*
X89890700Y104007143D02*
X89847842Y103964286D01*
X89033557Y105035715D02*
X89033557Y105121429D01*
X89033557Y105121429D02*
X89076414Y105207143D01*
X89076414Y105207143D02*
X89119271Y105250000D01*
X89119271Y105250000D02*
X89204985Y105292858D01*
X89204985Y105292858D02*
X89376414Y105335715D01*
X89376414Y105335715D02*
X89590700Y105335715D01*
X89590700Y105335715D02*
X89762128Y105292858D01*
X89762128Y105292858D02*
X89847842Y105250000D01*
X89847842Y105250000D02*
X89890700Y105207143D01*
X89890700Y105207143D02*
X89933557Y105121429D01*
X89933557Y105121429D02*
X89933557Y105035715D01*
X89933557Y105035715D02*
X89890700Y104950000D01*
X89890700Y104950000D02*
X89847842Y104907143D01*
X89847842Y104907143D02*
X89762128Y104864286D01*
X89762128Y104864286D02*
X89590700Y104821429D01*
X89590700Y104821429D02*
X89376414Y104821429D01*
X89376414Y104821429D02*
X89204985Y104864286D01*
X89204985Y104864286D02*
X89119271Y104907143D01*
X89119271Y104907143D02*
X89076414Y104950000D01*
X89076414Y104950000D02*
X89033557Y105035715D01*
X65171428Y84201443D02*
X64871428Y84630015D01*
X64657142Y84201443D02*
X64657142Y85101443D01*
X64657142Y85101443D02*
X64999999Y85101443D01*
X64999999Y85101443D02*
X65085714Y85058586D01*
X65085714Y85058586D02*
X65128571Y85015729D01*
X65128571Y85015729D02*
X65171428Y84930015D01*
X65171428Y84930015D02*
X65171428Y84801443D01*
X65171428Y84801443D02*
X65128571Y84715729D01*
X65128571Y84715729D02*
X65085714Y84672872D01*
X65085714Y84672872D02*
X64999999Y84630015D01*
X64999999Y84630015D02*
X64657142Y84630015D01*
X65471428Y85101443D02*
X66028571Y85101443D01*
X66028571Y85101443D02*
X65728571Y84758586D01*
X65728571Y84758586D02*
X65857142Y84758586D01*
X65857142Y84758586D02*
X65942857Y84715729D01*
X65942857Y84715729D02*
X65985714Y84672872D01*
X65985714Y84672872D02*
X66028571Y84587158D01*
X66028571Y84587158D02*
X66028571Y84372872D01*
X66028571Y84372872D02*
X65985714Y84287158D01*
X65985714Y84287158D02*
X65942857Y84244300D01*
X65942857Y84244300D02*
X65857142Y84201443D01*
X65857142Y84201443D02*
X65599999Y84201443D01*
X65599999Y84201443D02*
X65514285Y84244300D01*
X65514285Y84244300D02*
X65471428Y84287158D01*
X66328571Y85101443D02*
X66928571Y85101443D01*
X66928571Y85101443D02*
X66542857Y84201443D01*
X89450000Y72711443D02*
X89150000Y73140015D01*
X88935714Y72711443D02*
X88935714Y73611443D01*
X88935714Y73611443D02*
X89278571Y73611443D01*
X89278571Y73611443D02*
X89364286Y73568586D01*
X89364286Y73568586D02*
X89407143Y73525729D01*
X89407143Y73525729D02*
X89450000Y73440015D01*
X89450000Y73440015D02*
X89450000Y73311443D01*
X89450000Y73311443D02*
X89407143Y73225729D01*
X89407143Y73225729D02*
X89364286Y73182872D01*
X89364286Y73182872D02*
X89278571Y73140015D01*
X89278571Y73140015D02*
X88935714Y73140015D01*
X89792857Y73525729D02*
X89835714Y73568586D01*
X89835714Y73568586D02*
X89921429Y73611443D01*
X89921429Y73611443D02*
X90135714Y73611443D01*
X90135714Y73611443D02*
X90221429Y73568586D01*
X90221429Y73568586D02*
X90264286Y73525729D01*
X90264286Y73525729D02*
X90307143Y73440015D01*
X90307143Y73440015D02*
X90307143Y73354300D01*
X90307143Y73354300D02*
X90264286Y73225729D01*
X90264286Y73225729D02*
X89750000Y72711443D01*
X89750000Y72711443D02*
X90307143Y72711443D01*
X22571428Y55396443D02*
X22271428Y55825015D01*
X22057142Y55396443D02*
X22057142Y56296443D01*
X22057142Y56296443D02*
X22399999Y56296443D01*
X22399999Y56296443D02*
X22485714Y56253586D01*
X22485714Y56253586D02*
X22528571Y56210729D01*
X22528571Y56210729D02*
X22571428Y56125015D01*
X22571428Y56125015D02*
X22571428Y55996443D01*
X22571428Y55996443D02*
X22528571Y55910729D01*
X22528571Y55910729D02*
X22485714Y55867872D01*
X22485714Y55867872D02*
X22399999Y55825015D01*
X22399999Y55825015D02*
X22057142Y55825015D01*
X23342857Y55996443D02*
X23342857Y55396443D01*
X23128571Y56339300D02*
X22914285Y55696443D01*
X22914285Y55696443D02*
X23471428Y55696443D01*
X23728571Y56296443D02*
X24328571Y56296443D01*
X24328571Y56296443D02*
X23942857Y55396443D01*
X22966666Y127745181D02*
X22966666Y127030896D01*
X22966666Y127030896D02*
X22919047Y126888039D01*
X22919047Y126888039D02*
X22823809Y126792800D01*
X22823809Y126792800D02*
X22680952Y126745181D01*
X22680952Y126745181D02*
X22585714Y126745181D01*
X23395238Y127649943D02*
X23442857Y127697562D01*
X23442857Y127697562D02*
X23538095Y127745181D01*
X23538095Y127745181D02*
X23776190Y127745181D01*
X23776190Y127745181D02*
X23871428Y127697562D01*
X23871428Y127697562D02*
X23919047Y127649943D01*
X23919047Y127649943D02*
X23966666Y127554705D01*
X23966666Y127554705D02*
X23966666Y127459467D01*
X23966666Y127459467D02*
X23919047Y127316610D01*
X23919047Y127316610D02*
X23347619Y126745181D01*
X23347619Y126745181D02*
X23966666Y126745181D01*
X90121428Y13491443D02*
X89821428Y13920015D01*
X89607142Y13491443D02*
X89607142Y14391443D01*
X89607142Y14391443D02*
X89949999Y14391443D01*
X89949999Y14391443D02*
X90035714Y14348586D01*
X90035714Y14348586D02*
X90078571Y14305729D01*
X90078571Y14305729D02*
X90121428Y14220015D01*
X90121428Y14220015D02*
X90121428Y14091443D01*
X90121428Y14091443D02*
X90078571Y14005729D01*
X90078571Y14005729D02*
X90035714Y13962872D01*
X90035714Y13962872D02*
X89949999Y13920015D01*
X89949999Y13920015D02*
X89607142Y13920015D01*
X90935714Y14391443D02*
X90507142Y14391443D01*
X90507142Y14391443D02*
X90464285Y13962872D01*
X90464285Y13962872D02*
X90507142Y14005729D01*
X90507142Y14005729D02*
X90592857Y14048586D01*
X90592857Y14048586D02*
X90807142Y14048586D01*
X90807142Y14048586D02*
X90892857Y14005729D01*
X90892857Y14005729D02*
X90935714Y13962872D01*
X90935714Y13962872D02*
X90978571Y13877158D01*
X90978571Y13877158D02*
X90978571Y13662872D01*
X90978571Y13662872D02*
X90935714Y13577158D01*
X90935714Y13577158D02*
X90892857Y13534300D01*
X90892857Y13534300D02*
X90807142Y13491443D01*
X90807142Y13491443D02*
X90592857Y13491443D01*
X90592857Y13491443D02*
X90507142Y13534300D01*
X90507142Y13534300D02*
X90464285Y13577158D01*
X91492857Y14005729D02*
X91407142Y14048586D01*
X91407142Y14048586D02*
X91364285Y14091443D01*
X91364285Y14091443D02*
X91321428Y14177158D01*
X91321428Y14177158D02*
X91321428Y14220015D01*
X91321428Y14220015D02*
X91364285Y14305729D01*
X91364285Y14305729D02*
X91407142Y14348586D01*
X91407142Y14348586D02*
X91492857Y14391443D01*
X91492857Y14391443D02*
X91664285Y14391443D01*
X91664285Y14391443D02*
X91750000Y14348586D01*
X91750000Y14348586D02*
X91792857Y14305729D01*
X91792857Y14305729D02*
X91835714Y14220015D01*
X91835714Y14220015D02*
X91835714Y14177158D01*
X91835714Y14177158D02*
X91792857Y14091443D01*
X91792857Y14091443D02*
X91750000Y14048586D01*
X91750000Y14048586D02*
X91664285Y14005729D01*
X91664285Y14005729D02*
X91492857Y14005729D01*
X91492857Y14005729D02*
X91407142Y13962872D01*
X91407142Y13962872D02*
X91364285Y13920015D01*
X91364285Y13920015D02*
X91321428Y13834300D01*
X91321428Y13834300D02*
X91321428Y13662872D01*
X91321428Y13662872D02*
X91364285Y13577158D01*
X91364285Y13577158D02*
X91407142Y13534300D01*
X91407142Y13534300D02*
X91492857Y13491443D01*
X91492857Y13491443D02*
X91664285Y13491443D01*
X91664285Y13491443D02*
X91750000Y13534300D01*
X91750000Y13534300D02*
X91792857Y13577158D01*
X91792857Y13577158D02*
X91835714Y13662872D01*
X91835714Y13662872D02*
X91835714Y13834300D01*
X91835714Y13834300D02*
X91792857Y13920015D01*
X91792857Y13920015D02*
X91750000Y13962872D01*
X91750000Y13962872D02*
X91664285Y14005729D01*
X72322842Y94621429D02*
X72365700Y94578572D01*
X72365700Y94578572D02*
X72408557Y94450000D01*
X72408557Y94450000D02*
X72408557Y94364286D01*
X72408557Y94364286D02*
X72365700Y94235715D01*
X72365700Y94235715D02*
X72279985Y94150000D01*
X72279985Y94150000D02*
X72194271Y94107143D01*
X72194271Y94107143D02*
X72022842Y94064286D01*
X72022842Y94064286D02*
X71894271Y94064286D01*
X71894271Y94064286D02*
X71722842Y94107143D01*
X71722842Y94107143D02*
X71637128Y94150000D01*
X71637128Y94150000D02*
X71551414Y94235715D01*
X71551414Y94235715D02*
X71508557Y94364286D01*
X71508557Y94364286D02*
X71508557Y94450000D01*
X71508557Y94450000D02*
X71551414Y94578572D01*
X71551414Y94578572D02*
X71594271Y94621429D01*
X71594271Y94964286D02*
X71551414Y95007143D01*
X71551414Y95007143D02*
X71508557Y95092857D01*
X71508557Y95092857D02*
X71508557Y95307143D01*
X71508557Y95307143D02*
X71551414Y95392857D01*
X71551414Y95392857D02*
X71594271Y95435715D01*
X71594271Y95435715D02*
X71679985Y95478572D01*
X71679985Y95478572D02*
X71765700Y95478572D01*
X71765700Y95478572D02*
X71894271Y95435715D01*
X71894271Y95435715D02*
X72408557Y94921429D01*
X72408557Y94921429D02*
X72408557Y95478572D01*
X71508557Y96250000D02*
X71508557Y96078572D01*
X71508557Y96078572D02*
X71551414Y95992858D01*
X71551414Y95992858D02*
X71594271Y95950000D01*
X71594271Y95950000D02*
X71722842Y95864286D01*
X71722842Y95864286D02*
X71894271Y95821429D01*
X71894271Y95821429D02*
X72237128Y95821429D01*
X72237128Y95821429D02*
X72322842Y95864286D01*
X72322842Y95864286D02*
X72365700Y95907143D01*
X72365700Y95907143D02*
X72408557Y95992858D01*
X72408557Y95992858D02*
X72408557Y96164286D01*
X72408557Y96164286D02*
X72365700Y96250000D01*
X72365700Y96250000D02*
X72322842Y96292858D01*
X72322842Y96292858D02*
X72237128Y96335715D01*
X72237128Y96335715D02*
X72022842Y96335715D01*
X72022842Y96335715D02*
X71937128Y96292858D01*
X71937128Y96292858D02*
X71894271Y96250000D01*
X71894271Y96250000D02*
X71851414Y96164286D01*
X71851414Y96164286D02*
X71851414Y95992858D01*
X71851414Y95992858D02*
X71894271Y95907143D01*
X71894271Y95907143D02*
X71937128Y95864286D01*
X71937128Y95864286D02*
X72022842Y95821429D01*
X91300000Y81091443D02*
X91300000Y80448586D01*
X91300000Y80448586D02*
X91257143Y80320015D01*
X91257143Y80320015D02*
X91171429Y80234300D01*
X91171429Y80234300D02*
X91042857Y80191443D01*
X91042857Y80191443D02*
X90957143Y80191443D01*
X92114286Y80791443D02*
X92114286Y80191443D01*
X91900000Y81134300D02*
X91685714Y80491443D01*
X91685714Y80491443D02*
X92242857Y80491443D01*
X20171428Y69396443D02*
X19871428Y69825015D01*
X19657142Y69396443D02*
X19657142Y70296443D01*
X19657142Y70296443D02*
X19999999Y70296443D01*
X19999999Y70296443D02*
X20085714Y70253586D01*
X20085714Y70253586D02*
X20128571Y70210729D01*
X20128571Y70210729D02*
X20171428Y70125015D01*
X20171428Y70125015D02*
X20171428Y69996443D01*
X20171428Y69996443D02*
X20128571Y69910729D01*
X20128571Y69910729D02*
X20085714Y69867872D01*
X20085714Y69867872D02*
X19999999Y69825015D01*
X19999999Y69825015D02*
X19657142Y69825015D01*
X20942857Y69996443D02*
X20942857Y69396443D01*
X20728571Y70339300D02*
X20514285Y69696443D01*
X20514285Y69696443D02*
X21071428Y69696443D01*
X21457142Y69396443D02*
X21628571Y69396443D01*
X21628571Y69396443D02*
X21714285Y69439300D01*
X21714285Y69439300D02*
X21757142Y69482158D01*
X21757142Y69482158D02*
X21842857Y69610729D01*
X21842857Y69610729D02*
X21885714Y69782158D01*
X21885714Y69782158D02*
X21885714Y70125015D01*
X21885714Y70125015D02*
X21842857Y70210729D01*
X21842857Y70210729D02*
X21800000Y70253586D01*
X21800000Y70253586D02*
X21714285Y70296443D01*
X21714285Y70296443D02*
X21542857Y70296443D01*
X21542857Y70296443D02*
X21457142Y70253586D01*
X21457142Y70253586D02*
X21414285Y70210729D01*
X21414285Y70210729D02*
X21371428Y70125015D01*
X21371428Y70125015D02*
X21371428Y69910729D01*
X21371428Y69910729D02*
X21414285Y69825015D01*
X21414285Y69825015D02*
X21457142Y69782158D01*
X21457142Y69782158D02*
X21542857Y69739300D01*
X21542857Y69739300D02*
X21714285Y69739300D01*
X21714285Y69739300D02*
X21800000Y69782158D01*
X21800000Y69782158D02*
X21842857Y69825015D01*
X21842857Y69825015D02*
X21885714Y69910729D01*
X87771428Y106127158D02*
X87728571Y106084300D01*
X87728571Y106084300D02*
X87599999Y106041443D01*
X87599999Y106041443D02*
X87514285Y106041443D01*
X87514285Y106041443D02*
X87385714Y106084300D01*
X87385714Y106084300D02*
X87299999Y106170015D01*
X87299999Y106170015D02*
X87257142Y106255729D01*
X87257142Y106255729D02*
X87214285Y106427158D01*
X87214285Y106427158D02*
X87214285Y106555729D01*
X87214285Y106555729D02*
X87257142Y106727158D01*
X87257142Y106727158D02*
X87299999Y106812872D01*
X87299999Y106812872D02*
X87385714Y106898586D01*
X87385714Y106898586D02*
X87514285Y106941443D01*
X87514285Y106941443D02*
X87599999Y106941443D01*
X87599999Y106941443D02*
X87728571Y106898586D01*
X87728571Y106898586D02*
X87771428Y106855729D01*
X88585714Y106941443D02*
X88157142Y106941443D01*
X88157142Y106941443D02*
X88114285Y106512872D01*
X88114285Y106512872D02*
X88157142Y106555729D01*
X88157142Y106555729D02*
X88242857Y106598586D01*
X88242857Y106598586D02*
X88457142Y106598586D01*
X88457142Y106598586D02*
X88542857Y106555729D01*
X88542857Y106555729D02*
X88585714Y106512872D01*
X88585714Y106512872D02*
X88628571Y106427158D01*
X88628571Y106427158D02*
X88628571Y106212872D01*
X88628571Y106212872D02*
X88585714Y106127158D01*
X88585714Y106127158D02*
X88542857Y106084300D01*
X88542857Y106084300D02*
X88457142Y106041443D01*
X88457142Y106041443D02*
X88242857Y106041443D01*
X88242857Y106041443D02*
X88157142Y106084300D01*
X88157142Y106084300D02*
X88114285Y106127158D01*
X88971428Y106855729D02*
X89014285Y106898586D01*
X89014285Y106898586D02*
X89100000Y106941443D01*
X89100000Y106941443D02*
X89314285Y106941443D01*
X89314285Y106941443D02*
X89400000Y106898586D01*
X89400000Y106898586D02*
X89442857Y106855729D01*
X89442857Y106855729D02*
X89485714Y106770015D01*
X89485714Y106770015D02*
X89485714Y106684300D01*
X89485714Y106684300D02*
X89442857Y106555729D01*
X89442857Y106555729D02*
X88928571Y106041443D01*
X88928571Y106041443D02*
X89485714Y106041443D01*
X86742842Y21721429D02*
X86785700Y21678572D01*
X86785700Y21678572D02*
X86828557Y21550000D01*
X86828557Y21550000D02*
X86828557Y21464286D01*
X86828557Y21464286D02*
X86785700Y21335715D01*
X86785700Y21335715D02*
X86699985Y21250000D01*
X86699985Y21250000D02*
X86614271Y21207143D01*
X86614271Y21207143D02*
X86442842Y21164286D01*
X86442842Y21164286D02*
X86314271Y21164286D01*
X86314271Y21164286D02*
X86142842Y21207143D01*
X86142842Y21207143D02*
X86057128Y21250000D01*
X86057128Y21250000D02*
X85971414Y21335715D01*
X85971414Y21335715D02*
X85928557Y21464286D01*
X85928557Y21464286D02*
X85928557Y21550000D01*
X85928557Y21550000D02*
X85971414Y21678572D01*
X85971414Y21678572D02*
X86014271Y21721429D01*
X85928557Y22492857D02*
X85928557Y22321429D01*
X85928557Y22321429D02*
X85971414Y22235715D01*
X85971414Y22235715D02*
X86014271Y22192857D01*
X86014271Y22192857D02*
X86142842Y22107143D01*
X86142842Y22107143D02*
X86314271Y22064286D01*
X86314271Y22064286D02*
X86657128Y22064286D01*
X86657128Y22064286D02*
X86742842Y22107143D01*
X86742842Y22107143D02*
X86785700Y22150000D01*
X86785700Y22150000D02*
X86828557Y22235715D01*
X86828557Y22235715D02*
X86828557Y22407143D01*
X86828557Y22407143D02*
X86785700Y22492857D01*
X86785700Y22492857D02*
X86742842Y22535715D01*
X86742842Y22535715D02*
X86657128Y22578572D01*
X86657128Y22578572D02*
X86442842Y22578572D01*
X86442842Y22578572D02*
X86357128Y22535715D01*
X86357128Y22535715D02*
X86314271Y22492857D01*
X86314271Y22492857D02*
X86271414Y22407143D01*
X86271414Y22407143D02*
X86271414Y22235715D01*
X86271414Y22235715D02*
X86314271Y22150000D01*
X86314271Y22150000D02*
X86357128Y22107143D01*
X86357128Y22107143D02*
X86442842Y22064286D01*
X86828557Y23435715D02*
X86828557Y22921429D01*
X86828557Y23178572D02*
X85928557Y23178572D01*
X85928557Y23178572D02*
X86057128Y23092858D01*
X86057128Y23092858D02*
X86142842Y23007143D01*
X86142842Y23007143D02*
X86185700Y22921429D01*
X25022842Y48141429D02*
X25065700Y48098572D01*
X25065700Y48098572D02*
X25108557Y47970000D01*
X25108557Y47970000D02*
X25108557Y47884286D01*
X25108557Y47884286D02*
X25065700Y47755715D01*
X25065700Y47755715D02*
X24979985Y47670000D01*
X24979985Y47670000D02*
X24894271Y47627143D01*
X24894271Y47627143D02*
X24722842Y47584286D01*
X24722842Y47584286D02*
X24594271Y47584286D01*
X24594271Y47584286D02*
X24422842Y47627143D01*
X24422842Y47627143D02*
X24337128Y47670000D01*
X24337128Y47670000D02*
X24251414Y47755715D01*
X24251414Y47755715D02*
X24208557Y47884286D01*
X24208557Y47884286D02*
X24208557Y47970000D01*
X24208557Y47970000D02*
X24251414Y48098572D01*
X24251414Y48098572D02*
X24294271Y48141429D01*
X24508557Y48912857D02*
X25108557Y48912857D01*
X24165700Y48698572D02*
X24808557Y48484286D01*
X24808557Y48484286D02*
X24808557Y49041429D01*
X24508557Y49770000D02*
X25108557Y49770000D01*
X24165700Y49555715D02*
X24808557Y49341429D01*
X24808557Y49341429D02*
X24808557Y49898572D01*
X59870000Y81577158D02*
X59827143Y81534300D01*
X59827143Y81534300D02*
X59698571Y81491443D01*
X59698571Y81491443D02*
X59612857Y81491443D01*
X59612857Y81491443D02*
X59484286Y81534300D01*
X59484286Y81534300D02*
X59398571Y81620015D01*
X59398571Y81620015D02*
X59355714Y81705729D01*
X59355714Y81705729D02*
X59312857Y81877158D01*
X59312857Y81877158D02*
X59312857Y82005729D01*
X59312857Y82005729D02*
X59355714Y82177158D01*
X59355714Y82177158D02*
X59398571Y82262872D01*
X59398571Y82262872D02*
X59484286Y82348586D01*
X59484286Y82348586D02*
X59612857Y82391443D01*
X59612857Y82391443D02*
X59698571Y82391443D01*
X59698571Y82391443D02*
X59827143Y82348586D01*
X59827143Y82348586D02*
X59870000Y82305729D01*
X60170000Y82391443D02*
X60727143Y82391443D01*
X60727143Y82391443D02*
X60427143Y82048586D01*
X60427143Y82048586D02*
X60555714Y82048586D01*
X60555714Y82048586D02*
X60641429Y82005729D01*
X60641429Y82005729D02*
X60684286Y81962872D01*
X60684286Y81962872D02*
X60727143Y81877158D01*
X60727143Y81877158D02*
X60727143Y81662872D01*
X60727143Y81662872D02*
X60684286Y81577158D01*
X60684286Y81577158D02*
X60641429Y81534300D01*
X60641429Y81534300D02*
X60555714Y81491443D01*
X60555714Y81491443D02*
X60298571Y81491443D01*
X60298571Y81491443D02*
X60212857Y81534300D01*
X60212857Y81534300D02*
X60170000Y81577158D01*
X39100000Y83227158D02*
X39057143Y83184300D01*
X39057143Y83184300D02*
X38928571Y83141443D01*
X38928571Y83141443D02*
X38842857Y83141443D01*
X38842857Y83141443D02*
X38714286Y83184300D01*
X38714286Y83184300D02*
X38628571Y83270015D01*
X38628571Y83270015D02*
X38585714Y83355729D01*
X38585714Y83355729D02*
X38542857Y83527158D01*
X38542857Y83527158D02*
X38542857Y83655729D01*
X38542857Y83655729D02*
X38585714Y83827158D01*
X38585714Y83827158D02*
X38628571Y83912872D01*
X38628571Y83912872D02*
X38714286Y83998586D01*
X38714286Y83998586D02*
X38842857Y84041443D01*
X38842857Y84041443D02*
X38928571Y84041443D01*
X38928571Y84041443D02*
X39057143Y83998586D01*
X39057143Y83998586D02*
X39100000Y83955729D01*
X39957143Y83141443D02*
X39442857Y83141443D01*
X39700000Y83141443D02*
X39700000Y84041443D01*
X39700000Y84041443D02*
X39614286Y83912872D01*
X39614286Y83912872D02*
X39528571Y83827158D01*
X39528571Y83827158D02*
X39442857Y83784300D01*
X86250000Y70497158D02*
X86207143Y70454300D01*
X86207143Y70454300D02*
X86078571Y70411443D01*
X86078571Y70411443D02*
X85992857Y70411443D01*
X85992857Y70411443D02*
X85864286Y70454300D01*
X85864286Y70454300D02*
X85778571Y70540015D01*
X85778571Y70540015D02*
X85735714Y70625729D01*
X85735714Y70625729D02*
X85692857Y70797158D01*
X85692857Y70797158D02*
X85692857Y70925729D01*
X85692857Y70925729D02*
X85735714Y71097158D01*
X85735714Y71097158D02*
X85778571Y71182872D01*
X85778571Y71182872D02*
X85864286Y71268586D01*
X85864286Y71268586D02*
X85992857Y71311443D01*
X85992857Y71311443D02*
X86078571Y71311443D01*
X86078571Y71311443D02*
X86207143Y71268586D01*
X86207143Y71268586D02*
X86250000Y71225729D01*
X87021429Y71311443D02*
X86850000Y71311443D01*
X86850000Y71311443D02*
X86764286Y71268586D01*
X86764286Y71268586D02*
X86721429Y71225729D01*
X86721429Y71225729D02*
X86635714Y71097158D01*
X86635714Y71097158D02*
X86592857Y70925729D01*
X86592857Y70925729D02*
X86592857Y70582872D01*
X86592857Y70582872D02*
X86635714Y70497158D01*
X86635714Y70497158D02*
X86678571Y70454300D01*
X86678571Y70454300D02*
X86764286Y70411443D01*
X86764286Y70411443D02*
X86935714Y70411443D01*
X86935714Y70411443D02*
X87021429Y70454300D01*
X87021429Y70454300D02*
X87064286Y70497158D01*
X87064286Y70497158D02*
X87107143Y70582872D01*
X87107143Y70582872D02*
X87107143Y70797158D01*
X87107143Y70797158D02*
X87064286Y70882872D01*
X87064286Y70882872D02*
X87021429Y70925729D01*
X87021429Y70925729D02*
X86935714Y70968586D01*
X86935714Y70968586D02*
X86764286Y70968586D01*
X86764286Y70968586D02*
X86678571Y70925729D01*
X86678571Y70925729D02*
X86635714Y70882872D01*
X86635714Y70882872D02*
X86592857Y70797158D01*
X29072842Y57826429D02*
X29115700Y57783572D01*
X29115700Y57783572D02*
X29158557Y57655000D01*
X29158557Y57655000D02*
X29158557Y57569286D01*
X29158557Y57569286D02*
X29115700Y57440715D01*
X29115700Y57440715D02*
X29029985Y57355000D01*
X29029985Y57355000D02*
X28944271Y57312143D01*
X28944271Y57312143D02*
X28772842Y57269286D01*
X28772842Y57269286D02*
X28644271Y57269286D01*
X28644271Y57269286D02*
X28472842Y57312143D01*
X28472842Y57312143D02*
X28387128Y57355000D01*
X28387128Y57355000D02*
X28301414Y57440715D01*
X28301414Y57440715D02*
X28258557Y57569286D01*
X28258557Y57569286D02*
X28258557Y57655000D01*
X28258557Y57655000D02*
X28301414Y57783572D01*
X28301414Y57783572D02*
X28344271Y57826429D01*
X28558557Y58597857D02*
X29158557Y58597857D01*
X28215700Y58383572D02*
X28858557Y58169286D01*
X28858557Y58169286D02*
X28858557Y58726429D01*
X28258557Y58983572D02*
X28258557Y59583572D01*
X28258557Y59583572D02*
X29158557Y59197858D01*
X30558557Y64019286D02*
X31287128Y64019286D01*
X31287128Y64019286D02*
X31372842Y64062143D01*
X31372842Y64062143D02*
X31415700Y64105000D01*
X31415700Y64105000D02*
X31458557Y64190715D01*
X31458557Y64190715D02*
X31458557Y64362143D01*
X31458557Y64362143D02*
X31415700Y64447858D01*
X31415700Y64447858D02*
X31372842Y64490715D01*
X31372842Y64490715D02*
X31287128Y64533572D01*
X31287128Y64533572D02*
X30558557Y64533572D01*
X30558557Y64876429D02*
X30558557Y65433572D01*
X30558557Y65433572D02*
X30901414Y65133572D01*
X30901414Y65133572D02*
X30901414Y65262143D01*
X30901414Y65262143D02*
X30944271Y65347857D01*
X30944271Y65347857D02*
X30987128Y65390715D01*
X30987128Y65390715D02*
X31072842Y65433572D01*
X31072842Y65433572D02*
X31287128Y65433572D01*
X31287128Y65433572D02*
X31372842Y65390715D01*
X31372842Y65390715D02*
X31415700Y65347857D01*
X31415700Y65347857D02*
X31458557Y65262143D01*
X31458557Y65262143D02*
X31458557Y65005000D01*
X31458557Y65005000D02*
X31415700Y64919286D01*
X31415700Y64919286D02*
X31372842Y64876429D01*
X33591428Y72227158D02*
X33548571Y72184300D01*
X33548571Y72184300D02*
X33419999Y72141443D01*
X33419999Y72141443D02*
X33334285Y72141443D01*
X33334285Y72141443D02*
X33205714Y72184300D01*
X33205714Y72184300D02*
X33119999Y72270015D01*
X33119999Y72270015D02*
X33077142Y72355729D01*
X33077142Y72355729D02*
X33034285Y72527158D01*
X33034285Y72527158D02*
X33034285Y72655729D01*
X33034285Y72655729D02*
X33077142Y72827158D01*
X33077142Y72827158D02*
X33119999Y72912872D01*
X33119999Y72912872D02*
X33205714Y72998586D01*
X33205714Y72998586D02*
X33334285Y73041443D01*
X33334285Y73041443D02*
X33419999Y73041443D01*
X33419999Y73041443D02*
X33548571Y72998586D01*
X33548571Y72998586D02*
X33591428Y72955729D01*
X34362857Y72741443D02*
X34362857Y72141443D01*
X34148571Y73084300D02*
X33934285Y72441443D01*
X33934285Y72441443D02*
X34491428Y72441443D01*
X35005714Y73041443D02*
X35091428Y73041443D01*
X35091428Y73041443D02*
X35177142Y72998586D01*
X35177142Y72998586D02*
X35220000Y72955729D01*
X35220000Y72955729D02*
X35262857Y72870015D01*
X35262857Y72870015D02*
X35305714Y72698586D01*
X35305714Y72698586D02*
X35305714Y72484300D01*
X35305714Y72484300D02*
X35262857Y72312872D01*
X35262857Y72312872D02*
X35220000Y72227158D01*
X35220000Y72227158D02*
X35177142Y72184300D01*
X35177142Y72184300D02*
X35091428Y72141443D01*
X35091428Y72141443D02*
X35005714Y72141443D01*
X35005714Y72141443D02*
X34920000Y72184300D01*
X34920000Y72184300D02*
X34877142Y72227158D01*
X34877142Y72227158D02*
X34834285Y72312872D01*
X34834285Y72312872D02*
X34791428Y72484300D01*
X34791428Y72484300D02*
X34791428Y72698586D01*
X34791428Y72698586D02*
X34834285Y72870015D01*
X34834285Y72870015D02*
X34877142Y72955729D01*
X34877142Y72955729D02*
X34920000Y72998586D01*
X34920000Y72998586D02*
X35005714Y73041443D01*
X66221557Y93633429D02*
X65792985Y93333429D01*
X66221557Y93119143D02*
X65321557Y93119143D01*
X65321557Y93119143D02*
X65321557Y93462000D01*
X65321557Y93462000D02*
X65364414Y93547715D01*
X65364414Y93547715D02*
X65407271Y93590572D01*
X65407271Y93590572D02*
X65492985Y93633429D01*
X65492985Y93633429D02*
X65621557Y93633429D01*
X65621557Y93633429D02*
X65707271Y93590572D01*
X65707271Y93590572D02*
X65750128Y93547715D01*
X65750128Y93547715D02*
X65792985Y93462000D01*
X65792985Y93462000D02*
X65792985Y93119143D01*
X65321557Y93933429D02*
X65321557Y94490572D01*
X65321557Y94490572D02*
X65664414Y94190572D01*
X65664414Y94190572D02*
X65664414Y94319143D01*
X65664414Y94319143D02*
X65707271Y94404857D01*
X65707271Y94404857D02*
X65750128Y94447715D01*
X65750128Y94447715D02*
X65835842Y94490572D01*
X65835842Y94490572D02*
X66050128Y94490572D01*
X66050128Y94490572D02*
X66135842Y94447715D01*
X66135842Y94447715D02*
X66178700Y94404857D01*
X66178700Y94404857D02*
X66221557Y94319143D01*
X66221557Y94319143D02*
X66221557Y94062000D01*
X66221557Y94062000D02*
X66178700Y93976286D01*
X66178700Y93976286D02*
X66135842Y93933429D01*
X65321557Y95304858D02*
X65321557Y94876286D01*
X65321557Y94876286D02*
X65750128Y94833429D01*
X65750128Y94833429D02*
X65707271Y94876286D01*
X65707271Y94876286D02*
X65664414Y94962000D01*
X65664414Y94962000D02*
X65664414Y95176286D01*
X65664414Y95176286D02*
X65707271Y95262000D01*
X65707271Y95262000D02*
X65750128Y95304858D01*
X65750128Y95304858D02*
X65835842Y95347715D01*
X65835842Y95347715D02*
X66050128Y95347715D01*
X66050128Y95347715D02*
X66135842Y95304858D01*
X66135842Y95304858D02*
X66178700Y95262000D01*
X66178700Y95262000D02*
X66221557Y95176286D01*
X66221557Y95176286D02*
X66221557Y94962000D01*
X66221557Y94962000D02*
X66178700Y94876286D01*
X66178700Y94876286D02*
X66135842Y94833429D01*
X84052842Y22150001D02*
X84095700Y22107144D01*
X84095700Y22107144D02*
X84138557Y21978572D01*
X84138557Y21978572D02*
X84138557Y21892858D01*
X84138557Y21892858D02*
X84095700Y21764287D01*
X84095700Y21764287D02*
X84009985Y21678572D01*
X84009985Y21678572D02*
X83924271Y21635715D01*
X83924271Y21635715D02*
X83752842Y21592858D01*
X83752842Y21592858D02*
X83624271Y21592858D01*
X83624271Y21592858D02*
X83452842Y21635715D01*
X83452842Y21635715D02*
X83367128Y21678572D01*
X83367128Y21678572D02*
X83281414Y21764287D01*
X83281414Y21764287D02*
X83238557Y21892858D01*
X83238557Y21892858D02*
X83238557Y21978572D01*
X83238557Y21978572D02*
X83281414Y22107144D01*
X83281414Y22107144D02*
X83324271Y22150001D01*
X83624271Y22664287D02*
X83581414Y22578572D01*
X83581414Y22578572D02*
X83538557Y22535715D01*
X83538557Y22535715D02*
X83452842Y22492858D01*
X83452842Y22492858D02*
X83409985Y22492858D01*
X83409985Y22492858D02*
X83324271Y22535715D01*
X83324271Y22535715D02*
X83281414Y22578572D01*
X83281414Y22578572D02*
X83238557Y22664287D01*
X83238557Y22664287D02*
X83238557Y22835715D01*
X83238557Y22835715D02*
X83281414Y22921429D01*
X83281414Y22921429D02*
X83324271Y22964287D01*
X83324271Y22964287D02*
X83409985Y23007144D01*
X83409985Y23007144D02*
X83452842Y23007144D01*
X83452842Y23007144D02*
X83538557Y22964287D01*
X83538557Y22964287D02*
X83581414Y22921429D01*
X83581414Y22921429D02*
X83624271Y22835715D01*
X83624271Y22835715D02*
X83624271Y22664287D01*
X83624271Y22664287D02*
X83667128Y22578572D01*
X83667128Y22578572D02*
X83709985Y22535715D01*
X83709985Y22535715D02*
X83795700Y22492858D01*
X83795700Y22492858D02*
X83967128Y22492858D01*
X83967128Y22492858D02*
X84052842Y22535715D01*
X84052842Y22535715D02*
X84095700Y22578572D01*
X84095700Y22578572D02*
X84138557Y22664287D01*
X84138557Y22664287D02*
X84138557Y22835715D01*
X84138557Y22835715D02*
X84095700Y22921429D01*
X84095700Y22921429D02*
X84052842Y22964287D01*
X84052842Y22964287D02*
X83967128Y23007144D01*
X83967128Y23007144D02*
X83795700Y23007144D01*
X83795700Y23007144D02*
X83709985Y22964287D01*
X83709985Y22964287D02*
X83667128Y22921429D01*
X83667128Y22921429D02*
X83624271Y22835715D01*
X4924285Y99650729D02*
X4838571Y99693586D01*
X4838571Y99693586D02*
X4752857Y99779300D01*
X4752857Y99779300D02*
X4624285Y99907872D01*
X4624285Y99907872D02*
X4538571Y99950729D01*
X4538571Y99950729D02*
X4452857Y99950729D01*
X4495714Y99736443D02*
X4410000Y99779300D01*
X4410000Y99779300D02*
X4324285Y99865015D01*
X4324285Y99865015D02*
X4281428Y100036443D01*
X4281428Y100036443D02*
X4281428Y100336443D01*
X4281428Y100336443D02*
X4324285Y100507872D01*
X4324285Y100507872D02*
X4410000Y100593586D01*
X4410000Y100593586D02*
X4495714Y100636443D01*
X4495714Y100636443D02*
X4667142Y100636443D01*
X4667142Y100636443D02*
X4752857Y100593586D01*
X4752857Y100593586D02*
X4838571Y100507872D01*
X4838571Y100507872D02*
X4881428Y100336443D01*
X4881428Y100336443D02*
X4881428Y100036443D01*
X4881428Y100036443D02*
X4838571Y99865015D01*
X4838571Y99865015D02*
X4752857Y99779300D01*
X4752857Y99779300D02*
X4667142Y99736443D01*
X4667142Y99736443D02*
X4495714Y99736443D01*
X5738571Y99736443D02*
X5224285Y99736443D01*
X5481428Y99736443D02*
X5481428Y100636443D01*
X5481428Y100636443D02*
X5395714Y100507872D01*
X5395714Y100507872D02*
X5309999Y100422158D01*
X5309999Y100422158D02*
X5224285Y100379300D01*
X58671428Y127397158D02*
X58628571Y127354300D01*
X58628571Y127354300D02*
X58499999Y127311443D01*
X58499999Y127311443D02*
X58414285Y127311443D01*
X58414285Y127311443D02*
X58285714Y127354300D01*
X58285714Y127354300D02*
X58199999Y127440015D01*
X58199999Y127440015D02*
X58157142Y127525729D01*
X58157142Y127525729D02*
X58114285Y127697158D01*
X58114285Y127697158D02*
X58114285Y127825729D01*
X58114285Y127825729D02*
X58157142Y127997158D01*
X58157142Y127997158D02*
X58199999Y128082872D01*
X58199999Y128082872D02*
X58285714Y128168586D01*
X58285714Y128168586D02*
X58414285Y128211443D01*
X58414285Y128211443D02*
X58499999Y128211443D01*
X58499999Y128211443D02*
X58628571Y128168586D01*
X58628571Y128168586D02*
X58671428Y128125729D01*
X59442857Y127911443D02*
X59442857Y127311443D01*
X59228571Y128254300D02*
X59014285Y127611443D01*
X59014285Y127611443D02*
X59571428Y127611443D01*
X60042857Y127825729D02*
X59957142Y127868586D01*
X59957142Y127868586D02*
X59914285Y127911443D01*
X59914285Y127911443D02*
X59871428Y127997158D01*
X59871428Y127997158D02*
X59871428Y128040015D01*
X59871428Y128040015D02*
X59914285Y128125729D01*
X59914285Y128125729D02*
X59957142Y128168586D01*
X59957142Y128168586D02*
X60042857Y128211443D01*
X60042857Y128211443D02*
X60214285Y128211443D01*
X60214285Y128211443D02*
X60300000Y128168586D01*
X60300000Y128168586D02*
X60342857Y128125729D01*
X60342857Y128125729D02*
X60385714Y128040015D01*
X60385714Y128040015D02*
X60385714Y127997158D01*
X60385714Y127997158D02*
X60342857Y127911443D01*
X60342857Y127911443D02*
X60300000Y127868586D01*
X60300000Y127868586D02*
X60214285Y127825729D01*
X60214285Y127825729D02*
X60042857Y127825729D01*
X60042857Y127825729D02*
X59957142Y127782872D01*
X59957142Y127782872D02*
X59914285Y127740015D01*
X59914285Y127740015D02*
X59871428Y127654300D01*
X59871428Y127654300D02*
X59871428Y127482872D01*
X59871428Y127482872D02*
X59914285Y127397158D01*
X59914285Y127397158D02*
X59957142Y127354300D01*
X59957142Y127354300D02*
X60042857Y127311443D01*
X60042857Y127311443D02*
X60214285Y127311443D01*
X60214285Y127311443D02*
X60300000Y127354300D01*
X60300000Y127354300D02*
X60342857Y127397158D01*
X60342857Y127397158D02*
X60385714Y127482872D01*
X60385714Y127482872D02*
X60385714Y127654300D01*
X60385714Y127654300D02*
X60342857Y127740015D01*
X60342857Y127740015D02*
X60300000Y127782872D01*
X60300000Y127782872D02*
X60214285Y127825729D01*
X14496765Y61405001D02*
X14539623Y61362144D01*
X14539623Y61362144D02*
X14582480Y61233572D01*
X14582480Y61233572D02*
X14582480Y61147858D01*
X14582480Y61147858D02*
X14539623Y61019287D01*
X14539623Y61019287D02*
X14453908Y60933572D01*
X14453908Y60933572D02*
X14368194Y60890715D01*
X14368194Y60890715D02*
X14196765Y60847858D01*
X14196765Y60847858D02*
X14068194Y60847858D01*
X14068194Y60847858D02*
X13896765Y60890715D01*
X13896765Y60890715D02*
X13811051Y60933572D01*
X13811051Y60933572D02*
X13725337Y61019287D01*
X13725337Y61019287D02*
X13682480Y61147858D01*
X13682480Y61147858D02*
X13682480Y61233572D01*
X13682480Y61233572D02*
X13725337Y61362144D01*
X13725337Y61362144D02*
X13768194Y61405001D01*
X13682480Y61705001D02*
X13682480Y62305001D01*
X13682480Y62305001D02*
X14582480Y61919287D01*
X37021428Y104377158D02*
X36978571Y104334300D01*
X36978571Y104334300D02*
X36849999Y104291443D01*
X36849999Y104291443D02*
X36764285Y104291443D01*
X36764285Y104291443D02*
X36635714Y104334300D01*
X36635714Y104334300D02*
X36549999Y104420015D01*
X36549999Y104420015D02*
X36507142Y104505729D01*
X36507142Y104505729D02*
X36464285Y104677158D01*
X36464285Y104677158D02*
X36464285Y104805729D01*
X36464285Y104805729D02*
X36507142Y104977158D01*
X36507142Y104977158D02*
X36549999Y105062872D01*
X36549999Y105062872D02*
X36635714Y105148586D01*
X36635714Y105148586D02*
X36764285Y105191443D01*
X36764285Y105191443D02*
X36849999Y105191443D01*
X36849999Y105191443D02*
X36978571Y105148586D01*
X36978571Y105148586D02*
X37021428Y105105729D01*
X37321428Y105191443D02*
X37878571Y105191443D01*
X37878571Y105191443D02*
X37578571Y104848586D01*
X37578571Y104848586D02*
X37707142Y104848586D01*
X37707142Y104848586D02*
X37792857Y104805729D01*
X37792857Y104805729D02*
X37835714Y104762872D01*
X37835714Y104762872D02*
X37878571Y104677158D01*
X37878571Y104677158D02*
X37878571Y104462872D01*
X37878571Y104462872D02*
X37835714Y104377158D01*
X37835714Y104377158D02*
X37792857Y104334300D01*
X37792857Y104334300D02*
X37707142Y104291443D01*
X37707142Y104291443D02*
X37449999Y104291443D01*
X37449999Y104291443D02*
X37364285Y104334300D01*
X37364285Y104334300D02*
X37321428Y104377158D01*
X38178571Y105191443D02*
X38778571Y105191443D01*
X38778571Y105191443D02*
X38392857Y104291443D01*
X72658557Y76851429D02*
X72229985Y76551429D01*
X72658557Y76337143D02*
X71758557Y76337143D01*
X71758557Y76337143D02*
X71758557Y76680000D01*
X71758557Y76680000D02*
X71801414Y76765715D01*
X71801414Y76765715D02*
X71844271Y76808572D01*
X71844271Y76808572D02*
X71929985Y76851429D01*
X71929985Y76851429D02*
X72058557Y76851429D01*
X72058557Y76851429D02*
X72144271Y76808572D01*
X72144271Y76808572D02*
X72187128Y76765715D01*
X72187128Y76765715D02*
X72229985Y76680000D01*
X72229985Y76680000D02*
X72229985Y76337143D01*
X71758557Y77151429D02*
X71758557Y77708572D01*
X71758557Y77708572D02*
X72101414Y77408572D01*
X72101414Y77408572D02*
X72101414Y77537143D01*
X72101414Y77537143D02*
X72144271Y77622857D01*
X72144271Y77622857D02*
X72187128Y77665715D01*
X72187128Y77665715D02*
X72272842Y77708572D01*
X72272842Y77708572D02*
X72487128Y77708572D01*
X72487128Y77708572D02*
X72572842Y77665715D01*
X72572842Y77665715D02*
X72615700Y77622857D01*
X72615700Y77622857D02*
X72658557Y77537143D01*
X72658557Y77537143D02*
X72658557Y77280000D01*
X72658557Y77280000D02*
X72615700Y77194286D01*
X72615700Y77194286D02*
X72572842Y77151429D01*
X72658557Y78137143D02*
X72658557Y78308572D01*
X72658557Y78308572D02*
X72615700Y78394286D01*
X72615700Y78394286D02*
X72572842Y78437143D01*
X72572842Y78437143D02*
X72444271Y78522858D01*
X72444271Y78522858D02*
X72272842Y78565715D01*
X72272842Y78565715D02*
X71929985Y78565715D01*
X71929985Y78565715D02*
X71844271Y78522858D01*
X71844271Y78522858D02*
X71801414Y78480000D01*
X71801414Y78480000D02*
X71758557Y78394286D01*
X71758557Y78394286D02*
X71758557Y78222858D01*
X71758557Y78222858D02*
X71801414Y78137143D01*
X71801414Y78137143D02*
X71844271Y78094286D01*
X71844271Y78094286D02*
X71929985Y78051429D01*
X71929985Y78051429D02*
X72144271Y78051429D01*
X72144271Y78051429D02*
X72229985Y78094286D01*
X72229985Y78094286D02*
X72272842Y78137143D01*
X72272842Y78137143D02*
X72315700Y78222858D01*
X72315700Y78222858D02*
X72315700Y78394286D01*
X72315700Y78394286D02*
X72272842Y78480000D01*
X72272842Y78480000D02*
X72229985Y78522858D01*
X72229985Y78522858D02*
X72144271Y78565715D01*
X33071428Y104291443D02*
X32771428Y104720015D01*
X32557142Y104291443D02*
X32557142Y105191443D01*
X32557142Y105191443D02*
X32899999Y105191443D01*
X32899999Y105191443D02*
X32985714Y105148586D01*
X32985714Y105148586D02*
X33028571Y105105729D01*
X33028571Y105105729D02*
X33071428Y105020015D01*
X33071428Y105020015D02*
X33071428Y104891443D01*
X33071428Y104891443D02*
X33028571Y104805729D01*
X33028571Y104805729D02*
X32985714Y104762872D01*
X32985714Y104762872D02*
X32899999Y104720015D01*
X32899999Y104720015D02*
X32557142Y104720015D01*
X33842857Y104891443D02*
X33842857Y104291443D01*
X33628571Y105234300D02*
X33414285Y104591443D01*
X33414285Y104591443D02*
X33971428Y104591443D01*
X34228571Y105191443D02*
X34785714Y105191443D01*
X34785714Y105191443D02*
X34485714Y104848586D01*
X34485714Y104848586D02*
X34614285Y104848586D01*
X34614285Y104848586D02*
X34700000Y104805729D01*
X34700000Y104805729D02*
X34742857Y104762872D01*
X34742857Y104762872D02*
X34785714Y104677158D01*
X34785714Y104677158D02*
X34785714Y104462872D01*
X34785714Y104462872D02*
X34742857Y104377158D01*
X34742857Y104377158D02*
X34700000Y104334300D01*
X34700000Y104334300D02*
X34614285Y104291443D01*
X34614285Y104291443D02*
X34357142Y104291443D01*
X34357142Y104291443D02*
X34271428Y104334300D01*
X34271428Y104334300D02*
X34228571Y104377158D01*
X84781057Y78062929D02*
X84352485Y77762929D01*
X84781057Y77548643D02*
X83881057Y77548643D01*
X83881057Y77548643D02*
X83881057Y77891500D01*
X83881057Y77891500D02*
X83923914Y77977215D01*
X83923914Y77977215D02*
X83966771Y78020072D01*
X83966771Y78020072D02*
X84052485Y78062929D01*
X84052485Y78062929D02*
X84181057Y78062929D01*
X84181057Y78062929D02*
X84266771Y78020072D01*
X84266771Y78020072D02*
X84309628Y77977215D01*
X84309628Y77977215D02*
X84352485Y77891500D01*
X84352485Y77891500D02*
X84352485Y77548643D01*
X83881057Y78362929D02*
X83881057Y78920072D01*
X83881057Y78920072D02*
X84223914Y78620072D01*
X84223914Y78620072D02*
X84223914Y78748643D01*
X84223914Y78748643D02*
X84266771Y78834357D01*
X84266771Y78834357D02*
X84309628Y78877215D01*
X84309628Y78877215D02*
X84395342Y78920072D01*
X84395342Y78920072D02*
X84609628Y78920072D01*
X84609628Y78920072D02*
X84695342Y78877215D01*
X84695342Y78877215D02*
X84738200Y78834357D01*
X84738200Y78834357D02*
X84781057Y78748643D01*
X84781057Y78748643D02*
X84781057Y78491500D01*
X84781057Y78491500D02*
X84738200Y78405786D01*
X84738200Y78405786D02*
X84695342Y78362929D01*
X84181057Y79691500D02*
X84781057Y79691500D01*
X83838200Y79477215D02*
X84481057Y79262929D01*
X84481057Y79262929D02*
X84481057Y79820072D01*
X15721428Y10577158D02*
X15678571Y10534300D01*
X15678571Y10534300D02*
X15549999Y10491443D01*
X15549999Y10491443D02*
X15464285Y10491443D01*
X15464285Y10491443D02*
X15335714Y10534300D01*
X15335714Y10534300D02*
X15249999Y10620015D01*
X15249999Y10620015D02*
X15207142Y10705729D01*
X15207142Y10705729D02*
X15164285Y10877158D01*
X15164285Y10877158D02*
X15164285Y11005729D01*
X15164285Y11005729D02*
X15207142Y11177158D01*
X15207142Y11177158D02*
X15249999Y11262872D01*
X15249999Y11262872D02*
X15335714Y11348586D01*
X15335714Y11348586D02*
X15464285Y11391443D01*
X15464285Y11391443D02*
X15549999Y11391443D01*
X15549999Y11391443D02*
X15678571Y11348586D01*
X15678571Y11348586D02*
X15721428Y11305729D01*
X16535714Y11391443D02*
X16107142Y11391443D01*
X16107142Y11391443D02*
X16064285Y10962872D01*
X16064285Y10962872D02*
X16107142Y11005729D01*
X16107142Y11005729D02*
X16192857Y11048586D01*
X16192857Y11048586D02*
X16407142Y11048586D01*
X16407142Y11048586D02*
X16492857Y11005729D01*
X16492857Y11005729D02*
X16535714Y10962872D01*
X16535714Y10962872D02*
X16578571Y10877158D01*
X16578571Y10877158D02*
X16578571Y10662872D01*
X16578571Y10662872D02*
X16535714Y10577158D01*
X16535714Y10577158D02*
X16492857Y10534300D01*
X16492857Y10534300D02*
X16407142Y10491443D01*
X16407142Y10491443D02*
X16192857Y10491443D01*
X16192857Y10491443D02*
X16107142Y10534300D01*
X16107142Y10534300D02*
X16064285Y10577158D01*
X17392857Y11391443D02*
X16964285Y11391443D01*
X16964285Y11391443D02*
X16921428Y10962872D01*
X16921428Y10962872D02*
X16964285Y11005729D01*
X16964285Y11005729D02*
X17050000Y11048586D01*
X17050000Y11048586D02*
X17264285Y11048586D01*
X17264285Y11048586D02*
X17350000Y11005729D01*
X17350000Y11005729D02*
X17392857Y10962872D01*
X17392857Y10962872D02*
X17435714Y10877158D01*
X17435714Y10877158D02*
X17435714Y10662872D01*
X17435714Y10662872D02*
X17392857Y10577158D01*
X17392857Y10577158D02*
X17350000Y10534300D01*
X17350000Y10534300D02*
X17264285Y10491443D01*
X17264285Y10491443D02*
X17050000Y10491443D01*
X17050000Y10491443D02*
X16964285Y10534300D01*
X16964285Y10534300D02*
X16921428Y10577158D01*
X56323428Y119667158D02*
X56280571Y119624300D01*
X56280571Y119624300D02*
X56151999Y119581443D01*
X56151999Y119581443D02*
X56066285Y119581443D01*
X56066285Y119581443D02*
X55937714Y119624300D01*
X55937714Y119624300D02*
X55851999Y119710015D01*
X55851999Y119710015D02*
X55809142Y119795729D01*
X55809142Y119795729D02*
X55766285Y119967158D01*
X55766285Y119967158D02*
X55766285Y120095729D01*
X55766285Y120095729D02*
X55809142Y120267158D01*
X55809142Y120267158D02*
X55851999Y120352872D01*
X55851999Y120352872D02*
X55937714Y120438586D01*
X55937714Y120438586D02*
X56066285Y120481443D01*
X56066285Y120481443D02*
X56151999Y120481443D01*
X56151999Y120481443D02*
X56280571Y120438586D01*
X56280571Y120438586D02*
X56323428Y120395729D01*
X57137714Y120481443D02*
X56709142Y120481443D01*
X56709142Y120481443D02*
X56666285Y120052872D01*
X56666285Y120052872D02*
X56709142Y120095729D01*
X56709142Y120095729D02*
X56794857Y120138586D01*
X56794857Y120138586D02*
X57009142Y120138586D01*
X57009142Y120138586D02*
X57094857Y120095729D01*
X57094857Y120095729D02*
X57137714Y120052872D01*
X57137714Y120052872D02*
X57180571Y119967158D01*
X57180571Y119967158D02*
X57180571Y119752872D01*
X57180571Y119752872D02*
X57137714Y119667158D01*
X57137714Y119667158D02*
X57094857Y119624300D01*
X57094857Y119624300D02*
X57009142Y119581443D01*
X57009142Y119581443D02*
X56794857Y119581443D01*
X56794857Y119581443D02*
X56709142Y119624300D01*
X56709142Y119624300D02*
X56666285Y119667158D01*
X57737714Y120481443D02*
X57823428Y120481443D01*
X57823428Y120481443D02*
X57909142Y120438586D01*
X57909142Y120438586D02*
X57952000Y120395729D01*
X57952000Y120395729D02*
X57994857Y120310015D01*
X57994857Y120310015D02*
X58037714Y120138586D01*
X58037714Y120138586D02*
X58037714Y119924300D01*
X58037714Y119924300D02*
X57994857Y119752872D01*
X57994857Y119752872D02*
X57952000Y119667158D01*
X57952000Y119667158D02*
X57909142Y119624300D01*
X57909142Y119624300D02*
X57823428Y119581443D01*
X57823428Y119581443D02*
X57737714Y119581443D01*
X57737714Y119581443D02*
X57652000Y119624300D01*
X57652000Y119624300D02*
X57609142Y119667158D01*
X57609142Y119667158D02*
X57566285Y119752872D01*
X57566285Y119752872D02*
X57523428Y119924300D01*
X57523428Y119924300D02*
X57523428Y120138586D01*
X57523428Y120138586D02*
X57566285Y120310015D01*
X57566285Y120310015D02*
X57609142Y120395729D01*
X57609142Y120395729D02*
X57652000Y120438586D01*
X57652000Y120438586D02*
X57737714Y120481443D01*
X96572842Y76641429D02*
X96615700Y76598572D01*
X96615700Y76598572D02*
X96658557Y76470000D01*
X96658557Y76470000D02*
X96658557Y76384286D01*
X96658557Y76384286D02*
X96615700Y76255715D01*
X96615700Y76255715D02*
X96529985Y76170000D01*
X96529985Y76170000D02*
X96444271Y76127143D01*
X96444271Y76127143D02*
X96272842Y76084286D01*
X96272842Y76084286D02*
X96144271Y76084286D01*
X96144271Y76084286D02*
X95972842Y76127143D01*
X95972842Y76127143D02*
X95887128Y76170000D01*
X95887128Y76170000D02*
X95801414Y76255715D01*
X95801414Y76255715D02*
X95758557Y76384286D01*
X95758557Y76384286D02*
X95758557Y76470000D01*
X95758557Y76470000D02*
X95801414Y76598572D01*
X95801414Y76598572D02*
X95844271Y76641429D01*
X95844271Y76984286D02*
X95801414Y77027143D01*
X95801414Y77027143D02*
X95758557Y77112857D01*
X95758557Y77112857D02*
X95758557Y77327143D01*
X95758557Y77327143D02*
X95801414Y77412857D01*
X95801414Y77412857D02*
X95844271Y77455715D01*
X95844271Y77455715D02*
X95929985Y77498572D01*
X95929985Y77498572D02*
X96015700Y77498572D01*
X96015700Y77498572D02*
X96144271Y77455715D01*
X96144271Y77455715D02*
X96658557Y76941429D01*
X96658557Y76941429D02*
X96658557Y77498572D01*
X95758557Y77798572D02*
X95758557Y78355715D01*
X95758557Y78355715D02*
X96101414Y78055715D01*
X96101414Y78055715D02*
X96101414Y78184286D01*
X96101414Y78184286D02*
X96144271Y78270000D01*
X96144271Y78270000D02*
X96187128Y78312858D01*
X96187128Y78312858D02*
X96272842Y78355715D01*
X96272842Y78355715D02*
X96487128Y78355715D01*
X96487128Y78355715D02*
X96572842Y78312858D01*
X96572842Y78312858D02*
X96615700Y78270000D01*
X96615700Y78270000D02*
X96658557Y78184286D01*
X96658557Y78184286D02*
X96658557Y77927143D01*
X96658557Y77927143D02*
X96615700Y77841429D01*
X96615700Y77841429D02*
X96572842Y77798572D01*
X36254819Y127633334D02*
X36254819Y127157144D01*
X36254819Y127157144D02*
X35254819Y127157144D01*
X35350057Y127919049D02*
X35302438Y127966668D01*
X35302438Y127966668D02*
X35254819Y128061906D01*
X35254819Y128061906D02*
X35254819Y128300001D01*
X35254819Y128300001D02*
X35302438Y128395239D01*
X35302438Y128395239D02*
X35350057Y128442858D01*
X35350057Y128442858D02*
X35445295Y128490477D01*
X35445295Y128490477D02*
X35540533Y128490477D01*
X35540533Y128490477D02*
X35683390Y128442858D01*
X35683390Y128442858D02*
X36254819Y127871430D01*
X36254819Y127871430D02*
X36254819Y128490477D01*
X2916666Y20245181D02*
X2916666Y19530896D01*
X2916666Y19530896D02*
X2869047Y19388039D01*
X2869047Y19388039D02*
X2773809Y19292800D01*
X2773809Y19292800D02*
X2630952Y19245181D01*
X2630952Y19245181D02*
X2535714Y19245181D01*
X3821428Y20245181D02*
X3630952Y20245181D01*
X3630952Y20245181D02*
X3535714Y20197562D01*
X3535714Y20197562D02*
X3488095Y20149943D01*
X3488095Y20149943D02*
X3392857Y20007086D01*
X3392857Y20007086D02*
X3345238Y19816610D01*
X3345238Y19816610D02*
X3345238Y19435658D01*
X3345238Y19435658D02*
X3392857Y19340420D01*
X3392857Y19340420D02*
X3440476Y19292800D01*
X3440476Y19292800D02*
X3535714Y19245181D01*
X3535714Y19245181D02*
X3726190Y19245181D01*
X3726190Y19245181D02*
X3821428Y19292800D01*
X3821428Y19292800D02*
X3869047Y19340420D01*
X3869047Y19340420D02*
X3916666Y19435658D01*
X3916666Y19435658D02*
X3916666Y19673753D01*
X3916666Y19673753D02*
X3869047Y19768991D01*
X3869047Y19768991D02*
X3821428Y19816610D01*
X3821428Y19816610D02*
X3726190Y19864229D01*
X3726190Y19864229D02*
X3535714Y19864229D01*
X3535714Y19864229D02*
X3440476Y19816610D01*
X3440476Y19816610D02*
X3392857Y19768991D01*
X3392857Y19768991D02*
X3345238Y19673753D01*
X38358557Y56755001D02*
X38358557Y56326429D01*
X38358557Y56326429D02*
X37458557Y56326429D01*
X37458557Y56969286D02*
X37458557Y57526429D01*
X37458557Y57526429D02*
X37801414Y57226429D01*
X37801414Y57226429D02*
X37801414Y57355000D01*
X37801414Y57355000D02*
X37844271Y57440714D01*
X37844271Y57440714D02*
X37887128Y57483572D01*
X37887128Y57483572D02*
X37972842Y57526429D01*
X37972842Y57526429D02*
X38187128Y57526429D01*
X38187128Y57526429D02*
X38272842Y57483572D01*
X38272842Y57483572D02*
X38315700Y57440714D01*
X38315700Y57440714D02*
X38358557Y57355000D01*
X38358557Y57355000D02*
X38358557Y57097857D01*
X38358557Y57097857D02*
X38315700Y57012143D01*
X38315700Y57012143D02*
X38272842Y56969286D01*
X2937128Y105700000D02*
X2937128Y105400000D01*
X3408557Y105400000D02*
X2508557Y105400000D01*
X2508557Y105400000D02*
X2508557Y105828572D01*
X3408557Y106642858D02*
X3408557Y106128572D01*
X3408557Y106385715D02*
X2508557Y106385715D01*
X2508557Y106385715D02*
X2637128Y106300001D01*
X2637128Y106300001D02*
X2722842Y106214286D01*
X2722842Y106214286D02*
X2765700Y106128572D01*
X14121428Y15377158D02*
X14078571Y15334300D01*
X14078571Y15334300D02*
X13949999Y15291443D01*
X13949999Y15291443D02*
X13864285Y15291443D01*
X13864285Y15291443D02*
X13735714Y15334300D01*
X13735714Y15334300D02*
X13649999Y15420015D01*
X13649999Y15420015D02*
X13607142Y15505729D01*
X13607142Y15505729D02*
X13564285Y15677158D01*
X13564285Y15677158D02*
X13564285Y15805729D01*
X13564285Y15805729D02*
X13607142Y15977158D01*
X13607142Y15977158D02*
X13649999Y16062872D01*
X13649999Y16062872D02*
X13735714Y16148586D01*
X13735714Y16148586D02*
X13864285Y16191443D01*
X13864285Y16191443D02*
X13949999Y16191443D01*
X13949999Y16191443D02*
X14078571Y16148586D01*
X14078571Y16148586D02*
X14121428Y16105729D01*
X14935714Y16191443D02*
X14507142Y16191443D01*
X14507142Y16191443D02*
X14464285Y15762872D01*
X14464285Y15762872D02*
X14507142Y15805729D01*
X14507142Y15805729D02*
X14592857Y15848586D01*
X14592857Y15848586D02*
X14807142Y15848586D01*
X14807142Y15848586D02*
X14892857Y15805729D01*
X14892857Y15805729D02*
X14935714Y15762872D01*
X14935714Y15762872D02*
X14978571Y15677158D01*
X14978571Y15677158D02*
X14978571Y15462872D01*
X14978571Y15462872D02*
X14935714Y15377158D01*
X14935714Y15377158D02*
X14892857Y15334300D01*
X14892857Y15334300D02*
X14807142Y15291443D01*
X14807142Y15291443D02*
X14592857Y15291443D01*
X14592857Y15291443D02*
X14507142Y15334300D01*
X14507142Y15334300D02*
X14464285Y15377158D01*
X15278571Y16191443D02*
X15835714Y16191443D01*
X15835714Y16191443D02*
X15535714Y15848586D01*
X15535714Y15848586D02*
X15664285Y15848586D01*
X15664285Y15848586D02*
X15750000Y15805729D01*
X15750000Y15805729D02*
X15792857Y15762872D01*
X15792857Y15762872D02*
X15835714Y15677158D01*
X15835714Y15677158D02*
X15835714Y15462872D01*
X15835714Y15462872D02*
X15792857Y15377158D01*
X15792857Y15377158D02*
X15750000Y15334300D01*
X15750000Y15334300D02*
X15664285Y15291443D01*
X15664285Y15291443D02*
X15407142Y15291443D01*
X15407142Y15291443D02*
X15321428Y15334300D01*
X15321428Y15334300D02*
X15278571Y15377158D01*
X45812842Y118921429D02*
X45855700Y118878572D01*
X45855700Y118878572D02*
X45898557Y118750000D01*
X45898557Y118750000D02*
X45898557Y118664286D01*
X45898557Y118664286D02*
X45855700Y118535715D01*
X45855700Y118535715D02*
X45769985Y118450000D01*
X45769985Y118450000D02*
X45684271Y118407143D01*
X45684271Y118407143D02*
X45512842Y118364286D01*
X45512842Y118364286D02*
X45384271Y118364286D01*
X45384271Y118364286D02*
X45212842Y118407143D01*
X45212842Y118407143D02*
X45127128Y118450000D01*
X45127128Y118450000D02*
X45041414Y118535715D01*
X45041414Y118535715D02*
X44998557Y118664286D01*
X44998557Y118664286D02*
X44998557Y118750000D01*
X44998557Y118750000D02*
X45041414Y118878572D01*
X45041414Y118878572D02*
X45084271Y118921429D01*
X44998557Y119221429D02*
X44998557Y119778572D01*
X44998557Y119778572D02*
X45341414Y119478572D01*
X45341414Y119478572D02*
X45341414Y119607143D01*
X45341414Y119607143D02*
X45384271Y119692857D01*
X45384271Y119692857D02*
X45427128Y119735715D01*
X45427128Y119735715D02*
X45512842Y119778572D01*
X45512842Y119778572D02*
X45727128Y119778572D01*
X45727128Y119778572D02*
X45812842Y119735715D01*
X45812842Y119735715D02*
X45855700Y119692857D01*
X45855700Y119692857D02*
X45898557Y119607143D01*
X45898557Y119607143D02*
X45898557Y119350000D01*
X45898557Y119350000D02*
X45855700Y119264286D01*
X45855700Y119264286D02*
X45812842Y119221429D01*
X44998557Y120592858D02*
X44998557Y120164286D01*
X44998557Y120164286D02*
X45427128Y120121429D01*
X45427128Y120121429D02*
X45384271Y120164286D01*
X45384271Y120164286D02*
X45341414Y120250000D01*
X45341414Y120250000D02*
X45341414Y120464286D01*
X45341414Y120464286D02*
X45384271Y120550000D01*
X45384271Y120550000D02*
X45427128Y120592858D01*
X45427128Y120592858D02*
X45512842Y120635715D01*
X45512842Y120635715D02*
X45727128Y120635715D01*
X45727128Y120635715D02*
X45812842Y120592858D01*
X45812842Y120592858D02*
X45855700Y120550000D01*
X45855700Y120550000D02*
X45898557Y120464286D01*
X45898557Y120464286D02*
X45898557Y120250000D01*
X45898557Y120250000D02*
X45855700Y120164286D01*
X45855700Y120164286D02*
X45812842Y120121429D01*
X42708557Y117835715D02*
X41808557Y117835715D01*
X41808557Y117835715D02*
X41808557Y118050001D01*
X41808557Y118050001D02*
X41851414Y118178572D01*
X41851414Y118178572D02*
X41937128Y118264287D01*
X41937128Y118264287D02*
X42022842Y118307144D01*
X42022842Y118307144D02*
X42194271Y118350001D01*
X42194271Y118350001D02*
X42322842Y118350001D01*
X42322842Y118350001D02*
X42494271Y118307144D01*
X42494271Y118307144D02*
X42579985Y118264287D01*
X42579985Y118264287D02*
X42665700Y118178572D01*
X42665700Y118178572D02*
X42708557Y118050001D01*
X42708557Y118050001D02*
X42708557Y117835715D01*
X41808557Y118650001D02*
X41808557Y119207144D01*
X41808557Y119207144D02*
X42151414Y118907144D01*
X42151414Y118907144D02*
X42151414Y119035715D01*
X42151414Y119035715D02*
X42194271Y119121429D01*
X42194271Y119121429D02*
X42237128Y119164287D01*
X42237128Y119164287D02*
X42322842Y119207144D01*
X42322842Y119207144D02*
X42537128Y119207144D01*
X42537128Y119207144D02*
X42622842Y119164287D01*
X42622842Y119164287D02*
X42665700Y119121429D01*
X42665700Y119121429D02*
X42708557Y119035715D01*
X42708557Y119035715D02*
X42708557Y118778572D01*
X42708557Y118778572D02*
X42665700Y118692858D01*
X42665700Y118692858D02*
X42622842Y118650001D01*
X88453557Y83352429D02*
X88024985Y83052429D01*
X88453557Y82838143D02*
X87553557Y82838143D01*
X87553557Y82838143D02*
X87553557Y83181000D01*
X87553557Y83181000D02*
X87596414Y83266715D01*
X87596414Y83266715D02*
X87639271Y83309572D01*
X87639271Y83309572D02*
X87724985Y83352429D01*
X87724985Y83352429D02*
X87853557Y83352429D01*
X87853557Y83352429D02*
X87939271Y83309572D01*
X87939271Y83309572D02*
X87982128Y83266715D01*
X87982128Y83266715D02*
X88024985Y83181000D01*
X88024985Y83181000D02*
X88024985Y82838143D01*
X87553557Y83652429D02*
X87553557Y84209572D01*
X87553557Y84209572D02*
X87896414Y83909572D01*
X87896414Y83909572D02*
X87896414Y84038143D01*
X87896414Y84038143D02*
X87939271Y84123857D01*
X87939271Y84123857D02*
X87982128Y84166715D01*
X87982128Y84166715D02*
X88067842Y84209572D01*
X88067842Y84209572D02*
X88282128Y84209572D01*
X88282128Y84209572D02*
X88367842Y84166715D01*
X88367842Y84166715D02*
X88410700Y84123857D01*
X88410700Y84123857D02*
X88453557Y84038143D01*
X88453557Y84038143D02*
X88453557Y83781000D01*
X88453557Y83781000D02*
X88410700Y83695286D01*
X88410700Y83695286D02*
X88367842Y83652429D01*
X87639271Y84552429D02*
X87596414Y84595286D01*
X87596414Y84595286D02*
X87553557Y84681000D01*
X87553557Y84681000D02*
X87553557Y84895286D01*
X87553557Y84895286D02*
X87596414Y84981000D01*
X87596414Y84981000D02*
X87639271Y85023858D01*
X87639271Y85023858D02*
X87724985Y85066715D01*
X87724985Y85066715D02*
X87810700Y85066715D01*
X87810700Y85066715D02*
X87939271Y85023858D01*
X87939271Y85023858D02*
X88453557Y84509572D01*
X88453557Y84509572D02*
X88453557Y85066715D01*
X25315714Y112481443D02*
X25315714Y113381443D01*
X25315714Y113381443D02*
X25530000Y113381443D01*
X25530000Y113381443D02*
X25658571Y113338586D01*
X25658571Y113338586D02*
X25744286Y113252872D01*
X25744286Y113252872D02*
X25787143Y113167158D01*
X25787143Y113167158D02*
X25830000Y112995729D01*
X25830000Y112995729D02*
X25830000Y112867158D01*
X25830000Y112867158D02*
X25787143Y112695729D01*
X25787143Y112695729D02*
X25744286Y112610015D01*
X25744286Y112610015D02*
X25658571Y112524300D01*
X25658571Y112524300D02*
X25530000Y112481443D01*
X25530000Y112481443D02*
X25315714Y112481443D01*
X26172857Y113295729D02*
X26215714Y113338586D01*
X26215714Y113338586D02*
X26301429Y113381443D01*
X26301429Y113381443D02*
X26515714Y113381443D01*
X26515714Y113381443D02*
X26601429Y113338586D01*
X26601429Y113338586D02*
X26644286Y113295729D01*
X26644286Y113295729D02*
X26687143Y113210015D01*
X26687143Y113210015D02*
X26687143Y113124300D01*
X26687143Y113124300D02*
X26644286Y112995729D01*
X26644286Y112995729D02*
X26130000Y112481443D01*
X26130000Y112481443D02*
X26687143Y112481443D01*
X14823557Y109264286D02*
X13923557Y109264286D01*
X14823557Y109778572D02*
X14309271Y109392858D01*
X13923557Y109778572D02*
X14437842Y109264286D01*
X72751785Y90233943D02*
X72751785Y89505372D01*
X72751785Y89505372D02*
X72794642Y89419658D01*
X72794642Y89419658D02*
X72837500Y89376800D01*
X72837500Y89376800D02*
X72923214Y89333943D01*
X72923214Y89333943D02*
X73094642Y89333943D01*
X73094642Y89333943D02*
X73180357Y89376800D01*
X73180357Y89376800D02*
X73223214Y89419658D01*
X73223214Y89419658D02*
X73266071Y89505372D01*
X73266071Y89505372D02*
X73266071Y90233943D01*
X73608928Y90233943D02*
X74208928Y90233943D01*
X74208928Y90233943D02*
X73823214Y89333943D01*
X66821428Y119827158D02*
X66778571Y119784300D01*
X66778571Y119784300D02*
X66649999Y119741443D01*
X66649999Y119741443D02*
X66564285Y119741443D01*
X66564285Y119741443D02*
X66435714Y119784300D01*
X66435714Y119784300D02*
X66349999Y119870015D01*
X66349999Y119870015D02*
X66307142Y119955729D01*
X66307142Y119955729D02*
X66264285Y120127158D01*
X66264285Y120127158D02*
X66264285Y120255729D01*
X66264285Y120255729D02*
X66307142Y120427158D01*
X66307142Y120427158D02*
X66349999Y120512872D01*
X66349999Y120512872D02*
X66435714Y120598586D01*
X66435714Y120598586D02*
X66564285Y120641443D01*
X66564285Y120641443D02*
X66649999Y120641443D01*
X66649999Y120641443D02*
X66778571Y120598586D01*
X66778571Y120598586D02*
X66821428Y120555729D01*
X67635714Y120641443D02*
X67207142Y120641443D01*
X67207142Y120641443D02*
X67164285Y120212872D01*
X67164285Y120212872D02*
X67207142Y120255729D01*
X67207142Y120255729D02*
X67292857Y120298586D01*
X67292857Y120298586D02*
X67507142Y120298586D01*
X67507142Y120298586D02*
X67592857Y120255729D01*
X67592857Y120255729D02*
X67635714Y120212872D01*
X67635714Y120212872D02*
X67678571Y120127158D01*
X67678571Y120127158D02*
X67678571Y119912872D01*
X67678571Y119912872D02*
X67635714Y119827158D01*
X67635714Y119827158D02*
X67592857Y119784300D01*
X67592857Y119784300D02*
X67507142Y119741443D01*
X67507142Y119741443D02*
X67292857Y119741443D01*
X67292857Y119741443D02*
X67207142Y119784300D01*
X67207142Y119784300D02*
X67164285Y119827158D01*
X68535714Y119741443D02*
X68021428Y119741443D01*
X68278571Y119741443D02*
X68278571Y120641443D01*
X68278571Y120641443D02*
X68192857Y120512872D01*
X68192857Y120512872D02*
X68107142Y120427158D01*
X68107142Y120427158D02*
X68021428Y120384300D01*
X39971428Y49952158D02*
X39928571Y49909300D01*
X39928571Y49909300D02*
X39799999Y49866443D01*
X39799999Y49866443D02*
X39714285Y49866443D01*
X39714285Y49866443D02*
X39585714Y49909300D01*
X39585714Y49909300D02*
X39499999Y49995015D01*
X39499999Y49995015D02*
X39457142Y50080729D01*
X39457142Y50080729D02*
X39414285Y50252158D01*
X39414285Y50252158D02*
X39414285Y50380729D01*
X39414285Y50380729D02*
X39457142Y50552158D01*
X39457142Y50552158D02*
X39499999Y50637872D01*
X39499999Y50637872D02*
X39585714Y50723586D01*
X39585714Y50723586D02*
X39714285Y50766443D01*
X39714285Y50766443D02*
X39799999Y50766443D01*
X39799999Y50766443D02*
X39928571Y50723586D01*
X39928571Y50723586D02*
X39971428Y50680729D01*
X40742857Y50466443D02*
X40742857Y49866443D01*
X40528571Y50809300D02*
X40314285Y50166443D01*
X40314285Y50166443D02*
X40871428Y50166443D01*
X41128571Y50766443D02*
X41685714Y50766443D01*
X41685714Y50766443D02*
X41385714Y50423586D01*
X41385714Y50423586D02*
X41514285Y50423586D01*
X41514285Y50423586D02*
X41600000Y50380729D01*
X41600000Y50380729D02*
X41642857Y50337872D01*
X41642857Y50337872D02*
X41685714Y50252158D01*
X41685714Y50252158D02*
X41685714Y50037872D01*
X41685714Y50037872D02*
X41642857Y49952158D01*
X41642857Y49952158D02*
X41600000Y49909300D01*
X41600000Y49909300D02*
X41514285Y49866443D01*
X41514285Y49866443D02*
X41257142Y49866443D01*
X41257142Y49866443D02*
X41171428Y49909300D01*
X41171428Y49909300D02*
X41128571Y49952158D01*
X87650000Y62211443D02*
X87350000Y62640015D01*
X87135714Y62211443D02*
X87135714Y63111443D01*
X87135714Y63111443D02*
X87478571Y63111443D01*
X87478571Y63111443D02*
X87564286Y63068586D01*
X87564286Y63068586D02*
X87607143Y63025729D01*
X87607143Y63025729D02*
X87650000Y62940015D01*
X87650000Y62940015D02*
X87650000Y62811443D01*
X87650000Y62811443D02*
X87607143Y62725729D01*
X87607143Y62725729D02*
X87564286Y62682872D01*
X87564286Y62682872D02*
X87478571Y62640015D01*
X87478571Y62640015D02*
X87135714Y62640015D01*
X87950000Y63111443D02*
X88507143Y63111443D01*
X88507143Y63111443D02*
X88207143Y62768586D01*
X88207143Y62768586D02*
X88335714Y62768586D01*
X88335714Y62768586D02*
X88421429Y62725729D01*
X88421429Y62725729D02*
X88464286Y62682872D01*
X88464286Y62682872D02*
X88507143Y62597158D01*
X88507143Y62597158D02*
X88507143Y62382872D01*
X88507143Y62382872D02*
X88464286Y62297158D01*
X88464286Y62297158D02*
X88421429Y62254300D01*
X88421429Y62254300D02*
X88335714Y62211443D01*
X88335714Y62211443D02*
X88078571Y62211443D01*
X88078571Y62211443D02*
X87992857Y62254300D01*
X87992857Y62254300D02*
X87950000Y62297158D01*
X9186428Y8881443D02*
X8886428Y9310015D01*
X8672142Y8881443D02*
X8672142Y9781443D01*
X8672142Y9781443D02*
X9014999Y9781443D01*
X9014999Y9781443D02*
X9100714Y9738586D01*
X9100714Y9738586D02*
X9143571Y9695729D01*
X9143571Y9695729D02*
X9186428Y9610015D01*
X9186428Y9610015D02*
X9186428Y9481443D01*
X9186428Y9481443D02*
X9143571Y9395729D01*
X9143571Y9395729D02*
X9100714Y9352872D01*
X9100714Y9352872D02*
X9014999Y9310015D01*
X9014999Y9310015D02*
X8672142Y9310015D01*
X10000714Y9781443D02*
X9572142Y9781443D01*
X9572142Y9781443D02*
X9529285Y9352872D01*
X9529285Y9352872D02*
X9572142Y9395729D01*
X9572142Y9395729D02*
X9657857Y9438586D01*
X9657857Y9438586D02*
X9872142Y9438586D01*
X9872142Y9438586D02*
X9957857Y9395729D01*
X9957857Y9395729D02*
X10000714Y9352872D01*
X10000714Y9352872D02*
X10043571Y9267158D01*
X10043571Y9267158D02*
X10043571Y9052872D01*
X10043571Y9052872D02*
X10000714Y8967158D01*
X10000714Y8967158D02*
X9957857Y8924300D01*
X9957857Y8924300D02*
X9872142Y8881443D01*
X9872142Y8881443D02*
X9657857Y8881443D01*
X9657857Y8881443D02*
X9572142Y8924300D01*
X9572142Y8924300D02*
X9529285Y8967158D01*
X10815000Y9481443D02*
X10815000Y8881443D01*
X10600714Y9824300D02*
X10386428Y9181443D01*
X10386428Y9181443D02*
X10943571Y9181443D01*
X83204819Y6166667D02*
X83919104Y6166667D01*
X83919104Y6166667D02*
X84061961Y6119048D01*
X84061961Y6119048D02*
X84157200Y6023810D01*
X84157200Y6023810D02*
X84204819Y5880953D01*
X84204819Y5880953D02*
X84204819Y5785715D01*
X83204819Y7119048D02*
X83204819Y6642858D01*
X83204819Y6642858D02*
X83681009Y6595239D01*
X83681009Y6595239D02*
X83633390Y6642858D01*
X83633390Y6642858D02*
X83585771Y6738096D01*
X83585771Y6738096D02*
X83585771Y6976191D01*
X83585771Y6976191D02*
X83633390Y7071429D01*
X83633390Y7071429D02*
X83681009Y7119048D01*
X83681009Y7119048D02*
X83776247Y7166667D01*
X83776247Y7166667D02*
X84014342Y7166667D01*
X84014342Y7166667D02*
X84109580Y7119048D01*
X84109580Y7119048D02*
X84157200Y7071429D01*
X84157200Y7071429D02*
X84204819Y6976191D01*
X84204819Y6976191D02*
X84204819Y6738096D01*
X84204819Y6738096D02*
X84157200Y6642858D01*
X84157200Y6642858D02*
X84109580Y6595239D01*
X54399999Y125742872D02*
X54099999Y125742872D01*
X54099999Y125271443D02*
X54099999Y126171443D01*
X54099999Y126171443D02*
X54528571Y126171443D01*
X55171428Y125742872D02*
X55300000Y125700015D01*
X55300000Y125700015D02*
X55342857Y125657158D01*
X55342857Y125657158D02*
X55385714Y125571443D01*
X55385714Y125571443D02*
X55385714Y125442872D01*
X55385714Y125442872D02*
X55342857Y125357158D01*
X55342857Y125357158D02*
X55300000Y125314300D01*
X55300000Y125314300D02*
X55214285Y125271443D01*
X55214285Y125271443D02*
X54871428Y125271443D01*
X54871428Y125271443D02*
X54871428Y126171443D01*
X54871428Y126171443D02*
X55171428Y126171443D01*
X55171428Y126171443D02*
X55257143Y126128586D01*
X55257143Y126128586D02*
X55300000Y126085729D01*
X55300000Y126085729D02*
X55342857Y126000015D01*
X55342857Y126000015D02*
X55342857Y125914300D01*
X55342857Y125914300D02*
X55300000Y125828586D01*
X55300000Y125828586D02*
X55257143Y125785729D01*
X55257143Y125785729D02*
X55171428Y125742872D01*
X55171428Y125742872D02*
X54871428Y125742872D01*
X56242857Y125271443D02*
X55728571Y125271443D01*
X55985714Y125271443D02*
X55985714Y126171443D01*
X55985714Y126171443D02*
X55900000Y126042872D01*
X55900000Y126042872D02*
X55814285Y125957158D01*
X55814285Y125957158D02*
X55728571Y125914300D01*
X65171428Y79521443D02*
X64871428Y79950015D01*
X64657142Y79521443D02*
X64657142Y80421443D01*
X64657142Y80421443D02*
X64999999Y80421443D01*
X64999999Y80421443D02*
X65085714Y80378586D01*
X65085714Y80378586D02*
X65128571Y80335729D01*
X65128571Y80335729D02*
X65171428Y80250015D01*
X65171428Y80250015D02*
X65171428Y80121443D01*
X65171428Y80121443D02*
X65128571Y80035729D01*
X65128571Y80035729D02*
X65085714Y79992872D01*
X65085714Y79992872D02*
X64999999Y79950015D01*
X64999999Y79950015D02*
X64657142Y79950015D01*
X65471428Y80421443D02*
X66028571Y80421443D01*
X66028571Y80421443D02*
X65728571Y80078586D01*
X65728571Y80078586D02*
X65857142Y80078586D01*
X65857142Y80078586D02*
X65942857Y80035729D01*
X65942857Y80035729D02*
X65985714Y79992872D01*
X65985714Y79992872D02*
X66028571Y79907158D01*
X66028571Y79907158D02*
X66028571Y79692872D01*
X66028571Y79692872D02*
X65985714Y79607158D01*
X65985714Y79607158D02*
X65942857Y79564300D01*
X65942857Y79564300D02*
X65857142Y79521443D01*
X65857142Y79521443D02*
X65599999Y79521443D01*
X65599999Y79521443D02*
X65514285Y79564300D01*
X65514285Y79564300D02*
X65471428Y79607158D01*
X66800000Y80421443D02*
X66628571Y80421443D01*
X66628571Y80421443D02*
X66542857Y80378586D01*
X66542857Y80378586D02*
X66500000Y80335729D01*
X66500000Y80335729D02*
X66414285Y80207158D01*
X66414285Y80207158D02*
X66371428Y80035729D01*
X66371428Y80035729D02*
X66371428Y79692872D01*
X66371428Y79692872D02*
X66414285Y79607158D01*
X66414285Y79607158D02*
X66457142Y79564300D01*
X66457142Y79564300D02*
X66542857Y79521443D01*
X66542857Y79521443D02*
X66714285Y79521443D01*
X66714285Y79521443D02*
X66800000Y79564300D01*
X66800000Y79564300D02*
X66842857Y79607158D01*
X66842857Y79607158D02*
X66885714Y79692872D01*
X66885714Y79692872D02*
X66885714Y79907158D01*
X66885714Y79907158D02*
X66842857Y79992872D01*
X66842857Y79992872D02*
X66800000Y80035729D01*
X66800000Y80035729D02*
X66714285Y80078586D01*
X66714285Y80078586D02*
X66542857Y80078586D01*
X66542857Y80078586D02*
X66457142Y80035729D01*
X66457142Y80035729D02*
X66414285Y79992872D01*
X66414285Y79992872D02*
X66371428Y79907158D01*
X95166666Y117965181D02*
X95166666Y117250896D01*
X95166666Y117250896D02*
X95119047Y117108039D01*
X95119047Y117108039D02*
X95023809Y117012800D01*
X95023809Y117012800D02*
X94880952Y116965181D01*
X94880952Y116965181D02*
X94785714Y116965181D01*
X95547619Y117965181D02*
X96166666Y117965181D01*
X96166666Y117965181D02*
X95833333Y117584229D01*
X95833333Y117584229D02*
X95976190Y117584229D01*
X95976190Y117584229D02*
X96071428Y117536610D01*
X96071428Y117536610D02*
X96119047Y117488991D01*
X96119047Y117488991D02*
X96166666Y117393753D01*
X96166666Y117393753D02*
X96166666Y117155658D01*
X96166666Y117155658D02*
X96119047Y117060420D01*
X96119047Y117060420D02*
X96071428Y117012800D01*
X96071428Y117012800D02*
X95976190Y116965181D01*
X95976190Y116965181D02*
X95690476Y116965181D01*
X95690476Y116965181D02*
X95595238Y117012800D01*
X95595238Y117012800D02*
X95547619Y117060420D01*
X14421428Y7877158D02*
X14378571Y7834300D01*
X14378571Y7834300D02*
X14249999Y7791443D01*
X14249999Y7791443D02*
X14164285Y7791443D01*
X14164285Y7791443D02*
X14035714Y7834300D01*
X14035714Y7834300D02*
X13949999Y7920015D01*
X13949999Y7920015D02*
X13907142Y8005729D01*
X13907142Y8005729D02*
X13864285Y8177158D01*
X13864285Y8177158D02*
X13864285Y8305729D01*
X13864285Y8305729D02*
X13907142Y8477158D01*
X13907142Y8477158D02*
X13949999Y8562872D01*
X13949999Y8562872D02*
X14035714Y8648586D01*
X14035714Y8648586D02*
X14164285Y8691443D01*
X14164285Y8691443D02*
X14249999Y8691443D01*
X14249999Y8691443D02*
X14378571Y8648586D01*
X14378571Y8648586D02*
X14421428Y8605729D01*
X15235714Y8691443D02*
X14807142Y8691443D01*
X14807142Y8691443D02*
X14764285Y8262872D01*
X14764285Y8262872D02*
X14807142Y8305729D01*
X14807142Y8305729D02*
X14892857Y8348586D01*
X14892857Y8348586D02*
X15107142Y8348586D01*
X15107142Y8348586D02*
X15192857Y8305729D01*
X15192857Y8305729D02*
X15235714Y8262872D01*
X15235714Y8262872D02*
X15278571Y8177158D01*
X15278571Y8177158D02*
X15278571Y7962872D01*
X15278571Y7962872D02*
X15235714Y7877158D01*
X15235714Y7877158D02*
X15192857Y7834300D01*
X15192857Y7834300D02*
X15107142Y7791443D01*
X15107142Y7791443D02*
X14892857Y7791443D01*
X14892857Y7791443D02*
X14807142Y7834300D01*
X14807142Y7834300D02*
X14764285Y7877158D01*
X16050000Y8691443D02*
X15878571Y8691443D01*
X15878571Y8691443D02*
X15792857Y8648586D01*
X15792857Y8648586D02*
X15750000Y8605729D01*
X15750000Y8605729D02*
X15664285Y8477158D01*
X15664285Y8477158D02*
X15621428Y8305729D01*
X15621428Y8305729D02*
X15621428Y7962872D01*
X15621428Y7962872D02*
X15664285Y7877158D01*
X15664285Y7877158D02*
X15707142Y7834300D01*
X15707142Y7834300D02*
X15792857Y7791443D01*
X15792857Y7791443D02*
X15964285Y7791443D01*
X15964285Y7791443D02*
X16050000Y7834300D01*
X16050000Y7834300D02*
X16092857Y7877158D01*
X16092857Y7877158D02*
X16135714Y7962872D01*
X16135714Y7962872D02*
X16135714Y8177158D01*
X16135714Y8177158D02*
X16092857Y8262872D01*
X16092857Y8262872D02*
X16050000Y8305729D01*
X16050000Y8305729D02*
X15964285Y8348586D01*
X15964285Y8348586D02*
X15792857Y8348586D01*
X15792857Y8348586D02*
X15707142Y8305729D01*
X15707142Y8305729D02*
X15664285Y8262872D01*
X15664285Y8262872D02*
X15621428Y8177158D01*
X13399819Y86633334D02*
X13399819Y86157144D01*
X13399819Y86157144D02*
X12399819Y86157144D01*
X13399819Y87490477D02*
X13399819Y86919049D01*
X13399819Y87204763D02*
X12399819Y87204763D01*
X12399819Y87204763D02*
X12542676Y87109525D01*
X12542676Y87109525D02*
X12637914Y87014287D01*
X12637914Y87014287D02*
X12685533Y86919049D01*
X25022842Y44641429D02*
X25065700Y44598572D01*
X25065700Y44598572D02*
X25108557Y44470000D01*
X25108557Y44470000D02*
X25108557Y44384286D01*
X25108557Y44384286D02*
X25065700Y44255715D01*
X25065700Y44255715D02*
X24979985Y44170000D01*
X24979985Y44170000D02*
X24894271Y44127143D01*
X24894271Y44127143D02*
X24722842Y44084286D01*
X24722842Y44084286D02*
X24594271Y44084286D01*
X24594271Y44084286D02*
X24422842Y44127143D01*
X24422842Y44127143D02*
X24337128Y44170000D01*
X24337128Y44170000D02*
X24251414Y44255715D01*
X24251414Y44255715D02*
X24208557Y44384286D01*
X24208557Y44384286D02*
X24208557Y44470000D01*
X24208557Y44470000D02*
X24251414Y44598572D01*
X24251414Y44598572D02*
X24294271Y44641429D01*
X24508557Y45412857D02*
X25108557Y45412857D01*
X24165700Y45198572D02*
X24808557Y44984286D01*
X24808557Y44984286D02*
X24808557Y45541429D01*
X24208557Y46312858D02*
X24208557Y45884286D01*
X24208557Y45884286D02*
X24637128Y45841429D01*
X24637128Y45841429D02*
X24594271Y45884286D01*
X24594271Y45884286D02*
X24551414Y45970000D01*
X24551414Y45970000D02*
X24551414Y46184286D01*
X24551414Y46184286D02*
X24594271Y46270000D01*
X24594271Y46270000D02*
X24637128Y46312858D01*
X24637128Y46312858D02*
X24722842Y46355715D01*
X24722842Y46355715D02*
X24937128Y46355715D01*
X24937128Y46355715D02*
X25022842Y46312858D01*
X25022842Y46312858D02*
X25065700Y46270000D01*
X25065700Y46270000D02*
X25108557Y46184286D01*
X25108557Y46184286D02*
X25108557Y45970000D01*
X25108557Y45970000D02*
X25065700Y45884286D01*
X25065700Y45884286D02*
X25022842Y45841429D01*
X23671428Y71321443D02*
X23371428Y71750015D01*
X23157142Y71321443D02*
X23157142Y72221443D01*
X23157142Y72221443D02*
X23499999Y72221443D01*
X23499999Y72221443D02*
X23585714Y72178586D01*
X23585714Y72178586D02*
X23628571Y72135729D01*
X23628571Y72135729D02*
X23671428Y72050015D01*
X23671428Y72050015D02*
X23671428Y71921443D01*
X23671428Y71921443D02*
X23628571Y71835729D01*
X23628571Y71835729D02*
X23585714Y71792872D01*
X23585714Y71792872D02*
X23499999Y71750015D01*
X23499999Y71750015D02*
X23157142Y71750015D01*
X24442857Y71921443D02*
X24442857Y71321443D01*
X24228571Y72264300D02*
X24014285Y71621443D01*
X24014285Y71621443D02*
X24571428Y71621443D01*
X25042857Y71835729D02*
X24957142Y71878586D01*
X24957142Y71878586D02*
X24914285Y71921443D01*
X24914285Y71921443D02*
X24871428Y72007158D01*
X24871428Y72007158D02*
X24871428Y72050015D01*
X24871428Y72050015D02*
X24914285Y72135729D01*
X24914285Y72135729D02*
X24957142Y72178586D01*
X24957142Y72178586D02*
X25042857Y72221443D01*
X25042857Y72221443D02*
X25214285Y72221443D01*
X25214285Y72221443D02*
X25300000Y72178586D01*
X25300000Y72178586D02*
X25342857Y72135729D01*
X25342857Y72135729D02*
X25385714Y72050015D01*
X25385714Y72050015D02*
X25385714Y72007158D01*
X25385714Y72007158D02*
X25342857Y71921443D01*
X25342857Y71921443D02*
X25300000Y71878586D01*
X25300000Y71878586D02*
X25214285Y71835729D01*
X25214285Y71835729D02*
X25042857Y71835729D01*
X25042857Y71835729D02*
X24957142Y71792872D01*
X24957142Y71792872D02*
X24914285Y71750015D01*
X24914285Y71750015D02*
X24871428Y71664300D01*
X24871428Y71664300D02*
X24871428Y71492872D01*
X24871428Y71492872D02*
X24914285Y71407158D01*
X24914285Y71407158D02*
X24957142Y71364300D01*
X24957142Y71364300D02*
X25042857Y71321443D01*
X25042857Y71321443D02*
X25214285Y71321443D01*
X25214285Y71321443D02*
X25300000Y71364300D01*
X25300000Y71364300D02*
X25342857Y71407158D01*
X25342857Y71407158D02*
X25385714Y71492872D01*
X25385714Y71492872D02*
X25385714Y71664300D01*
X25385714Y71664300D02*
X25342857Y71750015D01*
X25342857Y71750015D02*
X25300000Y71792872D01*
X25300000Y71792872D02*
X25214285Y71835729D01*
X87926557Y88911429D02*
X87497985Y88611429D01*
X87926557Y88397143D02*
X87026557Y88397143D01*
X87026557Y88397143D02*
X87026557Y88740000D01*
X87026557Y88740000D02*
X87069414Y88825715D01*
X87069414Y88825715D02*
X87112271Y88868572D01*
X87112271Y88868572D02*
X87197985Y88911429D01*
X87197985Y88911429D02*
X87326557Y88911429D01*
X87326557Y88911429D02*
X87412271Y88868572D01*
X87412271Y88868572D02*
X87455128Y88825715D01*
X87455128Y88825715D02*
X87497985Y88740000D01*
X87497985Y88740000D02*
X87497985Y88397143D01*
X87112271Y89254286D02*
X87069414Y89297143D01*
X87069414Y89297143D02*
X87026557Y89382857D01*
X87026557Y89382857D02*
X87026557Y89597143D01*
X87026557Y89597143D02*
X87069414Y89682857D01*
X87069414Y89682857D02*
X87112271Y89725715D01*
X87112271Y89725715D02*
X87197985Y89768572D01*
X87197985Y89768572D02*
X87283700Y89768572D01*
X87283700Y89768572D02*
X87412271Y89725715D01*
X87412271Y89725715D02*
X87926557Y89211429D01*
X87926557Y89211429D02*
X87926557Y89768572D01*
X87926557Y90197143D02*
X87926557Y90368572D01*
X87926557Y90368572D02*
X87883700Y90454286D01*
X87883700Y90454286D02*
X87840842Y90497143D01*
X87840842Y90497143D02*
X87712271Y90582858D01*
X87712271Y90582858D02*
X87540842Y90625715D01*
X87540842Y90625715D02*
X87197985Y90625715D01*
X87197985Y90625715D02*
X87112271Y90582858D01*
X87112271Y90582858D02*
X87069414Y90540000D01*
X87069414Y90540000D02*
X87026557Y90454286D01*
X87026557Y90454286D02*
X87026557Y90282858D01*
X87026557Y90282858D02*
X87069414Y90197143D01*
X87069414Y90197143D02*
X87112271Y90154286D01*
X87112271Y90154286D02*
X87197985Y90111429D01*
X87197985Y90111429D02*
X87412271Y90111429D01*
X87412271Y90111429D02*
X87497985Y90154286D01*
X87497985Y90154286D02*
X87540842Y90197143D01*
X87540842Y90197143D02*
X87583700Y90282858D01*
X87583700Y90282858D02*
X87583700Y90454286D01*
X87583700Y90454286D02*
X87540842Y90540000D01*
X87540842Y90540000D02*
X87497985Y90582858D01*
X87497985Y90582858D02*
X87412271Y90625715D01*
X10138095Y15445181D02*
X10138095Y14635658D01*
X10138095Y14635658D02*
X10185714Y14540420D01*
X10185714Y14540420D02*
X10233333Y14492800D01*
X10233333Y14492800D02*
X10328571Y14445181D01*
X10328571Y14445181D02*
X10519047Y14445181D01*
X10519047Y14445181D02*
X10614285Y14492800D01*
X10614285Y14492800D02*
X10661904Y14540420D01*
X10661904Y14540420D02*
X10709523Y14635658D01*
X10709523Y14635658D02*
X10709523Y15445181D01*
X11233333Y14445181D02*
X11423809Y14445181D01*
X11423809Y14445181D02*
X11519047Y14492800D01*
X11519047Y14492800D02*
X11566666Y14540420D01*
X11566666Y14540420D02*
X11661904Y14683277D01*
X11661904Y14683277D02*
X11709523Y14873753D01*
X11709523Y14873753D02*
X11709523Y15254705D01*
X11709523Y15254705D02*
X11661904Y15349943D01*
X11661904Y15349943D02*
X11614285Y15397562D01*
X11614285Y15397562D02*
X11519047Y15445181D01*
X11519047Y15445181D02*
X11328571Y15445181D01*
X11328571Y15445181D02*
X11233333Y15397562D01*
X11233333Y15397562D02*
X11185714Y15349943D01*
X11185714Y15349943D02*
X11138095Y15254705D01*
X11138095Y15254705D02*
X11138095Y15016610D01*
X11138095Y15016610D02*
X11185714Y14921372D01*
X11185714Y14921372D02*
X11233333Y14873753D01*
X11233333Y14873753D02*
X11328571Y14826134D01*
X11328571Y14826134D02*
X11519047Y14826134D01*
X11519047Y14826134D02*
X11614285Y14873753D01*
X11614285Y14873753D02*
X11661904Y14921372D01*
X11661904Y14921372D02*
X11709523Y15016610D01*
X34524285Y115161443D02*
X34524285Y114432872D01*
X34524285Y114432872D02*
X34567142Y114347158D01*
X34567142Y114347158D02*
X34610000Y114304300D01*
X34610000Y114304300D02*
X34695714Y114261443D01*
X34695714Y114261443D02*
X34867142Y114261443D01*
X34867142Y114261443D02*
X34952857Y114304300D01*
X34952857Y114304300D02*
X34995714Y114347158D01*
X34995714Y114347158D02*
X35038571Y114432872D01*
X35038571Y114432872D02*
X35038571Y115161443D01*
X35424285Y115075729D02*
X35467142Y115118586D01*
X35467142Y115118586D02*
X35552857Y115161443D01*
X35552857Y115161443D02*
X35767142Y115161443D01*
X35767142Y115161443D02*
X35852857Y115118586D01*
X35852857Y115118586D02*
X35895714Y115075729D01*
X35895714Y115075729D02*
X35938571Y114990015D01*
X35938571Y114990015D02*
X35938571Y114904300D01*
X35938571Y114904300D02*
X35895714Y114775729D01*
X35895714Y114775729D02*
X35381428Y114261443D01*
X35381428Y114261443D02*
X35938571Y114261443D01*
X87850000Y67211443D02*
X87550000Y67640015D01*
X87335714Y67211443D02*
X87335714Y68111443D01*
X87335714Y68111443D02*
X87678571Y68111443D01*
X87678571Y68111443D02*
X87764286Y68068586D01*
X87764286Y68068586D02*
X87807143Y68025729D01*
X87807143Y68025729D02*
X87850000Y67940015D01*
X87850000Y67940015D02*
X87850000Y67811443D01*
X87850000Y67811443D02*
X87807143Y67725729D01*
X87807143Y67725729D02*
X87764286Y67682872D01*
X87764286Y67682872D02*
X87678571Y67640015D01*
X87678571Y67640015D02*
X87335714Y67640015D01*
X88707143Y67211443D02*
X88192857Y67211443D01*
X88450000Y67211443D02*
X88450000Y68111443D01*
X88450000Y68111443D02*
X88364286Y67982872D01*
X88364286Y67982872D02*
X88278571Y67897158D01*
X88278571Y67897158D02*
X88192857Y67854300D01*
X89711905Y113195181D02*
X89711905Y114195181D01*
X89711905Y114195181D02*
X89950000Y114195181D01*
X89950000Y114195181D02*
X90092857Y114147562D01*
X90092857Y114147562D02*
X90188095Y114052324D01*
X90188095Y114052324D02*
X90235714Y113957086D01*
X90235714Y113957086D02*
X90283333Y113766610D01*
X90283333Y113766610D02*
X90283333Y113623753D01*
X90283333Y113623753D02*
X90235714Y113433277D01*
X90235714Y113433277D02*
X90188095Y113338039D01*
X90188095Y113338039D02*
X90092857Y113242800D01*
X90092857Y113242800D02*
X89950000Y113195181D01*
X89950000Y113195181D02*
X89711905Y113195181D01*
X91188095Y114195181D02*
X90711905Y114195181D01*
X90711905Y114195181D02*
X90664286Y113718991D01*
X90664286Y113718991D02*
X90711905Y113766610D01*
X90711905Y113766610D02*
X90807143Y113814229D01*
X90807143Y113814229D02*
X91045238Y113814229D01*
X91045238Y113814229D02*
X91140476Y113766610D01*
X91140476Y113766610D02*
X91188095Y113718991D01*
X91188095Y113718991D02*
X91235714Y113623753D01*
X91235714Y113623753D02*
X91235714Y113385658D01*
X91235714Y113385658D02*
X91188095Y113290420D01*
X91188095Y113290420D02*
X91140476Y113242800D01*
X91140476Y113242800D02*
X91045238Y113195181D01*
X91045238Y113195181D02*
X90807143Y113195181D01*
X90807143Y113195181D02*
X90711905Y113242800D01*
X90711905Y113242800D02*
X90664286Y113290420D01*
X9135714Y95336443D02*
X9135714Y96236443D01*
X9135714Y96236443D02*
X9350000Y96236443D01*
X9350000Y96236443D02*
X9478571Y96193586D01*
X9478571Y96193586D02*
X9564286Y96107872D01*
X9564286Y96107872D02*
X9607143Y96022158D01*
X9607143Y96022158D02*
X9650000Y95850729D01*
X9650000Y95850729D02*
X9650000Y95722158D01*
X9650000Y95722158D02*
X9607143Y95550729D01*
X9607143Y95550729D02*
X9564286Y95465015D01*
X9564286Y95465015D02*
X9478571Y95379300D01*
X9478571Y95379300D02*
X9350000Y95336443D01*
X9350000Y95336443D02*
X9135714Y95336443D01*
X10507143Y95336443D02*
X9992857Y95336443D01*
X10250000Y95336443D02*
X10250000Y96236443D01*
X10250000Y96236443D02*
X10164286Y96107872D01*
X10164286Y96107872D02*
X10078571Y96022158D01*
X10078571Y96022158D02*
X9992857Y95979300D01*
X74422842Y94406929D02*
X74465700Y94364072D01*
X74465700Y94364072D02*
X74508557Y94235500D01*
X74508557Y94235500D02*
X74508557Y94149786D01*
X74508557Y94149786D02*
X74465700Y94021215D01*
X74465700Y94021215D02*
X74379985Y93935500D01*
X74379985Y93935500D02*
X74294271Y93892643D01*
X74294271Y93892643D02*
X74122842Y93849786D01*
X74122842Y93849786D02*
X73994271Y93849786D01*
X73994271Y93849786D02*
X73822842Y93892643D01*
X73822842Y93892643D02*
X73737128Y93935500D01*
X73737128Y93935500D02*
X73651414Y94021215D01*
X73651414Y94021215D02*
X73608557Y94149786D01*
X73608557Y94149786D02*
X73608557Y94235500D01*
X73608557Y94235500D02*
X73651414Y94364072D01*
X73651414Y94364072D02*
X73694271Y94406929D01*
X73694271Y94749786D02*
X73651414Y94792643D01*
X73651414Y94792643D02*
X73608557Y94878357D01*
X73608557Y94878357D02*
X73608557Y95092643D01*
X73608557Y95092643D02*
X73651414Y95178357D01*
X73651414Y95178357D02*
X73694271Y95221215D01*
X73694271Y95221215D02*
X73779985Y95264072D01*
X73779985Y95264072D02*
X73865700Y95264072D01*
X73865700Y95264072D02*
X73994271Y95221215D01*
X73994271Y95221215D02*
X74508557Y94706929D01*
X74508557Y94706929D02*
X74508557Y95264072D01*
X73994271Y95778358D02*
X73951414Y95692643D01*
X73951414Y95692643D02*
X73908557Y95649786D01*
X73908557Y95649786D02*
X73822842Y95606929D01*
X73822842Y95606929D02*
X73779985Y95606929D01*
X73779985Y95606929D02*
X73694271Y95649786D01*
X73694271Y95649786D02*
X73651414Y95692643D01*
X73651414Y95692643D02*
X73608557Y95778358D01*
X73608557Y95778358D02*
X73608557Y95949786D01*
X73608557Y95949786D02*
X73651414Y96035500D01*
X73651414Y96035500D02*
X73694271Y96078358D01*
X73694271Y96078358D02*
X73779985Y96121215D01*
X73779985Y96121215D02*
X73822842Y96121215D01*
X73822842Y96121215D02*
X73908557Y96078358D01*
X73908557Y96078358D02*
X73951414Y96035500D01*
X73951414Y96035500D02*
X73994271Y95949786D01*
X73994271Y95949786D02*
X73994271Y95778358D01*
X73994271Y95778358D02*
X74037128Y95692643D01*
X74037128Y95692643D02*
X74079985Y95649786D01*
X74079985Y95649786D02*
X74165700Y95606929D01*
X74165700Y95606929D02*
X74337128Y95606929D01*
X74337128Y95606929D02*
X74422842Y95649786D01*
X74422842Y95649786D02*
X74465700Y95692643D01*
X74465700Y95692643D02*
X74508557Y95778358D01*
X74508557Y95778358D02*
X74508557Y95949786D01*
X74508557Y95949786D02*
X74465700Y96035500D01*
X74465700Y96035500D02*
X74422842Y96078358D01*
X74422842Y96078358D02*
X74337128Y96121215D01*
X74337128Y96121215D02*
X74165700Y96121215D01*
X74165700Y96121215D02*
X74079985Y96078358D01*
X74079985Y96078358D02*
X74037128Y96035500D01*
X74037128Y96035500D02*
X73994271Y95949786D01*
X22258557Y58326429D02*
X21829985Y58026429D01*
X22258557Y57812143D02*
X21358557Y57812143D01*
X21358557Y57812143D02*
X21358557Y58155000D01*
X21358557Y58155000D02*
X21401414Y58240715D01*
X21401414Y58240715D02*
X21444271Y58283572D01*
X21444271Y58283572D02*
X21529985Y58326429D01*
X21529985Y58326429D02*
X21658557Y58326429D01*
X21658557Y58326429D02*
X21744271Y58283572D01*
X21744271Y58283572D02*
X21787128Y58240715D01*
X21787128Y58240715D02*
X21829985Y58155000D01*
X21829985Y58155000D02*
X21829985Y57812143D01*
X21658557Y59097857D02*
X22258557Y59097857D01*
X21315700Y58883572D02*
X21958557Y58669286D01*
X21958557Y58669286D02*
X21958557Y59226429D01*
X21658557Y59955000D02*
X22258557Y59955000D01*
X21315700Y59740715D02*
X21958557Y59526429D01*
X21958557Y59526429D02*
X21958557Y60083572D01*
X75050557Y79199929D02*
X74621985Y78899929D01*
X75050557Y78685643D02*
X74150557Y78685643D01*
X74150557Y78685643D02*
X74150557Y79028500D01*
X74150557Y79028500D02*
X74193414Y79114215D01*
X74193414Y79114215D02*
X74236271Y79157072D01*
X74236271Y79157072D02*
X74321985Y79199929D01*
X74321985Y79199929D02*
X74450557Y79199929D01*
X74450557Y79199929D02*
X74536271Y79157072D01*
X74536271Y79157072D02*
X74579128Y79114215D01*
X74579128Y79114215D02*
X74621985Y79028500D01*
X74621985Y79028500D02*
X74621985Y78685643D01*
X74150557Y79499929D02*
X74150557Y80057072D01*
X74150557Y80057072D02*
X74493414Y79757072D01*
X74493414Y79757072D02*
X74493414Y79885643D01*
X74493414Y79885643D02*
X74536271Y79971357D01*
X74536271Y79971357D02*
X74579128Y80014215D01*
X74579128Y80014215D02*
X74664842Y80057072D01*
X74664842Y80057072D02*
X74879128Y80057072D01*
X74879128Y80057072D02*
X74964842Y80014215D01*
X74964842Y80014215D02*
X75007700Y79971357D01*
X75007700Y79971357D02*
X75050557Y79885643D01*
X75050557Y79885643D02*
X75050557Y79628500D01*
X75050557Y79628500D02*
X75007700Y79542786D01*
X75007700Y79542786D02*
X74964842Y79499929D01*
X74536271Y80571358D02*
X74493414Y80485643D01*
X74493414Y80485643D02*
X74450557Y80442786D01*
X74450557Y80442786D02*
X74364842Y80399929D01*
X74364842Y80399929D02*
X74321985Y80399929D01*
X74321985Y80399929D02*
X74236271Y80442786D01*
X74236271Y80442786D02*
X74193414Y80485643D01*
X74193414Y80485643D02*
X74150557Y80571358D01*
X74150557Y80571358D02*
X74150557Y80742786D01*
X74150557Y80742786D02*
X74193414Y80828500D01*
X74193414Y80828500D02*
X74236271Y80871358D01*
X74236271Y80871358D02*
X74321985Y80914215D01*
X74321985Y80914215D02*
X74364842Y80914215D01*
X74364842Y80914215D02*
X74450557Y80871358D01*
X74450557Y80871358D02*
X74493414Y80828500D01*
X74493414Y80828500D02*
X74536271Y80742786D01*
X74536271Y80742786D02*
X74536271Y80571358D01*
X74536271Y80571358D02*
X74579128Y80485643D01*
X74579128Y80485643D02*
X74621985Y80442786D01*
X74621985Y80442786D02*
X74707700Y80399929D01*
X74707700Y80399929D02*
X74879128Y80399929D01*
X74879128Y80399929D02*
X74964842Y80442786D01*
X74964842Y80442786D02*
X75007700Y80485643D01*
X75007700Y80485643D02*
X75050557Y80571358D01*
X75050557Y80571358D02*
X75050557Y80742786D01*
X75050557Y80742786D02*
X75007700Y80828500D01*
X75007700Y80828500D02*
X74964842Y80871358D01*
X74964842Y80871358D02*
X74879128Y80914215D01*
X74879128Y80914215D02*
X74707700Y80914215D01*
X74707700Y80914215D02*
X74621985Y80871358D01*
X74621985Y80871358D02*
X74579128Y80828500D01*
X74579128Y80828500D02*
X74536271Y80742786D01*
X88967842Y92309429D02*
X89010700Y92266572D01*
X89010700Y92266572D02*
X89053557Y92138000D01*
X89053557Y92138000D02*
X89053557Y92052286D01*
X89053557Y92052286D02*
X89010700Y91923715D01*
X89010700Y91923715D02*
X88924985Y91838000D01*
X88924985Y91838000D02*
X88839271Y91795143D01*
X88839271Y91795143D02*
X88667842Y91752286D01*
X88667842Y91752286D02*
X88539271Y91752286D01*
X88539271Y91752286D02*
X88367842Y91795143D01*
X88367842Y91795143D02*
X88282128Y91838000D01*
X88282128Y91838000D02*
X88196414Y91923715D01*
X88196414Y91923715D02*
X88153557Y92052286D01*
X88153557Y92052286D02*
X88153557Y92138000D01*
X88153557Y92138000D02*
X88196414Y92266572D01*
X88196414Y92266572D02*
X88239271Y92309429D01*
X88239271Y92652286D02*
X88196414Y92695143D01*
X88196414Y92695143D02*
X88153557Y92780857D01*
X88153557Y92780857D02*
X88153557Y92995143D01*
X88153557Y92995143D02*
X88196414Y93080857D01*
X88196414Y93080857D02*
X88239271Y93123715D01*
X88239271Y93123715D02*
X88324985Y93166572D01*
X88324985Y93166572D02*
X88410700Y93166572D01*
X88410700Y93166572D02*
X88539271Y93123715D01*
X88539271Y93123715D02*
X89053557Y92609429D01*
X89053557Y92609429D02*
X89053557Y93166572D01*
X88453557Y93938000D02*
X89053557Y93938000D01*
X88110700Y93723715D02*
X88753557Y93509429D01*
X88753557Y93509429D02*
X88753557Y94066572D01*
X17221428Y14477158D02*
X17178571Y14434300D01*
X17178571Y14434300D02*
X17049999Y14391443D01*
X17049999Y14391443D02*
X16964285Y14391443D01*
X16964285Y14391443D02*
X16835714Y14434300D01*
X16835714Y14434300D02*
X16749999Y14520015D01*
X16749999Y14520015D02*
X16707142Y14605729D01*
X16707142Y14605729D02*
X16664285Y14777158D01*
X16664285Y14777158D02*
X16664285Y14905729D01*
X16664285Y14905729D02*
X16707142Y15077158D01*
X16707142Y15077158D02*
X16749999Y15162872D01*
X16749999Y15162872D02*
X16835714Y15248586D01*
X16835714Y15248586D02*
X16964285Y15291443D01*
X16964285Y15291443D02*
X17049999Y15291443D01*
X17049999Y15291443D02*
X17178571Y15248586D01*
X17178571Y15248586D02*
X17221428Y15205729D01*
X18035714Y15291443D02*
X17607142Y15291443D01*
X17607142Y15291443D02*
X17564285Y14862872D01*
X17564285Y14862872D02*
X17607142Y14905729D01*
X17607142Y14905729D02*
X17692857Y14948586D01*
X17692857Y14948586D02*
X17907142Y14948586D01*
X17907142Y14948586D02*
X17992857Y14905729D01*
X17992857Y14905729D02*
X18035714Y14862872D01*
X18035714Y14862872D02*
X18078571Y14777158D01*
X18078571Y14777158D02*
X18078571Y14562872D01*
X18078571Y14562872D02*
X18035714Y14477158D01*
X18035714Y14477158D02*
X17992857Y14434300D01*
X17992857Y14434300D02*
X17907142Y14391443D01*
X17907142Y14391443D02*
X17692857Y14391443D01*
X17692857Y14391443D02*
X17607142Y14434300D01*
X17607142Y14434300D02*
X17564285Y14477158D01*
X18850000Y14991443D02*
X18850000Y14391443D01*
X18635714Y15334300D02*
X18421428Y14691443D01*
X18421428Y14691443D02*
X18978571Y14691443D01*
X78421428Y90107158D02*
X78378571Y90064300D01*
X78378571Y90064300D02*
X78249999Y90021443D01*
X78249999Y90021443D02*
X78164285Y90021443D01*
X78164285Y90021443D02*
X78035714Y90064300D01*
X78035714Y90064300D02*
X77949999Y90150015D01*
X77949999Y90150015D02*
X77907142Y90235729D01*
X77907142Y90235729D02*
X77864285Y90407158D01*
X77864285Y90407158D02*
X77864285Y90535729D01*
X77864285Y90535729D02*
X77907142Y90707158D01*
X77907142Y90707158D02*
X77949999Y90792872D01*
X77949999Y90792872D02*
X78035714Y90878586D01*
X78035714Y90878586D02*
X78164285Y90921443D01*
X78164285Y90921443D02*
X78249999Y90921443D01*
X78249999Y90921443D02*
X78378571Y90878586D01*
X78378571Y90878586D02*
X78421428Y90835729D01*
X78764285Y90835729D02*
X78807142Y90878586D01*
X78807142Y90878586D02*
X78892857Y90921443D01*
X78892857Y90921443D02*
X79107142Y90921443D01*
X79107142Y90921443D02*
X79192857Y90878586D01*
X79192857Y90878586D02*
X79235714Y90835729D01*
X79235714Y90835729D02*
X79278571Y90750015D01*
X79278571Y90750015D02*
X79278571Y90664300D01*
X79278571Y90664300D02*
X79235714Y90535729D01*
X79235714Y90535729D02*
X78721428Y90021443D01*
X78721428Y90021443D02*
X79278571Y90021443D01*
X79707142Y90021443D02*
X79878571Y90021443D01*
X79878571Y90021443D02*
X79964285Y90064300D01*
X79964285Y90064300D02*
X80007142Y90107158D01*
X80007142Y90107158D02*
X80092857Y90235729D01*
X80092857Y90235729D02*
X80135714Y90407158D01*
X80135714Y90407158D02*
X80135714Y90750015D01*
X80135714Y90750015D02*
X80092857Y90835729D01*
X80092857Y90835729D02*
X80050000Y90878586D01*
X80050000Y90878586D02*
X79964285Y90921443D01*
X79964285Y90921443D02*
X79792857Y90921443D01*
X79792857Y90921443D02*
X79707142Y90878586D01*
X79707142Y90878586D02*
X79664285Y90835729D01*
X79664285Y90835729D02*
X79621428Y90750015D01*
X79621428Y90750015D02*
X79621428Y90535729D01*
X79621428Y90535729D02*
X79664285Y90450015D01*
X79664285Y90450015D02*
X79707142Y90407158D01*
X79707142Y90407158D02*
X79792857Y90364300D01*
X79792857Y90364300D02*
X79964285Y90364300D01*
X79964285Y90364300D02*
X80050000Y90407158D01*
X80050000Y90407158D02*
X80092857Y90450015D01*
X80092857Y90450015D02*
X80135714Y90535729D01*
%TO.C,D4*%
D13*
X35570000Y63130000D02*
X30760000Y63130000D01*
X30760000Y58880000D02*
X35570000Y58880000D01*
X30760000Y58880000D02*
X30760000Y63130000D01*
%TO.C,C57*%
X96700000Y46710000D02*
X88635000Y46710000D01*
X88635000Y42190000D02*
X96700000Y42190000D01*
X88635000Y46710000D02*
X88635000Y42190000D01*
%TO.C,C59*%
X96700000Y35710000D02*
X88635000Y35710000D01*
X88635000Y31190000D02*
X96700000Y31190000D01*
X88635000Y35710000D02*
X88635000Y31190000D01*
%TO.C,C58*%
X96700000Y41210000D02*
X88635000Y41210000D01*
X88635000Y36690000D02*
X96700000Y36690000D01*
X88635000Y41210000D02*
X88635000Y36690000D01*
%TO.C,C4*%
X42915000Y83842164D02*
X42915000Y84057836D01*
X43635000Y83842164D02*
X43635000Y84057836D01*
%TO.C,C5*%
X59290000Y83867164D02*
X59290000Y84082836D01*
X60010000Y83867164D02*
X60010000Y84082836D01*
%TO.C,C41*%
X30518748Y70055000D02*
X31041252Y70055000D01*
X30518748Y68585000D02*
X31041252Y68585000D01*
%TO.C,C60*%
X87878748Y27955000D02*
X88401252Y27955000D01*
X87878748Y26485000D02*
X88401252Y26485000D01*
%TO.C,C2*%
X43965000Y83107836D02*
X43965000Y82892164D01*
X44685000Y83107836D02*
X44685000Y82892164D01*
%TO.C,J1*%
X94130000Y71430000D02*
X95400000Y71430000D01*
X94130000Y70160000D02*
X94130000Y71430000D01*
X96477358Y68050000D02*
X96790000Y68050000D01*
X96477358Y67190000D02*
X96790000Y67190000D01*
X96477358Y65510000D02*
X96790000Y65510000D01*
X96477358Y64650000D02*
X96790000Y64650000D01*
X96477358Y62970000D02*
X96790000Y62970000D01*
X96477358Y62110000D02*
X96790000Y62110000D01*
X96477358Y60430000D02*
X96790000Y60430000D01*
X96477358Y59570000D02*
X96790000Y59570000D01*
X96477358Y57890000D02*
X96790000Y57890000D01*
X96477358Y57030000D02*
X96790000Y57030000D01*
X96560000Y70590000D02*
X96790000Y70590000D01*
X96560000Y69730000D02*
X96790000Y69730000D01*
X96790000Y68890000D02*
X99550000Y68890000D01*
X96790000Y66350000D02*
X99550000Y66350000D01*
X96790000Y63810000D02*
X99550000Y63810000D01*
X96790000Y61270000D02*
X99550000Y61270000D01*
X96790000Y58730000D02*
X99550000Y58730000D01*
X99550000Y68050000D02*
X105550000Y68050000D01*
X99550000Y65510000D02*
X105550000Y65510000D01*
X99550000Y62970000D02*
X105550000Y62970000D01*
X99550000Y60430000D02*
X105550000Y60430000D01*
X99550000Y57890000D02*
X105550000Y57890000D01*
X105550000Y68050000D02*
X105550000Y67190000D01*
X105550000Y67190000D02*
X99550000Y67190000D01*
X105550000Y65510000D02*
X105550000Y64650000D01*
X105550000Y64650000D02*
X99550000Y64650000D01*
X105550000Y62970000D02*
X105550000Y62110000D01*
X105550000Y62110000D02*
X99550000Y62110000D01*
X105550000Y60430000D02*
X105550000Y59570000D01*
X105550000Y59570000D02*
X99550000Y59570000D01*
X105550000Y57890000D02*
X105550000Y57030000D01*
X105550000Y57030000D02*
X99550000Y57030000D01*
X96790000Y71540000D02*
X99550000Y71540000D01*
X99550000Y56080000D01*
X96790000Y56080000D01*
X96790000Y71540000D01*
X99550000Y70590000D02*
X105550000Y70590000D01*
X105550000Y69730000D01*
X99550000Y69730000D01*
X99550000Y70590000D01*
G36*
X99550000Y70590000D02*
G01*
X105550000Y70590000D01*
X105550000Y69730000D01*
X99550000Y69730000D01*
X99550000Y70590000D01*
G37*
%TO.C,C30*%
X75140000Y88592164D02*
X75140000Y88807836D01*
X75860000Y88592164D02*
X75860000Y88807836D01*
%TO.C,C9*%
X84570000Y24687836D02*
X84570000Y24472164D01*
X85290000Y24687836D02*
X85290000Y24472164D01*
%TO.C,C33*%
X12708748Y81590000D02*
X14131252Y81590000D01*
X12708748Y79770000D02*
X14131252Y79770000D01*
%TO.C,R40*%
X69977500Y80017742D02*
X69977500Y80492258D01*
X71022500Y80017742D02*
X71022500Y80492258D01*
%TO.C,U6*%
X83427500Y88180000D02*
X85247500Y88180000D01*
X83427500Y88130000D02*
X83427500Y88180000D01*
X83427500Y85060000D02*
X83427500Y85110000D01*
X85247500Y88180000D02*
X85247500Y88130000D01*
X85247500Y85110000D02*
X85247500Y85060000D01*
X85247500Y85060000D02*
X83427500Y85060000D01*
X85787500Y85110000D02*
X86027500Y84780000D01*
X85547500Y84780000D01*
X85787500Y85110000D01*
G36*
X86027500Y84780000D02*
G01*
X85547500Y84780000D01*
X85787500Y85110000D01*
X86027500Y84780000D01*
G37*
%TO.C,L4*%
X87590000Y111237221D02*
X87590000Y111562779D01*
X88610000Y111237221D02*
X88610000Y111562779D01*
%TO.C,R5*%
X90162742Y60542500D02*
X90637258Y60542500D01*
X90162742Y59497500D02*
X90637258Y59497500D01*
%TO.C,C36*%
X42875000Y127238748D02*
X42875000Y127761252D01*
X44345000Y127238748D02*
X44345000Y127761252D01*
%TO.C,MP1*%
X22400000Y9620000D02*
X22400000Y28380000D01*
X25670000Y33225000D02*
X28330000Y33225000D01*
X25670000Y4775000D02*
X28330000Y4775000D01*
X26070000Y27570000D02*
X27000000Y28500000D01*
X26070000Y10430000D02*
X26070000Y27570000D01*
X27000000Y28500000D02*
X28330000Y28500000D01*
X27000000Y9500000D02*
X26070000Y10430000D01*
X28330000Y9500000D02*
X27000000Y9500000D01*
%TO.C,R57*%
X86637258Y11022500D02*
X86162742Y11022500D01*
X86637258Y9977500D02*
X86162742Y9977500D01*
%TO.C,C49*%
X60397836Y121830000D02*
X60182164Y121830000D01*
X60397836Y121110000D02*
X60182164Y121110000D01*
%TO.C,U4*%
X59890000Y117430000D02*
X60340000Y117430000D01*
X59890000Y105010000D02*
X59890000Y117430000D01*
X59890000Y105010000D02*
X60340000Y105010000D01*
X68260000Y117430000D02*
X69940000Y117430000D01*
X68260000Y105010000D02*
X69940000Y105010000D01*
X75660000Y117430000D02*
X76110000Y117430000D01*
X75660000Y105010000D02*
X76110000Y105010000D01*
X76110000Y105010000D02*
X76110000Y117430000D01*
X60340000Y104520000D02*
X60010000Y104280000D01*
X60010000Y104760000D01*
X60340000Y104520000D01*
G36*
X60340000Y104520000D02*
G01*
X60010000Y104280000D01*
X60010000Y104760000D01*
X60340000Y104520000D01*
G37*
%TO.C,C39*%
X25146252Y76390000D02*
X23723748Y76390000D01*
X25146252Y73670000D02*
X23723748Y73670000D01*
%TO.C,R33*%
X82287500Y82667258D02*
X82287500Y82192742D01*
X83332500Y82667258D02*
X83332500Y82192742D01*
%TO.C,U1*%
X47640000Y87330000D02*
X48090000Y87330000D01*
X47640000Y86880000D02*
X47640000Y87330000D01*
X47640000Y80110000D02*
X47640000Y80560000D01*
X48090000Y80110000D02*
X47640000Y80110000D01*
X54410000Y87330000D02*
X54860000Y87330000D01*
X54860000Y87330000D02*
X54860000Y86880000D01*
X54860000Y80560000D02*
X54860000Y80110000D01*
X54860000Y80110000D02*
X54410000Y80110000D01*
X47000000Y86880000D02*
X46660000Y87350000D01*
X47340000Y87350000D01*
X47000000Y86880000D01*
G36*
X47000000Y86880000D02*
G01*
X46660000Y87350000D01*
X47340000Y87350000D01*
X47000000Y86880000D01*
G37*
%TO.C,C38*%
X38515000Y113378748D02*
X38515000Y113901252D01*
X39985000Y113378748D02*
X39985000Y113901252D01*
%TO.C,C31*%
X4261252Y94335000D02*
X3738748Y94335000D01*
X4261252Y92865000D02*
X3738748Y92865000D01*
%TO.C,R45*%
X22827500Y62067742D02*
X22827500Y62542258D01*
X23872500Y62067742D02*
X23872500Y62542258D01*
%TO.C,R55*%
X70210000Y27946359D02*
X70210000Y28253641D01*
X70970000Y27946359D02*
X70970000Y28253641D01*
%TO.C,C27*%
X75490000Y92289420D02*
X75490000Y92570580D01*
X76510000Y92289420D02*
X76510000Y92570580D01*
%TO.C,R46*%
X22827500Y66142258D02*
X22827500Y65667742D01*
X23872500Y66142258D02*
X23872500Y65667742D01*
%TO.C,C32*%
X4311252Y80890000D02*
X2888748Y80890000D01*
X4311252Y79070000D02*
X2888748Y79070000D01*
%TO.C,C34*%
X30465000Y114038748D02*
X30465000Y114561252D01*
X31935000Y114038748D02*
X31935000Y114561252D01*
%TO.C,R41*%
X10977500Y98337258D02*
X10977500Y97862742D01*
X12022500Y98337258D02*
X12022500Y97862742D01*
%TO.C,R25*%
X93877500Y93198258D02*
X93877500Y92723742D01*
X94922500Y93198258D02*
X94922500Y92723742D01*
%TO.C,C46*%
X26209420Y55015000D02*
X26490580Y55015000D01*
X26209420Y53995000D02*
X26490580Y53995000D01*
%TO.C,JP1*%
X78755000Y71000000D02*
X78755000Y68240000D01*
X81405000Y71000000D02*
X78755000Y71000000D01*
X81405000Y71000000D02*
X81405000Y68240000D01*
X81405000Y68240000D02*
X78755000Y68240000D01*
X82675000Y71000000D02*
X84055000Y71000000D01*
X84055000Y71000000D02*
X84055000Y69620000D01*
%TO.C,R56*%
X68810000Y27946359D02*
X68810000Y28253641D01*
X69570000Y27946359D02*
X69570000Y28253641D01*
%TO.C,R42*%
X33537258Y110022500D02*
X33062742Y110022500D01*
X33537258Y108977500D02*
X33062742Y108977500D01*
%TO.C,C25*%
X69990000Y93039420D02*
X69990000Y93320580D01*
X71010000Y93039420D02*
X71010000Y93320580D01*
%TO.C,C42*%
X32115000Y65966252D02*
X32115000Y65443748D01*
X33585000Y65966252D02*
X33585000Y65443748D01*
%TO.C,R50*%
X86947936Y105135000D02*
X87402064Y105135000D01*
X86947936Y103665000D02*
X87402064Y103665000D01*
%TO.C,R37*%
X65762742Y83702500D02*
X66237258Y83702500D01*
X65762742Y82657500D02*
X66237258Y82657500D01*
%TO.C,R2*%
X89077500Y70682742D02*
X89077500Y71157258D01*
X90122500Y70682742D02*
X90122500Y71157258D01*
%TO.C,R47*%
X24827500Y58042258D02*
X24827500Y57567742D01*
X25872500Y58042258D02*
X25872500Y57567742D01*
%TO.C,J2*%
X14540000Y116125000D02*
X14540000Y126230000D01*
X16860000Y116125000D02*
X16860000Y126230000D01*
X19140000Y116125000D02*
X19140000Y126230000D01*
X21460000Y116125000D02*
X21460000Y126230000D01*
%TO.C,R58*%
X91237258Y12822500D02*
X90762742Y12822500D01*
X91237258Y11777500D02*
X90762742Y11777500D01*
%TO.C,C26*%
X71640000Y92552164D02*
X71640000Y92767836D01*
X72360000Y92552164D02*
X72360000Y92767836D01*
%TO.C,J4*%
X97390000Y90350000D02*
X95690000Y90350000D01*
X97390000Y81010000D02*
X95690000Y81010000D01*
%TO.C,R49*%
X23412742Y70327500D02*
X23887258Y70327500D01*
X23412742Y69282500D02*
X23887258Y69282500D01*
%TO.C,C52*%
X88467164Y108185000D02*
X88682836Y108185000D01*
X88467164Y107465000D02*
X88682836Y107465000D01*
%TO.C,C61*%
X85860000Y24687836D02*
X85860000Y24472164D01*
X86580000Y24687836D02*
X86580000Y24472164D01*
%TO.C,C44*%
X28611252Y49130000D02*
X27188748Y49130000D01*
X28611252Y47310000D02*
X27188748Y47310000D01*
%TO.C,C3*%
X58265000Y83107836D02*
X58265000Y82892164D01*
X58985000Y83107836D02*
X58985000Y82892164D01*
%TO.C,C1*%
X40515000Y82238748D02*
X40515000Y82761252D01*
X41985000Y82238748D02*
X41985000Y82761252D01*
%TO.C,C6*%
X86827836Y69980000D02*
X86612164Y69980000D01*
X86827836Y69260000D02*
X86612164Y69260000D01*
%TO.C,C47*%
X26840000Y57945580D02*
X26840000Y57664420D01*
X27860000Y57945580D02*
X27860000Y57664420D01*
%TO.C,U3*%
X25140000Y66160000D02*
X25235000Y66160000D01*
X25140000Y65835000D02*
X25140000Y66160000D01*
X25140000Y62040000D02*
X25140000Y62365000D01*
X25235000Y62040000D02*
X25140000Y62040000D01*
X30165000Y66160000D02*
X30260000Y66160000D01*
X30260000Y66160000D02*
X30260000Y65835000D01*
X30260000Y62365000D02*
X30260000Y62040000D01*
X30260000Y62040000D02*
X30165000Y62040000D01*
X30170000Y66700000D02*
X30500000Y66940000D01*
X30500000Y66460000D01*
X30170000Y66700000D01*
G36*
X30500000Y66460000D02*
G01*
X30170000Y66700000D01*
X30500000Y66940000D01*
X30500000Y66460000D01*
G37*
%TO.C,C40*%
X32258748Y76410000D02*
X33681252Y76410000D01*
X32258748Y73690000D02*
X33681252Y73690000D01*
%TO.C,R35*%
X66812258Y92702500D02*
X66337742Y92702500D01*
X66812258Y91657500D02*
X66337742Y91657500D01*
%TO.C,C8*%
X83270000Y24687836D02*
X83270000Y24472164D01*
X83990000Y24687836D02*
X83990000Y24472164D01*
%TO.C,Q1*%
X6015000Y100515000D02*
X6015000Y97305000D01*
X6015000Y100515000D02*
X6385000Y100515000D01*
X9555000Y100515000D02*
X9185000Y100515000D01*
X9555000Y96975000D02*
X9185000Y96975000D01*
X9555000Y96975000D02*
X9555000Y100515000D01*
X6335000Y96985000D02*
X6335000Y96505000D01*
X5855000Y96985000D01*
X6335000Y96985000D01*
G36*
X6335000Y96505000D02*
G01*
X5855000Y96985000D01*
X6335000Y96985000D01*
X6335000Y96505000D01*
G37*
%TO.C,C48*%
X58265000Y124958748D02*
X58265000Y125481252D01*
X59735000Y124958748D02*
X59735000Y125481252D01*
%TO.C,C7*%
X2440000Y70295563D02*
X2440000Y60640000D01*
X2440000Y60640000D02*
X6290000Y60640000D01*
X3504437Y71360000D02*
X2440000Y70295563D01*
X3504437Y71360000D02*
X6290000Y71360000D01*
X10560000Y72850000D02*
X10560000Y71600000D01*
X11185000Y72225000D02*
X9935000Y72225000D01*
X12095563Y71360000D02*
X9310000Y71360000D01*
X12095563Y71360000D02*
X13160000Y70295563D01*
X13160000Y70295563D02*
X13160000Y60640000D01*
X13160000Y60640000D02*
X9310000Y60640000D01*
%TO.C,C37*%
X35740000Y108411252D02*
X35740000Y106988748D01*
X38460000Y108411252D02*
X38460000Y106988748D01*
%TO.C,R39*%
X71727500Y80017742D02*
X71727500Y80492258D01*
X72772500Y80017742D02*
X72772500Y80492258D01*
%TO.C,R43*%
X32977500Y106562742D02*
X32977500Y107037258D01*
X34022500Y106562742D02*
X34022500Y107037258D01*
%TO.C,R34*%
X82287500Y78692742D02*
X82287500Y79167258D01*
X83332500Y78692742D02*
X83332500Y79167258D01*
%TO.C,C55*%
X14140000Y11692164D02*
X14140000Y11907836D01*
X14860000Y11692164D02*
X14860000Y11907836D01*
%TO.C,C50*%
X60090580Y120500000D02*
X59809420Y120500000D01*
X60090580Y119480000D02*
X59809420Y119480000D01*
%TO.C,C23*%
X93490000Y77931252D02*
X93490000Y76508748D01*
X95310000Y77931252D02*
X95310000Y76508748D01*
%TO.C,L2*%
X35200000Y126500000D02*
X35200000Y126050000D01*
X35200000Y126500000D02*
X41400000Y126500000D01*
X35200000Y120300000D02*
X35200000Y120750000D01*
X41400000Y126500000D02*
X41400000Y126050000D01*
X41400000Y120300000D02*
X35200000Y120300000D01*
X41400000Y120300000D02*
X41400000Y120750000D01*
%TO.C,J6*%
X4440000Y24460000D02*
X4440000Y30940000D01*
X4440000Y18890000D02*
X4440000Y22140000D01*
X6510000Y18890000D02*
X4440000Y18890000D01*
X13920000Y18320000D02*
X13220000Y18320000D01*
X15640000Y33110000D02*
X5160000Y33110000D01*
X16360000Y24460000D02*
X16360000Y30940000D01*
X16360000Y18890000D02*
X14280000Y18890000D01*
X16360000Y18890000D02*
X16360000Y22140000D01*
%TO.C,L3*%
X29960000Y57395000D02*
X36940000Y57395000D01*
X29960000Y50615000D02*
X29960000Y57395000D01*
X36940000Y57395000D02*
X36940000Y50615000D01*
X36940000Y50615000D02*
X29960000Y50615000D01*
%TO.C,F1*%
X4130000Y119900000D02*
X4130000Y103700000D01*
X4130000Y103700000D02*
X11070000Y103700000D01*
X5600000Y110200000D02*
X5600000Y113400000D01*
X7600000Y112550000D02*
X7600000Y111050000D01*
X9600000Y113400000D02*
X9600000Y110200000D01*
X11070000Y119900000D02*
X4130000Y119900000D01*
X11070000Y103700000D02*
X11070000Y119900000D01*
%TO.C,C53*%
X14392164Y14860000D02*
X14607836Y14860000D01*
X14392164Y14140000D02*
X14607836Y14140000D01*
%TO.C,C35*%
X42855000Y119411252D02*
X42855000Y118888748D01*
X44325000Y119411252D02*
X44325000Y118888748D01*
%TO.C,D3*%
X34590000Y119050000D02*
X34590000Y115750000D01*
X34590000Y119050000D02*
X40100000Y119050000D01*
X34590000Y115750000D02*
X40100000Y115750000D01*
%TO.C,R32*%
X89862742Y84722500D02*
X90337258Y84722500D01*
X89862742Y83677500D02*
X90337258Y83677500D01*
%TO.C,D2*%
D12*
X12900000Y108700000D02*
X12900000Y104500000D01*
X15800000Y108700000D02*
X12900000Y108700000D01*
X15800000Y104500000D02*
X12900000Y104500000D01*
X17700000Y112150000D02*
X17700000Y108700000D01*
X17700000Y101050000D02*
X17700000Y104500000D01*
X28750000Y112150000D02*
X17700000Y112150000D01*
X28750000Y112150000D02*
X28750000Y101050000D01*
X28750000Y101050000D02*
X17700000Y101050000D01*
%TO.C,U7*%
D13*
X68640000Y88852500D02*
X69115000Y88852500D01*
X68640000Y88377500D02*
X68640000Y88852500D01*
X68640000Y84632500D02*
X68640000Y85107500D01*
X69115000Y84632500D02*
X68640000Y84632500D01*
X72385000Y88852500D02*
X72860000Y88852500D01*
X72860000Y88852500D02*
X72860000Y88377500D01*
X72860000Y85107500D02*
X72860000Y84632500D01*
X72860000Y84632500D02*
X72385000Y84632500D01*
X73360000Y85492500D02*
X73690000Y85732500D01*
X73690000Y85252500D01*
X73360000Y85492500D01*
G36*
X73690000Y85252500D02*
G01*
X73360000Y85492500D01*
X73690000Y85732500D01*
X73690000Y85252500D01*
G37*
%TO.C,C51*%
X64411252Y120885000D02*
X63888748Y120885000D01*
X64411252Y119415000D02*
X63888748Y119415000D01*
%TO.C,C43*%
X37888748Y49390000D02*
X39311252Y49390000D01*
X37888748Y47570000D02*
X39311252Y47570000D01*
%TO.C,R3*%
X90137742Y63142500D02*
X90612258Y63142500D01*
X90137742Y62097500D02*
X90612258Y62097500D01*
%TO.C,R54*%
X11385000Y8636359D02*
X11385000Y8943641D01*
X12145000Y8636359D02*
X12145000Y8943641D01*
%TO.C,J5*%
X72700000Y34200000D02*
X72700000Y31400000D01*
X72700000Y16600000D02*
X72700000Y13800000D01*
X72700000Y7000000D02*
X72700000Y3800000D01*
X72700000Y3800000D02*
X79000000Y3800000D01*
X79000000Y34200000D02*
X72700000Y34200000D01*
X82100000Y31000000D02*
X82100000Y32200000D01*
X82100000Y13400000D02*
X82100000Y16200000D01*
X82100000Y5800000D02*
X82100000Y6600000D01*
%TO.C,FB1*%
X54987221Y124760000D02*
X55312779Y124760000D01*
X54987221Y123740000D02*
X55312779Y123740000D01*
%TO.C,R36*%
X66237258Y81952500D02*
X65762742Y81952500D01*
X66237258Y80907500D02*
X65762742Y80907500D01*
%TO.C,J3*%
X91400000Y116320000D02*
X91400000Y108120000D01*
X95000000Y116320000D02*
X95500000Y115820000D01*
X95500000Y115820000D02*
X96000000Y116320000D01*
X99600000Y116320000D02*
X91400000Y116320000D01*
X99600000Y116320000D02*
X99600000Y108120000D01*
X99600000Y108120000D02*
X91400000Y108120000D01*
%TO.C,C56*%
X12705000Y8897836D02*
X12705000Y8682164D01*
X13425000Y8897836D02*
X13425000Y8682164D01*
%TO.C,L1*%
X3700000Y85000000D02*
X3700000Y89000000D01*
X11900000Y85000000D02*
X11900000Y89000000D01*
%TO.C,C45*%
X28611252Y46330000D02*
X27188748Y46330000D01*
X28611252Y44510000D02*
X27188748Y44510000D01*
%TO.C,R48*%
X25927500Y70367742D02*
X25927500Y70842258D01*
X26972500Y70367742D02*
X26972500Y70842258D01*
%TO.C,R29*%
X89787258Y89504500D02*
X89312742Y89504500D01*
X89787258Y88459500D02*
X89312742Y88459500D01*
%TO.C,U9*%
X11915000Y13710000D02*
X11125000Y13710000D01*
X11915000Y10890000D02*
X10915000Y10890000D01*
X10795000Y13710000D02*
X10515000Y13710000D01*
X10795000Y13990000D01*
X10795000Y13710000D01*
G36*
X10795000Y13710000D02*
G01*
X10515000Y13710000D01*
X10795000Y13990000D01*
X10795000Y13710000D01*
G37*
%TO.C,U2*%
X33890000Y113960000D02*
X35710000Y113960000D01*
X33890000Y113910000D02*
X33890000Y113960000D01*
X33890000Y110840000D02*
X33890000Y110890000D01*
X35710000Y113960000D02*
X35710000Y113910000D01*
X35710000Y110890000D02*
X35710000Y110840000D01*
X35710000Y110840000D02*
X33890000Y110840000D01*
X33350000Y113910000D02*
X33110000Y114240000D01*
X33590000Y114240000D01*
X33350000Y113910000D01*
G36*
X33350000Y113910000D02*
G01*
X33110000Y114240000D01*
X33590000Y114240000D01*
X33350000Y113910000D01*
G37*
%TO.C,R1*%
X90637258Y68142500D02*
X90162742Y68142500D01*
X90637258Y67097500D02*
X90162742Y67097500D01*
%TO.C,D5*%
D14*
X90200000Y110660000D02*
G75*
G02*
X90100000Y110660000I-50000J0D01*
G01*
X90100000Y110660000D02*
G75*
G02*
X90200000Y110660000I50000J0D01*
G01*
%TO.C,D1*%
D13*
X8890000Y94900000D02*
X8890000Y92900000D01*
X8890000Y94900000D02*
X12750000Y94900000D01*
X8890000Y92900000D02*
X12750000Y92900000D01*
%TO.C,C28*%
X74140000Y91814164D02*
X74140000Y92029836D01*
X74860000Y91814164D02*
X74860000Y92029836D01*
%TO.C,R44*%
X22827500Y58467742D02*
X22827500Y58942258D01*
X23872500Y58467742D02*
X23872500Y58942258D01*
%TO.C,R38*%
X74227500Y82942742D02*
X74227500Y83417258D01*
X75272500Y82942742D02*
X75272500Y83417258D01*
%TO.C,C24*%
X89445000Y92780164D02*
X89445000Y92995836D01*
X90165000Y92780164D02*
X90165000Y92995836D01*
%TO.C,C54*%
X16740000Y13307836D02*
X16740000Y13092164D01*
X17460000Y13307836D02*
X17460000Y13092164D01*
%TO.C,C29*%
X76490000Y89039420D02*
X76490000Y89320580D01*
X77510000Y89039420D02*
X77510000Y89320580D01*
%TD*%
M02*
