M48
; DRILL file KiCad 10.0.3 date 2026-08-30T15:43:13
; FORMAT={-:-/ absolute / metric / decimal}
; #@! TF.CreationDate,2026-08-30T15:43:13-07:00
; #@! TF.GenerationSoftware,Kicad,Pcbnew,10.0.3
; #@! TF.FileFunction,Plated,1,4,PTH
FMAT,2
METRIC
; #@! TA.AperFunction,Plated,PTH,ViaDrill
T1C0.300
; #@! TA.AperFunction,Plated,PTH,ComponentDrill
T2C0.300
; #@! TA.AperFunction,Plated,PTH,ComponentDrill
T3C0.500
; #@! TA.AperFunction,Plated,PTH,ComponentDrill
T4C0.600
; #@! TA.AperFunction,Plated,PTH,ComponentDrill
T5C1.000
; #@! TA.AperFunction,Plated,PTH,ComponentDrill
T6C1.150
; #@! TA.AperFunction,Plated,PTH,ComponentDrill
T7C1.500
; #@! TA.AperFunction,Plated,PTH,ComponentDrill
T8C1.700
; #@! TA.AperFunction,Plated,PTH,ComponentDrill
T9C1.780
; #@! TA.AperFunction,Plated,PTH,ComponentDrill
T10C3.200
%
G90
G05
T1
X1.6Y93.6
X1.9Y116.8
X2.0Y105.3
X2.0Y90.2
X2.0Y87.7
X2.09Y78.28
X2.1Y112.5
X2.1Y99.6
X2.1Y84.7
X2.1Y81.5
X2.4Y121.0
X2.4Y74.9
X2.5Y72.0
X3.05Y95.2
X3.1Y58.4
X3.2Y20.6
X3.2Y10.4
X3.3Y16.0
X3.4Y35.2
X3.4Y28.8
X3.5Y25.9
X3.6Y54.2
X3.6Y48.5
X3.6Y41.3
X4.0Y63.7
X4.1Y97.6
X4.1Y68.0
X4.2Y101.3
X4.2Y13.4
X4.9Y111.8
X5.6Y32.1
X5.7Y15.9
X5.8Y63.1
X5.8Y61.8
X5.8Y60.5
X5.8Y23.3
X5.9Y10.7
X6.2Y87.0
X6.35Y75.91
X6.35Y74.91
X6.35Y74.01
X6.8Y57.3
X6.8Y44.4
X7.0Y38.7
X7.3Y26.7
X7.35Y75.91
X7.35Y74.91
X7.35Y74.01
X7.4Y120.9
X7.5Y51.4
X8.25Y75.91
X8.25Y74.91
X8.25Y74.01
X8.4Y111.4
X9.0Y128.1
X9.15Y75.91
X9.15Y74.91
X9.15Y74.01
X9.3Y124.6
X9.4Y9.1
X9.4Y2.1
X9.573Y12.873
X9.8Y63.0
X9.8Y61.9
X9.8Y60.6
X9.9Y98.9
X10.2Y47.8
X10.2Y27.0
X10.3Y95.9
X10.4Y86.9
X10.5Y122.0
X10.5Y36.1
X10.9Y57.5
X10.9Y41.1
X10.9Y15.9
X11.1Y94.0
X11.5Y100.0
X11.5Y67.2
X11.6Y62.5
X11.9Y53.0
X12.0Y110.7
X12.3Y17.9
X12.6Y127.6
X12.6Y26.9
X12.7Y98.925
X12.7Y10.6
X12.8Y7.2
X13.0Y12.3
X13.1Y120.3
X13.3Y123.3
X13.7Y91.3
X13.9Y85.6
X14.0Y15.6
X14.2Y8.3
X14.4Y44.2
X14.8Y97.4
X14.895Y79.105
X14.92Y82.28
X15.0Y49.2
X15.0Y23.3
X15.2Y38.3
X15.2Y4.9
X15.3Y102.7
X15.3Y55.9
X15.4Y71.2
X15.5Y64.1
X15.8Y10.4
X15.9Y14.5
X16.0Y88.9
X16.02Y80.68
X16.12Y12.72
X16.2Y122.2
X16.4Y110.3
X16.5Y82.3
X16.8Y8.3
X17.5Y93.6
X17.8Y69.6
X18.3Y16.9
X18.3Y12.7
X18.38Y106.52
X18.4Y105.67
X18.42Y107.37
X18.6Y85.9
X18.7Y40.9
X18.8Y114.8
X18.9Y1.8
X19.1Y66.9
X19.1Y31.2
X19.5Y98.2
X19.5Y60.1
X19.5Y53.1
X19.5Y11.1
X19.6Y25.6
X19.9Y44.9
X19.9Y6.5
X20.0Y124.0
X20.1Y90.5
X20.3Y119.5
X20.3Y116.4
X20.3Y113.3
X20.6Y19.4
X21.1Y71.8
X21.1Y36.9
X21.2Y69.8
X21.48Y111.91
X21.585Y76.13
X21.585Y75.03
X21.585Y74.03
X21.6Y68.3
X21.8Y116.4
X21.8Y114.7
X21.8Y94.7
X21.84Y101.1
X22.3Y65.1
X22.3Y63.1
X22.3Y12.9
X22.35Y111.89
X22.76Y101.12
X23.185Y72.63
X23.3Y87.6
X23.35Y56.55
X23.4Y121.4
X23.44Y111.85
X23.5Y125.4
X23.56Y101.12
X23.6Y117.1
X23.79Y34.7
X23.8Y128.5
X23.8Y3.5
X24.0Y113.5
X24.485Y75.73
X24.485Y74.23
X24.6Y68.3
X24.6Y65.1
X24.6Y63.0
X24.9Y60.0
X25.0Y41.3
X25.05Y48.715
X25.05Y47.715
X25.05Y46.015
X25.05Y44.915
X25.2Y13.1
X25.27Y71.43
X25.3Y98.5
X25.3Y92.0
X25.8Y23.7
X26.0Y127.0
X26.0Y59.8
X26.2Y123.4
X26.3Y119.2
X26.45Y100.37
X26.5Y115.2
X26.8Y88.8
X26.9Y1.9
X27.1Y79.0
X27.1Y78.2
X27.44Y100.38
X27.5Y51.2
X27.8Y37.3
X28.1Y79.0
X28.1Y78.2
X28.2Y18.5
X28.335Y59.965
X28.4Y113.3
X28.4Y13.1
X28.5Y96.1
X28.56Y100.38
X28.7Y54.5
X28.8Y56.9
X28.9Y125.5
X29.0Y121.6
X29.0Y117.1
X29.1Y79.0
X29.1Y78.2
X29.3Y128.4
X29.5Y107.6
X29.5Y106.4
X29.5Y105.2
X30.0Y3.5
X30.1Y79.0
X30.1Y78.2
X30.19Y34.7
X30.2Y91.5
X30.5Y26.1
X30.6Y41.0
X31.0Y64.3
X31.6Y112.0
X31.67Y70.86
X31.7Y22.5
X31.74Y67.88
X31.8Y111.0
X31.9Y100.9
X31.9Y13.1
X32.05Y105.95
X32.2Y53.9
X32.3Y46.0
X32.3Y45.3
X32.3Y44.6
X32.9Y96.9
X33.02Y75.65
X33.02Y74.25
X33.09Y71.97
X33.13Y69.315
X33.2Y128.0
X33.2Y46.0
X33.2Y45.3
X33.2Y44.6
X33.39Y104.74
X33.4Y18.2
X33.5Y36.4
X33.6Y1.9
X34.1Y46.0
X34.1Y45.3
X34.1Y44.6
X34.3Y78.6
X34.5Y68.6
X34.6Y63.9
X34.8Y31.6
X35.0Y106.0
X35.0Y46.0
X35.0Y45.3
X35.0Y44.6
X35.1Y84.6
X35.1Y54.0
X35.6Y70.6
X35.7Y5.3
X35.8Y102.3
X35.92Y76.05
X35.92Y75.15
X35.92Y74.05
X36.0Y13.1
X36.3Y66.4
X36.5Y105.0
X36.7Y80.5
X36.9Y23.8
X37.4Y75.4
X37.4Y58.7
X37.4Y40.4
X37.5Y63.4
X37.8Y105.0
X38.0Y8.7
X38.1Y19.6
X38.11Y117.4
X38.3Y124.6
X38.3Y121.7
X38.5Y127.6
X38.6Y2.7
X38.8Y119.6
X38.9Y92.0
X38.9Y63.3
X38.9Y62.3
X38.9Y61.0
X38.9Y59.7
X38.9Y58.7
X39.25Y83.45
X39.5Y54.3
X39.5Y35.1
X39.67Y115.68
X39.7Y13.1
X39.8Y111.2
X39.8Y110.2
X39.8Y109.1
X40.0Y67.2
X40.4Y26.1
X40.7Y114.1
X40.7Y6.6
X40.8Y119.6
X40.8Y72.5
X41.0Y111.2
X41.0Y110.2
X41.0Y109.1
X41.08Y115.59
X41.55Y48.975
X41.55Y47.975
X41.9Y21.9
X42.0Y88.3
X42.2Y117.9
X42.2Y116.9
X42.21Y128.45
X42.4Y96.1
X42.5Y31.2
X43.0Y115.0
X43.0Y77.2
X43.025Y81.5
X43.1Y3.5
X43.2Y18.2
X43.275Y85.6
X43.3Y60.0
X43.5Y102.9
X43.5Y39.8
X43.59Y116.95
X43.6Y124.3
X43.6Y123.3
X43.6Y122.4
X43.7Y49.4
X43.7Y13.1
X43.8Y110.2
X44.1Y55.2
X44.325Y81.55
X44.5Y124.3
X44.5Y123.3
X44.5Y122.4
X45.01Y128.45
X45.1Y90.7
X45.4Y124.3
X45.4Y123.3
X45.4Y122.4
X45.4Y8.2
X45.5Y87.075
X45.5Y84.4
X45.5Y63.8
X45.6Y1.6
X45.8Y68.9
X46.2Y73.3
X46.6Y23.8
X46.7Y88.8
X47.0Y52.4
X47.2Y34.7
X47.3Y5.4
X47.4Y126.8
X47.7Y13.1
X47.9Y20.1
X48.4Y91.6
X48.4Y30.9
X48.8Y60.9
X49.2Y40.2
X49.5Y55.8
X49.5Y25.9
X49.8Y8.4
X49.9Y128.2
X50.1Y1.6
X50.5Y91.32
X50.8Y120.2
X51.1Y71.8
X51.3Y13.1
X51.6Y126.2
X51.6Y4.7
X52.0Y31.9
X52.4Y71.8
X52.6Y22.9
X52.9Y113.9
X52.9Y97.8
X53.0Y109.7
X53.0Y102.9
X53.2Y8.1
X53.9Y2.8
X54.0Y118.1
X54.1Y37.2
X54.5Y66.4
X54.6Y13.1
X54.8Y18.6
X54.83Y91.295
X54.9Y57.1
X55.1Y6.3
X55.2Y96.7
X55.3Y127.4
X55.3Y100.6
X55.375Y73.125
X55.4Y121.7
X55.6Y106.2
X55.7Y60.6
X55.9Y89.7
X56.2Y112.8
X56.2Y1.5
X56.5Y4.4
X56.7Y73.175
X56.7Y23.5
X56.8Y79.3
X57.5Y84.6
X57.9Y117.2
X58.0Y55.2
X58.025Y73.125
X58.1Y12.8
X58.3Y70.2
X58.3Y63.6
X58.35Y119.97
X58.5Y7.1
X58.6Y33.1
X58.625Y81.5
X58.64Y121.47
X59.0Y36.4
X59.1Y19.7
X59.15Y112.22
X59.175Y110.85
X59.2Y91.7
X59.3Y73.125
X59.4Y89.4
X59.4Y25.8
X59.6Y99.2
X59.6Y79.2
X59.65Y85.425
X59.7Y2.8
X60.0Y102.7
X60.3Y75.0
X60.4Y68.4
X60.55Y87.37
X60.55Y86.02
X60.775Y83.5
X60.8Y126.22
X60.8Y5.6
X60.9Y80.9
X61.0Y115.42
X61.2Y95.3
X61.4Y101.2
X61.4Y58.9
X61.7Y12.5
X62.0Y77.5
X62.2Y90.5
X62.2Y22.1
X62.2Y1.5
X62.5Y109.8
X62.8Y4.2
X63.0Y31.5
X63.1Y74.3
X63.3Y96.3
X63.4Y124.2
X63.4Y79.8
X63.7Y88.7
X63.8Y128.0
X63.8Y62.6
X63.9Y54.7
X64.0Y70.6
X64.1Y7.3
X64.2Y36.1
X64.3Y118.9
X65.1Y94.0
X65.1Y18.9
X65.15Y121.75
X65.2Y85.6
X65.2Y26.0
X65.5Y73.7
X65.5Y12.2
X65.75Y90.25
X65.8Y1.8
X65.9Y98.2
X66.0Y78.6
X66.1Y68.2
X66.5Y76.5
X66.7Y5.0
X66.9Y119.1
X66.9Y87.4
X67.1Y113.6
X67.2Y110.3
X67.3Y95.4
X67.6Y107.02
X67.672Y85.492
X67.8Y7.7
X67.9Y126.0
X67.9Y120.7
X67.9Y90.0
X67.9Y20.2
X68.1Y77.3
X68.1Y70.3
X68.3Y22.9
X68.4Y11.6
X68.6Y80.1
X68.7Y93.62
X69.0Y115.8
X69.0Y56.9
X69.1Y81.5
X69.2Y2.5
X69.4Y29.6
X69.6Y60.3
X69.7Y31.7
X69.7Y30.9
X69.9Y97.6
X70.0Y35.6
X70.0Y8.1
X70.0Y7.3
X70.1Y109.5
X70.1Y74.5
X70.1Y38.5
X70.2Y63.2
X70.3Y17.4
X70.4Y68.3
X70.4Y25.4
X70.5Y122.8
X70.5Y95.12
X70.5Y78.22
X70.5Y54.1
X70.5Y31.7
X70.5Y30.9
X70.8Y100.5
X70.8Y8.1
X70.8Y7.3
X70.9Y127.8
X71.1Y90.32
X71.6Y41.8
X71.7Y113.0
X71.7Y57.3
X72.0Y94.22
X72.3Y78.22
X72.7Y108.9
X72.8Y107.02
X73.1Y83.4
X73.2Y97.6
X73.2Y90.3
X73.2Y60.7
X73.5Y70.2
X73.9Y120.4
X74.0Y125.9
X74.01Y85.81
X74.2Y75.3
X74.275Y110.95
X74.4Y36.4
X74.5Y5.7
X74.517Y93.537
X74.6Y53.8
X74.7Y96.0
X74.74Y30.0
X74.79Y26.0
X74.79Y23.6
X74.79Y20.4
X74.79Y17.2
X74.79Y8.4
X74.8Y81.12
X74.8Y1.8
X74.9Y63.3
X75.0Y115.42
X75.0Y107.02
X75.075Y108.375
X75.4Y102.8
X75.4Y90.22
X75.6Y85.82
X75.6Y68.3
X75.6Y32.0
X75.7Y39.6
X76.0Y94.42
X76.05Y112.4
X76.3Y78.0
X76.3Y28.1
X76.3Y24.8
X76.325Y109.225
X76.4Y98.3
X76.5Y56.9
X76.6Y122.9
X76.6Y82.5
X76.7Y128.0
X76.8Y19.3
X76.8Y17.9
X77.1Y43.2
X77.3Y106.5
X77.3Y10.9
X77.3Y2.3
X77.4Y91.22
X77.4Y69.62
X77.5Y14.6
X77.7Y60.2
X77.8Y113.275
X77.8Y85.4
X78.0Y21.9
X78.1Y18.6
X78.2Y80.2
X78.3Y29.6
X78.3Y27.9
X78.4Y110.475
X78.5Y102.8
X78.7Y92.12
X78.7Y88.32
X78.8Y74.4
X78.8Y25.8
X79.1Y116.1
X79.2Y84.0
X79.3Y119.8
X79.59Y13.3
X79.6Y125.5
X79.6Y108.2
X79.6Y53.5
X79.69Y10.0
X79.7Y104.6
X79.7Y94.9
X79.9Y77.6
X79.99Y27.2
X79.99Y24.4
X79.99Y21.2
X79.99Y18.4
X80.0Y98.0
X80.048Y87.322
X80.3Y89.9
X80.3Y1.7
X80.375Y113.35
X80.5Y85.4
X80.7Y56.6
X80.7Y36.7
X80.775Y110.525
X80.8Y82.5
X80.8Y40.7
X81.003Y86.368
X81.8Y84.6
X81.9Y44.5
X82.1Y106.6
X82.4Y91.6
X82.8Y76.82
X82.8Y74.1
X82.8Y62.9
X83.2Y118.1
X83.2Y95.1
X83.5Y113.275
X83.55Y110.525
X83.63Y22.88
X83.7Y123.2
X83.9Y128.1
X84.1Y27.3
X84.1Y26.5
X84.2Y53.2
X84.2Y5.0
X84.3Y98.9
X84.3Y2.0
X84.8Y108.0
X84.8Y15.0
X84.9Y65.9
X84.93Y22.88
X85.0Y50.6
X85.0Y48.5
X85.1Y27.3
X85.1Y26.5
X85.1Y20.4
X85.1Y17.6
X85.3Y101.9
X85.3Y92.5
X85.3Y7.5
X85.7Y59.5
X85.7Y49.5
X85.9Y110.525
X86.0Y113.45
X86.1Y82.6
X86.22Y22.81
X86.5Y64.3
X86.6Y125.8
X86.6Y120.4
X86.6Y50.6
X86.6Y48.5
X86.6Y3.4
X86.7Y79.1
X86.7Y74.5
X86.9Y116.4
X87.0Y86.62
X87.1Y95.7
X87.3Y67.9
X87.3Y49.6
X87.587Y88.982
X88.1Y62.8
X88.1Y50.6
X88.1Y48.5
X88.166Y84.2
X88.4Y99.6
X88.7Y56.6
X88.7Y10.5
X88.9Y77.0
X88.98Y28.86
X89.0Y65.7
X89.05Y113.9
X89.055Y108.955
X89.17Y25.6
X89.3Y90.7
X89.4Y80.9
X89.5Y87.6
X90.0Y7.4
X90.1Y123.1
X90.1Y118.6
X90.15Y110.05
X90.3Y128.1
X90.3Y61.3
X90.6Y24.7
X90.6Y1.8
X90.7Y48.2
X90.9Y53.6
X90.9Y19.5
X90.94Y27.92
X90.94Y26.52
X90.948Y93.368
X91.0Y75.0
X91.1Y106.1
X91.2Y78.9
X91.225Y69.475
X91.4Y16.7
X91.7Y97.5
X91.9Y100.9
X92.2Y28.0
X92.2Y22.0
X92.2Y9.9
X92.4Y57.7
X92.5Y82.05
X92.5Y50.6
X92.6Y89.35
X92.8Y103.6
X92.8Y70.6
X92.8Y69.1
X92.86Y116.96
X92.86Y107.36
X92.86Y65.08
X92.9Y61.3
X94.0Y12.3
X94.3Y74.32
X94.6Y48.1
X94.8Y52.9
X95.0Y29.9
X95.4Y115.1
X95.5Y109.5
X95.5Y25.2
X95.6Y119.7
X95.65Y93.786
X95.8Y19.8
X96.1Y31.23
X96.12Y46.69
X96.16Y42.06
X96.2Y35.52
X96.25Y36.5
X96.8Y88.5
X96.8Y86.4
X96.8Y84.6
X96.8Y82.7
X97.0Y23.6
X97.1Y104.6
X97.1Y101.4
X97.1Y98.3
X97.1Y95.2
X97.1Y9.8
X97.2Y13.5
X97.3Y50.7
X97.3Y27.1
X97.9Y54.4
X97.94Y116.98
X97.94Y107.58
X98.0Y74.2
X98.0Y70.2
X98.1Y78.7
X98.1Y60.0
X98.15Y45.45
X98.15Y44.35
X98.15Y43.25
X98.15Y40.05
X98.15Y39.05
X98.15Y38.05
X98.15Y34.65
X98.15Y33.65
X98.15Y32.65
X98.2Y65.0
X98.3Y112.3
X98.3Y17.5
T2
X25.75Y64.75
X25.75Y63.45
X27.05Y64.75
X27.05Y63.45
X28.35Y64.75
X28.35Y63.45
X29.65Y64.75
X29.65Y63.45
X50.25Y84.72
X50.25Y83.72
X50.25Y82.72
X51.25Y84.72
X51.25Y83.72
X51.25Y82.72
X52.25Y84.72
X52.25Y83.72
X52.25Y82.72
T3
X2.6Y125.0
X2.6Y5.0
X3.303Y126.697
X3.303Y123.303
X3.303Y6.697
X3.303Y3.303
X5.0Y127.4
X5.0Y122.6
X5.0Y7.4
X5.0Y2.6
X6.697Y126.697
X6.697Y123.303
X6.697Y6.697
X6.697Y3.303
X7.4Y125.0
X7.4Y5.0
X92.6Y125.0
X92.6Y5.0
X93.303Y126.697
X93.303Y123.303
X93.303Y6.697
X93.303Y3.303
X95.0Y127.4
X95.0Y122.6
X95.0Y7.4
X95.0Y2.6
X96.697Y126.697
X96.697Y123.303
X96.697Y6.697
X96.697Y3.303
X97.4Y125.0
X97.4Y5.0
T5
X80.135Y69.62
X82.675Y69.62
X95.4Y70.16
X95.4Y67.62
X95.4Y65.08
X95.4Y62.54
X95.4Y60.0
X95.4Y57.46
T6
X15.7Y114.79
X20.3Y114.79
T7
X95.5Y112.22
T8
X92.96Y114.76
X92.96Y109.68
X98.04Y114.76
X98.04Y109.68
T9
X5.9Y116.76
X5.9Y106.84
X9.3Y116.76
X9.3Y106.84
T10
X5.0Y125.0
X5.0Y5.0
X95.0Y125.0
X95.0Y5.0
T4
G00X93.835Y90.0
M15
G01X94.935Y90.0
M16
G05
G00X93.835Y81.36
M15
G01X94.935Y81.36
M16
G05
G00X98.165Y90.0
M15
G01X98.965Y90.0
M16
G05
G00X98.165Y81.36
M15
G01X98.965Y81.36
M16
G05
M30
