%TF.GenerationSoftware,KiCad,Pcbnew,10.0.3*%
%TF.CreationDate,2026-08-30T15:43:09-07:00*%
%TF.ProjectId,farseer,66617273-6565-4722-9e6b-696361645f70,rev?*%
%TF.SameCoordinates,PX2719c40PY92dda80*%
%TF.FileFunction,Copper,L4,Bot*%
%TF.FilePolarity,Positive*%
%FSLAX46Y46*%
G04 Gerber Fmt 4.6, Leading zero omitted, Abs format (unit mm)*
G04 Created by KiCad (PCBNEW 10.0.3) date 2026-08-30 15:43:09*
%MOMM*%
%LPD*%
G01*
G04 APERTURE LIST*
G04 Aperture macros list*
%AMRoundRect*
0 Rectangle with rounded corners*
0 $1 Rounding radius*
0 $2 $3 $4 $5 $6 $7 $8 $9 X,Y pos of 4 corners*
0 Add a 4 corners polygon primitive as box body*
4,1,4,$2,$3,$4,$5,$6,$7,$8,$9,$2,$3,0*
0 Add four circle primitives for the rounded corners*
1,1,$1+$1,$2,$3*
1,1,$1+$1,$4,$5*
1,1,$1+$1,$6,$7*
1,1,$1+$1,$8,$9*
0 Add four rect primitives between the rounded corners*
20,1,$1+$1,$2,$3,$4,$5,0*
20,1,$1+$1,$4,$5,$6,$7,0*
20,1,$1+$1,$6,$7,$8,$9,0*
20,1,$1+$1,$8,$9,$2,$3,0*%
G04 Aperture macros list end*
%TA.AperFunction,ComponentPad*%
%ADD10R,1.700000X1.700000*%
%TD*%
%TA.AperFunction,ComponentPad*%
%ADD11C,1.700000*%
%TD*%
%TA.AperFunction,ComponentPad*%
%ADD12C,0.800000*%
%TD*%
%TA.AperFunction,ComponentPad*%
%ADD13C,6.400000*%
%TD*%
%TA.AperFunction,HeatsinkPad*%
%ADD14C,0.600000*%
%TD*%
%TA.AperFunction,HeatsinkPad*%
%ADD15R,2.500000X2.500000*%
%TD*%
%TA.AperFunction,ComponentPad*%
%ADD16RoundRect,0.250000X0.825000X0.825000X-0.825000X0.825000X-0.825000X-0.825000X0.825000X-0.825000X0*%
%TD*%
%TA.AperFunction,ComponentPad*%
%ADD17C,2.150000*%
%TD*%
%TA.AperFunction,ComponentPad*%
%ADD18O,2.100000X1.000000*%
%TD*%
%TA.AperFunction,ComponentPad*%
%ADD19O,1.800000X1.000000*%
%TD*%
%TA.AperFunction,HeatsinkPad*%
%ADD20R,4.400000X1.800000*%
%TD*%
%TA.AperFunction,ComponentPad*%
%ADD21C,2.780000*%
%TD*%
%TA.AperFunction,ComponentPad*%
%ADD22RoundRect,0.200100X-0.949900X0.949900X-0.949900X-0.949900X0.949900X-0.949900X0.949900X0.949900X0*%
%TD*%
%TA.AperFunction,ComponentPad*%
%ADD23C,2.500000*%
%TD*%
%TA.AperFunction,ViaPad*%
%ADD24C,0.600000*%
%TD*%
%TA.AperFunction,ViaPad*%
%ADD25C,0.700000*%
%TD*%
%TA.AperFunction,Conductor*%
%ADD26C,0.250000*%
%TD*%
%TA.AperFunction,Conductor*%
%ADD27C,0.200000*%
%TD*%
G04 APERTURE END LIST*
D10*
%TO.P,J1,1,~{MCLR}/VPP_1*%
%TO.N,/~{MCLR}*%
X95400000Y70160000D03*
D11*
%TO.P,J1,2,VDD_2*%
%TO.N,+3V3_SYS*%
X95400000Y67620000D03*
%TO.P,J1,3,VSS_3*%
%TO.N,GND*%
X95400000Y65080000D03*
%TO.P,J1,4,PGD/ICSPDAT_4*%
%TO.N,Net-(J1-PGD{slash}ICSPDAT)*%
X95400000Y62540000D03*
%TO.P,J1,5,PGC/ICSPCLK_5*%
%TO.N,Net-(J1-PGC{slash}ICSPCLK)*%
X95400000Y60000000D03*
%TO.P,J1,6,PGM/LVP_6*%
%TO.N,unconnected-(J1-PGM{slash}LVP-Pad6)*%
X95400000Y57460000D03*
%TD*%
D12*
%TO.P,H1,1,1_1*%
%TO.N,GND*%
X2600000Y125000000D03*
X3302944Y126697056D03*
X3302944Y123302944D03*
X5000000Y127400000D03*
D13*
X5000000Y125000000D03*
D12*
X5000000Y122600000D03*
X6697056Y126697056D03*
X6697056Y123302944D03*
X7400000Y125000000D03*
%TD*%
D14*
%TO.P,U1,49,EP_49*%
%TO.N,GND*%
X50250000Y84720000D03*
X50250000Y83720000D03*
X50250000Y82720000D03*
X51250000Y84720000D03*
X51250000Y83720000D03*
D15*
X51250000Y83720000D03*
D14*
X51250000Y82720000D03*
X52250000Y84720000D03*
X52250000Y83720000D03*
X52250000Y82720000D03*
%TD*%
D10*
%TO.P,JP1,1,A_1*%
%TO.N,Net-(JP1-A)*%
X82675000Y69620000D03*
D11*
%TO.P,JP1,2,B_2*%
%TO.N,GND*%
X80135000Y69620000D03*
%TD*%
D12*
%TO.P,H2,1,1_1*%
%TO.N,GND*%
X2600000Y5000000D03*
X3302944Y6697056D03*
X3302944Y3302944D03*
X5000000Y7400000D03*
D13*
X5000000Y5000000D03*
D12*
X5000000Y2600000D03*
X6697056Y6697056D03*
X6697056Y3302944D03*
X7400000Y5000000D03*
%TD*%
D16*
%TO.P,J2,1,Pin_1_1*%
%TO.N,GND*%
X20300000Y114790000D03*
D17*
%TO.P,J2,2,Pin_2_2*%
%TO.N,/Power Protection/RAW_BATT*%
X15700000Y114790000D03*
%TD*%
D18*
%TO.P,J4,SH,SHIELD_SH*%
%TO.N,Net-(J4-SHIELD)*%
X94385000Y81360000D03*
D19*
X98565000Y81360000D03*
D18*
X94385000Y90000000D03*
D19*
X98565000Y90000000D03*
%TD*%
D14*
%TO.P,U3,9,PAD_9*%
%TO.N,GND*%
X29650000Y64750000D03*
X28350000Y64750000D03*
X27050000Y64750000D03*
X25750000Y64750000D03*
D20*
X27700000Y64100000D03*
D14*
X29650000Y63450000D03*
X28350000Y63450000D03*
X27050000Y63450000D03*
X25750000Y63450000D03*
%TD*%
D21*
%TO.P,F1,1*%
%TO.N,/Power Protection/RAW_BATT*%
X9300000Y116760000D03*
X5900000Y116760000D03*
%TO.P,F1,2*%
%TO.N,Net-(D2-K)*%
X9300000Y106840000D03*
X5900000Y106840000D03*
%TD*%
D12*
%TO.P,H4,1,1_1*%
%TO.N,GND*%
X92600000Y5000000D03*
X93302944Y6697056D03*
X93302944Y3302944D03*
X95000000Y7400000D03*
D13*
X95000000Y5000000D03*
D12*
X95000000Y2600000D03*
X96697056Y6697056D03*
X96697056Y3302944D03*
X97400000Y5000000D03*
%TD*%
%TO.P,H3,1,1_1*%
%TO.N,GND*%
X92600000Y125000000D03*
X93302944Y126697056D03*
X93302944Y123302944D03*
X95000000Y127400000D03*
D13*
X95000000Y125000000D03*
D12*
X95000000Y122600000D03*
X96697056Y126697056D03*
X96697056Y123302944D03*
X97400000Y125000000D03*
%TD*%
D22*
%TO.P,J3,1,In_1*%
%TO.N,/GPS/GNSS_RF_IN*%
X95500000Y112220000D03*
D23*
%TO.P,J3,2,Ext_2*%
%TO.N,GND*%
X98040000Y114760000D03*
X92960000Y114760000D03*
X98040000Y109680000D03*
X92960000Y109680000D03*
%TD*%
D24*
%TO.N,GND*%
X89170000Y25600000D03*
X88980000Y28860000D03*
X96100000Y31230000D03*
X96200000Y35520000D03*
X96250000Y36500000D03*
X96120000Y46690000D03*
X96160000Y42060000D03*
D25*
X98150000Y45450000D03*
X98150000Y39050000D03*
X98150000Y38050000D03*
X98150000Y33650000D03*
X98150000Y40050000D03*
X98150000Y44350000D03*
X98150000Y34650000D03*
X98150000Y32650000D03*
X98150000Y43250000D03*
D24*
X33390000Y104740000D03*
X32050000Y105950000D03*
X38110000Y117400000D03*
X33090000Y71970000D03*
X18400000Y105670000D03*
X18380000Y106520000D03*
X18420000Y107370000D03*
X21840000Y101100000D03*
X22760000Y101120000D03*
X23560000Y101120000D03*
X28560000Y100380000D03*
X27440000Y100380000D03*
X26450000Y100370000D03*
%TO.N,+3V3_SYS*%
X65750000Y90250000D03*
X60775000Y83500000D03*
X45400000Y122400000D03*
D25*
X78700000Y88320000D03*
D24*
X44500000Y123300000D03*
D25*
X39250000Y83450000D03*
D24*
X45400000Y124300000D03*
X91225000Y69475000D03*
X44500000Y124300000D03*
D25*
X68700000Y93620000D03*
D24*
X43600000Y124300000D03*
X44500000Y122400000D03*
X31800000Y111000000D03*
D25*
X78700000Y92120000D03*
D24*
X43600000Y122400000D03*
X43600000Y123300000D03*
X45400000Y123300000D03*
%TO.N,GND*%
X23800000Y128500000D03*
X70100000Y74500000D03*
X96800000Y82700000D03*
X55300000Y127400000D03*
X84300000Y98900000D03*
X70400000Y68300000D03*
X83500000Y113275000D03*
X79900000Y77600000D03*
D25*
X28335000Y59965000D03*
D24*
X18900000Y1800000D03*
X25800000Y23700000D03*
X28900000Y125500000D03*
X5900000Y10700000D03*
D25*
X92860000Y107360000D03*
D24*
X48400000Y30900000D03*
X91400000Y16700000D03*
X92200000Y22000000D03*
X80300000Y89900000D03*
X97000000Y23600000D03*
X46600000Y23800000D03*
D25*
X72300000Y78220000D03*
D24*
X13100000Y120300000D03*
X24485000Y75730000D03*
X82800000Y74100000D03*
X56800000Y79300000D03*
X28700000Y54500000D03*
X4200000Y13400000D03*
D25*
X9800000Y60600000D03*
D24*
X3300000Y16000000D03*
X79200000Y84000000D03*
X18700000Y40900000D03*
D25*
X33130000Y69315000D03*
D24*
X19600000Y25600000D03*
X62200000Y22100000D03*
X9400000Y9100000D03*
X26900000Y1900000D03*
X97300000Y50700000D03*
X78500000Y102800000D03*
X85300000Y92500000D03*
X11600000Y62500000D03*
D25*
X92860000Y65080000D03*
D24*
X60900000Y80900000D03*
X78300000Y27900000D03*
X7300000Y26700000D03*
X12600000Y26900000D03*
X15000000Y49200000D03*
X76700000Y128000000D03*
X75075000Y108375000D03*
X24485000Y74230000D03*
X76600000Y82500000D03*
X90600000Y24700000D03*
X88400000Y99600000D03*
X83700000Y123200000D03*
X97100000Y9800000D03*
X61200000Y95300000D03*
X2000000Y105300000D03*
X38100000Y19600000D03*
D25*
X39700000Y13100000D03*
D24*
X43590000Y116950000D03*
X92800000Y69100000D03*
X56500000Y4400000D03*
D25*
X15000000Y23300000D03*
D24*
X77500000Y14600000D03*
X49200000Y40200000D03*
X56200000Y112800000D03*
X69900000Y97600000D03*
X10900000Y41100000D03*
X53000000Y109700000D03*
X75400000Y102800000D03*
D25*
X54600000Y13100000D03*
D24*
X4000000Y63700000D03*
D25*
X47700000Y13100000D03*
D24*
X43500000Y39800000D03*
X79690000Y10000000D03*
X27800000Y37300000D03*
X48800000Y60900000D03*
X76300000Y24800000D03*
X52900000Y97800000D03*
X89000000Y65700000D03*
X83900000Y128100000D03*
X74900000Y63300000D03*
X36700000Y80500000D03*
D25*
X12700000Y10600000D03*
X95650000Y93786000D03*
X37800000Y105000000D03*
D24*
X21585000Y76130000D03*
X89055000Y108955000D03*
X58600000Y33100000D03*
D25*
X92600000Y89350000D03*
D24*
X2090000Y78280000D03*
X5700000Y15900000D03*
X21800000Y116400000D03*
D25*
X72800000Y107020000D03*
D24*
X40700000Y6600000D03*
X26000000Y127000000D03*
D25*
X67672500Y85492500D03*
D24*
X58000000Y55200000D03*
X31670000Y70860000D03*
X89050000Y113900000D03*
X22300000Y63100000D03*
X98000000Y74200000D03*
D25*
X90150000Y110050000D03*
D24*
X12000000Y110700000D03*
X80800000Y82500000D03*
X10300000Y95900000D03*
X77800000Y113275000D03*
X63400000Y79800000D03*
X65500000Y73700000D03*
D25*
X14200000Y8300000D03*
D24*
X19500000Y53100000D03*
X38900000Y61000000D03*
X3600000Y41300000D03*
X64000000Y70600000D03*
X72700000Y108900000D03*
X49800000Y8400000D03*
D25*
X5800000Y60500000D03*
D24*
X14400000Y44200000D03*
X21100000Y36900000D03*
X15900000Y14500000D03*
X30600000Y41000000D03*
X56200000Y1500000D03*
X90700000Y48200000D03*
X79700000Y104600000D03*
X40400000Y26100000D03*
X69600000Y60300000D03*
X29000000Y117100000D03*
X11500000Y67200000D03*
X16800000Y8300000D03*
X24000000Y113500000D03*
X94800000Y52900000D03*
X74800000Y1800000D03*
X77100000Y43200000D03*
X21480000Y111910000D03*
X14800000Y97400000D03*
X70100000Y38500000D03*
X43500000Y102900000D03*
X49500000Y25900000D03*
D25*
X58350000Y119970000D03*
X57500000Y84600000D03*
D24*
X76300000Y28100000D03*
X74000000Y125900000D03*
X59600000Y79200000D03*
X45400000Y8200000D03*
X23600000Y117100000D03*
X55900000Y89700000D03*
X26300000Y119200000D03*
X92400000Y57700000D03*
X79600000Y53500000D03*
X15300000Y55900000D03*
D25*
X70500000Y95120000D03*
D24*
X89500000Y87600000D03*
X83200000Y118100000D03*
X30200000Y91500000D03*
X25050000Y47715000D03*
X95600000Y119700000D03*
X18600000Y85900000D03*
X28500000Y96100000D03*
D25*
X75400000Y90220000D03*
D24*
X68100000Y70300000D03*
X69100000Y81500000D03*
X6800000Y44400000D03*
X75700000Y39600000D03*
X4100000Y68000000D03*
X37500000Y63400000D03*
D25*
X79990000Y21200000D03*
D24*
X64200000Y36100000D03*
X2000000Y90200000D03*
X91100000Y106100000D03*
X66700000Y5000000D03*
X19500000Y98200000D03*
X76400000Y98300000D03*
X67200000Y110300000D03*
X33400000Y18200000D03*
X55700000Y60600000D03*
X45010000Y128450000D03*
X56700000Y23500000D03*
D25*
X83630000Y22880000D03*
D24*
X21800000Y114700000D03*
D25*
X67600000Y107020000D03*
D24*
X90000000Y7400000D03*
X80000000Y98000000D03*
X88700000Y56600000D03*
X80375000Y113350000D03*
X38900000Y62300000D03*
X16000000Y88900000D03*
D25*
X72000000Y94220000D03*
D24*
X87300000Y67900000D03*
D25*
X88166000Y84200000D03*
D24*
X21585000Y74030000D03*
X21600000Y68300000D03*
X86000000Y113450000D03*
X31600000Y112000000D03*
X39500000Y35100000D03*
X83200000Y95100000D03*
X80800000Y40700000D03*
X79600000Y125500000D03*
D25*
X28400000Y13100000D03*
D24*
X60300000Y75000000D03*
X53200000Y8100000D03*
X97100000Y101400000D03*
X85100000Y17600000D03*
X35920000Y74050000D03*
X51600000Y4700000D03*
D25*
X9800000Y61900000D03*
D24*
X63700000Y88700000D03*
X3400000Y35200000D03*
D25*
X74517298Y93537298D03*
D24*
X32200000Y53900000D03*
X59400000Y89400000D03*
X80700000Y36700000D03*
D25*
X43275000Y85600000D03*
D24*
X59000000Y36400000D03*
X21585000Y75030000D03*
X47900000Y20100000D03*
X19100000Y31200000D03*
X47400000Y126800000D03*
X82800000Y62900000D03*
D25*
X51300000Y13100000D03*
D24*
X71700000Y57300000D03*
X54500000Y66400000D03*
X25300000Y98500000D03*
X3600000Y48500000D03*
X65800000Y1800000D03*
X77300000Y10900000D03*
X67800000Y7700000D03*
X42200000Y117900000D03*
X70100000Y109500000D03*
X66900000Y87400000D03*
X85300000Y101900000D03*
X78800000Y25800000D03*
X70400000Y25400000D03*
X74400000Y36400000D03*
X9400000Y2100000D03*
D25*
X44325000Y81550000D03*
D24*
X28400000Y113300000D03*
X60400000Y68400000D03*
X43200000Y18200000D03*
D25*
X75000000Y107020000D03*
D24*
X59700000Y2800000D03*
X69000000Y56900000D03*
X76600000Y122900000D03*
X71600000Y41800000D03*
X39500000Y54300000D03*
X88900000Y77000000D03*
X10400000Y86900000D03*
D25*
X94300000Y74320000D03*
D24*
X90100000Y123100000D03*
X95400000Y115100000D03*
X34800000Y31600000D03*
X46700000Y88800000D03*
X20000000Y124000000D03*
X76325000Y109225000D03*
X55200000Y96700000D03*
X63100000Y74300000D03*
X63300000Y96300000D03*
X74790000Y8400000D03*
X1600000Y93600000D03*
X74600000Y53800000D03*
X3050000Y95200000D03*
X77700000Y60200000D03*
X37400000Y75400000D03*
D25*
X16120000Y12720000D03*
X74790000Y17200000D03*
D24*
X92200000Y9900000D03*
D25*
X79990000Y27200000D03*
X45500000Y84400000D03*
D24*
X40700000Y114100000D03*
D25*
X74010000Y85810000D03*
X9572702Y12872702D03*
D24*
X73200000Y90300000D03*
X20300000Y116400000D03*
X41900000Y21900000D03*
X47200000Y34700000D03*
X13300000Y123300000D03*
X76500000Y56900000D03*
X89300000Y90700000D03*
X74275000Y110950000D03*
X15200000Y38300000D03*
D25*
X87000000Y86620000D03*
X5800000Y61800000D03*
X30190000Y34700000D03*
D24*
X98100000Y60000000D03*
X36300000Y66400000D03*
X97300000Y27100000D03*
D25*
X74800000Y81120000D03*
D24*
X34500000Y68600000D03*
X12600000Y127600000D03*
X33020000Y75650000D03*
X70500000Y122800000D03*
X29500000Y107600000D03*
X66000000Y78600000D03*
X84300000Y2000000D03*
X52000000Y31900000D03*
X57900000Y117200000D03*
X35920000Y76050000D03*
X37400000Y58700000D03*
D25*
X58625000Y81500000D03*
D24*
X69000000Y115800000D03*
X23400000Y121400000D03*
X90300000Y61300000D03*
X76050000Y112400000D03*
X33200000Y128000000D03*
X73100000Y83400000D03*
X23185000Y72630000D03*
X18800000Y114800000D03*
D25*
X86220000Y22810000D03*
D24*
X54100000Y37200000D03*
X2500000Y72000000D03*
X7400000Y120900000D03*
X61400000Y101200000D03*
X95800000Y19800000D03*
X31700000Y22500000D03*
X38900000Y59700000D03*
X16200000Y122200000D03*
X10200000Y27000000D03*
X24600000Y68300000D03*
X55300000Y100600000D03*
X90900000Y53600000D03*
X80300000Y1700000D03*
X58500000Y7100000D03*
X84900000Y65900000D03*
X95000000Y29900000D03*
X59200000Y91700000D03*
X76300000Y78000000D03*
X10900000Y15900000D03*
D25*
X76000000Y94420000D03*
D24*
X80700000Y56600000D03*
X7500000Y51400000D03*
X73200000Y60700000D03*
X60800000Y5600000D03*
X61400000Y58900000D03*
X86100000Y82600000D03*
X33020000Y74250000D03*
X8400000Y111400000D03*
X41550000Y47975000D03*
X25050000Y46015000D03*
D25*
X5800000Y23300000D03*
D24*
X88100000Y62800000D03*
D25*
X74740000Y30000000D03*
D24*
X92800000Y70600000D03*
X26000000Y59800000D03*
X2100000Y81500000D03*
X4900000Y111800000D03*
X38300000Y124600000D03*
X35600000Y70600000D03*
X42210000Y128450000D03*
X27500000Y51200000D03*
D25*
X22300000Y12900000D03*
D24*
X96800000Y86400000D03*
X3400000Y28800000D03*
X62000000Y77500000D03*
X38000000Y8700000D03*
X16500000Y82300000D03*
X78800000Y74400000D03*
X23440000Y111850000D03*
X86500000Y64300000D03*
X9300000Y124600000D03*
X85300000Y7500000D03*
X21100000Y71800000D03*
X30500000Y26100000D03*
X19900000Y44900000D03*
X84200000Y5000000D03*
D25*
X58100000Y12800000D03*
D24*
X25050000Y44915000D03*
X47000000Y52400000D03*
X68300000Y22900000D03*
X45800000Y68900000D03*
X62800000Y4200000D03*
D25*
X36000000Y13100000D03*
D24*
X14895000Y79105000D03*
X16020000Y80680000D03*
D25*
X74790000Y20400000D03*
D24*
X11900000Y53000000D03*
X63900000Y54700000D03*
D25*
X68400000Y11600000D03*
D24*
X73200000Y97600000D03*
X23300000Y87600000D03*
X67300000Y95400000D03*
X9900000Y98900000D03*
X20300000Y113300000D03*
X24900000Y60000000D03*
X97100000Y95200000D03*
X43300000Y60000000D03*
D25*
X12300000Y17900000D03*
D24*
X79600000Y108200000D03*
X45600000Y1600000D03*
X78300000Y29600000D03*
X90900000Y19500000D03*
X42500000Y31200000D03*
X25050000Y48715000D03*
X12700000Y98925000D03*
X82400000Y91600000D03*
X3500000Y25900000D03*
X79100000Y116100000D03*
X83550000Y110525000D03*
X40800000Y119600000D03*
X43000000Y115000000D03*
D25*
X9800000Y63000000D03*
X31900000Y13100000D03*
D24*
X35800000Y102300000D03*
X52600000Y22900000D03*
D25*
X61700000Y12500000D03*
D24*
X91200000Y78900000D03*
D25*
X15800000Y10400000D03*
D24*
X26200000Y123400000D03*
X25000000Y41300000D03*
X70900000Y127800000D03*
X74500000Y5700000D03*
X42000000Y88300000D03*
X84800000Y15000000D03*
X15300000Y102700000D03*
X23500000Y125400000D03*
X50800000Y120200000D03*
D25*
X74790000Y23600000D03*
D24*
X31000000Y64300000D03*
X55400000Y121700000D03*
D25*
X90940000Y26520000D03*
D24*
X68100000Y77300000D03*
X35100000Y54000000D03*
D25*
X79990000Y24400000D03*
D24*
X34300000Y78600000D03*
X73900000Y120400000D03*
X79300000Y119800000D03*
X97200000Y13500000D03*
D25*
X19500000Y11100000D03*
X79990000Y18400000D03*
D24*
X96800000Y84600000D03*
X25300000Y92000000D03*
X86600000Y3400000D03*
X81900000Y44500000D03*
X51600000Y126200000D03*
X77300000Y2300000D03*
X6200000Y87000000D03*
X29300000Y128400000D03*
X95500000Y109500000D03*
X69200000Y2500000D03*
X41550000Y48975000D03*
X53900000Y2800000D03*
X80775000Y110525000D03*
D25*
X43025000Y81500000D03*
X77400000Y91220000D03*
D24*
X59100000Y19700000D03*
D25*
X69400000Y29600000D03*
D24*
X59400000Y25800000D03*
X28800000Y56900000D03*
X86700000Y79100000D03*
X54900000Y57100000D03*
X19900000Y6500000D03*
X38500000Y127600000D03*
X24600000Y63000000D03*
X62200000Y1500000D03*
X65200000Y26000000D03*
X65100000Y94000000D03*
D25*
X60800000Y126220000D03*
D24*
X58300000Y70200000D03*
D25*
X18300000Y12700000D03*
D24*
X75600000Y68300000D03*
X86700000Y74500000D03*
X44100000Y55200000D03*
D25*
X90940000Y27920000D03*
D24*
X45100000Y90700000D03*
X42200000Y116900000D03*
X94600000Y48100000D03*
X41080000Y115590000D03*
X2000000Y87700000D03*
X84800000Y108000000D03*
D25*
X92860000Y116960000D03*
D24*
X17800000Y69600000D03*
X79590000Y13300000D03*
D25*
X65500000Y12200000D03*
X65150000Y121750000D03*
D24*
X74200000Y75300000D03*
X38900000Y63300000D03*
X89400000Y80900000D03*
X65900000Y98200000D03*
X64100000Y7300000D03*
X48400000Y91600000D03*
X15500000Y64100000D03*
D25*
X77400000Y69620000D03*
D24*
X29500000Y105200000D03*
X50100000Y1600000D03*
X35100000Y84600000D03*
X62200000Y90500000D03*
X90300000Y128100000D03*
D25*
X97940000Y107580000D03*
D24*
X38800000Y119600000D03*
X96800000Y88500000D03*
X70000000Y35600000D03*
X4200000Y101300000D03*
X67100000Y113600000D03*
X2400000Y74900000D03*
D25*
X30000000Y3500000D03*
D24*
X29000000Y121600000D03*
X98200000Y65000000D03*
D25*
X74790000Y26000000D03*
D24*
X49500000Y55800000D03*
X67900000Y126000000D03*
D25*
X84930000Y22880000D03*
D24*
X20600000Y19400000D03*
X70800000Y100500000D03*
X54000000Y118100000D03*
X71700000Y113000000D03*
X98300000Y17500000D03*
X68600000Y80100000D03*
X33600000Y1900000D03*
X11100000Y94000000D03*
X85100000Y20400000D03*
X67900000Y120700000D03*
X92200000Y28000000D03*
X15200000Y4900000D03*
X65100000Y18900000D03*
X45500000Y63800000D03*
X52900000Y113900000D03*
X40000000Y67200000D03*
X67900000Y90000000D03*
D25*
X36500000Y105000000D03*
D24*
X87100000Y95700000D03*
X62500000Y109800000D03*
X38900000Y92000000D03*
X31900000Y100900000D03*
D25*
X5800000Y63100000D03*
D24*
X91700000Y97500000D03*
X86900000Y116400000D03*
X90100000Y118600000D03*
X20300000Y119500000D03*
X36900000Y23800000D03*
X91000000Y75000000D03*
D25*
X58640000Y121470000D03*
D24*
X74700000Y96000000D03*
X2400000Y121000000D03*
X39670000Y115680000D03*
X9000000Y128100000D03*
X75600000Y32000000D03*
X3100000Y58400000D03*
X59600000Y99200000D03*
X70200000Y63200000D03*
X98300000Y112300000D03*
D25*
X90948000Y93368000D03*
D24*
X46200000Y73300000D03*
D25*
X87587000Y88982000D03*
X92500000Y82050000D03*
D24*
X3600000Y54200000D03*
X22350000Y111890000D03*
X24600000Y65100000D03*
D25*
X82800000Y76820000D03*
D24*
X26500000Y115200000D03*
X98100000Y78700000D03*
X13700000Y91300000D03*
D25*
X25200000Y13100000D03*
D24*
X2100000Y112500000D03*
X82100000Y106600000D03*
X66900000Y119100000D03*
X53000000Y102900000D03*
X43800000Y110200000D03*
X63000000Y31500000D03*
D25*
X13000000Y12300000D03*
X59650000Y85425000D03*
D24*
X15400000Y71200000D03*
X14920000Y82280000D03*
X73500000Y70200000D03*
X43700000Y49400000D03*
X66100000Y68200000D03*
X77300000Y106500000D03*
X85900000Y110525000D03*
X97100000Y98300000D03*
X58300000Y63600000D03*
X81800000Y84600000D03*
X90600000Y1800000D03*
X20100000Y90500000D03*
X37400000Y40400000D03*
D25*
X43700000Y13100000D03*
X75000000Y115420000D03*
X25270000Y71430000D03*
D24*
X77800000Y85400000D03*
X47300000Y5400000D03*
X98000000Y70200000D03*
X2100000Y84700000D03*
X28200000Y18500000D03*
X17500000Y93600000D03*
X35920000Y75150000D03*
X31740000Y67880000D03*
X4100000Y97600000D03*
X55600000Y106200000D03*
X2100000Y99600000D03*
X34600000Y63900000D03*
X10200000Y47800000D03*
X92900000Y61300000D03*
X35700000Y5300000D03*
X3200000Y10400000D03*
X92500000Y50600000D03*
X86600000Y120400000D03*
X40800000Y72500000D03*
X21800000Y94700000D03*
D25*
X23800000Y3500000D03*
D24*
X43000000Y77200000D03*
X29500000Y106400000D03*
X54800000Y18600000D03*
X22300000Y65100000D03*
X19500000Y60100000D03*
X19100000Y66900000D03*
D25*
X23790000Y34700000D03*
D24*
X7000000Y38700000D03*
X10500000Y36100000D03*
D25*
X61000000Y115420000D03*
D24*
X16400000Y110300000D03*
X55100000Y6300000D03*
X32900000Y96900000D03*
X26800000Y88800000D03*
X92800000Y103600000D03*
X79700000Y94900000D03*
X80500000Y85400000D03*
X63400000Y124200000D03*
X86600000Y125800000D03*
X10500000Y122000000D03*
X33500000Y36400000D03*
X1900000Y116800000D03*
X18300000Y16900000D03*
X60000000Y102700000D03*
D25*
X97940000Y116980000D03*
D24*
X70500000Y54100000D03*
X6800000Y57300000D03*
X38900000Y58700000D03*
X66500000Y76500000D03*
X84200000Y53200000D03*
X63800000Y62600000D03*
D25*
X5600000Y32100000D03*
D24*
X43100000Y3500000D03*
D25*
X70500000Y78220000D03*
D24*
X63800000Y128000000D03*
X49900000Y128200000D03*
X42400000Y96100000D03*
X64300000Y118900000D03*
X76800000Y17900000D03*
X78400000Y110475000D03*
X11500000Y100000000D03*
X91900000Y100900000D03*
X13900000Y85600000D03*
X95500000Y25200000D03*
X97900000Y54400000D03*
X65200000Y85600000D03*
X35000000Y106000000D03*
X3200000Y20600000D03*
X38300000Y121700000D03*
X38600000Y2700000D03*
X97100000Y104600000D03*
X10900000Y57500000D03*
X78000000Y21900000D03*
X85700000Y59500000D03*
X78200000Y80200000D03*
%TO.N,+12VF*%
X28100000Y78200000D03*
X6350000Y74910000D03*
X8250000Y75910000D03*
X8250000Y74010000D03*
X9150000Y74910000D03*
X6350000Y75910000D03*
D25*
X41000000Y110200000D03*
D24*
X6350000Y74010000D03*
D25*
X41000000Y109100000D03*
D24*
X29100000Y78200000D03*
X29100000Y79000000D03*
X30100000Y79000000D03*
X27100000Y78200000D03*
X7350000Y74910000D03*
X28100000Y79000000D03*
X9150000Y75910000D03*
X7350000Y74010000D03*
X27100000Y79000000D03*
D25*
X41000000Y111200000D03*
X39800000Y111200000D03*
D24*
X7350000Y75910000D03*
D25*
X39800000Y109100000D03*
D24*
X30100000Y78200000D03*
D25*
X39800000Y110200000D03*
D24*
X9150000Y74010000D03*
X8250000Y74910000D03*
%TO.N,+3V3_CELL*%
X32300000Y44600000D03*
D25*
X85100000Y26500000D03*
D24*
X33200000Y44600000D03*
D25*
X86600000Y50600000D03*
X69700000Y30900000D03*
X85000000Y48500000D03*
D24*
X32300000Y46000000D03*
X34100000Y44600000D03*
D25*
X88100000Y50600000D03*
X70800000Y7300000D03*
D24*
X35000000Y44600000D03*
D25*
X70800000Y8100000D03*
X70000000Y7300000D03*
D24*
X33200000Y45300000D03*
X23350000Y56550000D03*
X32300000Y45300000D03*
D25*
X70000000Y8100000D03*
D24*
X34100000Y46000000D03*
D25*
X84100000Y27300000D03*
X85000000Y50600000D03*
X85700000Y49500000D03*
X69700000Y31700000D03*
D24*
X35000000Y46000000D03*
D25*
X85100000Y27300000D03*
D24*
X35000000Y45300000D03*
D25*
X70500000Y31700000D03*
X86600000Y48500000D03*
X88100000Y48500000D03*
X87300000Y49600000D03*
X70500000Y30900000D03*
D24*
X33200000Y46000000D03*
X34100000Y45300000D03*
D25*
X84100000Y26500000D03*
%TO.N,/USB-C/USBD-*%
X81003017Y86368422D03*
X80047702Y87322298D03*
D24*
%TO.N,CELL_RX*%
X56700000Y73175000D03*
D25*
X88700000Y10500000D03*
%TO.N,GNSS_RESET*%
X50500000Y91320000D03*
X54829798Y91295202D03*
%TO.N,GNSS_RX*%
X59175000Y110850000D03*
X59150000Y112220000D03*
D24*
%TO.N,Net-(U7-VBUS)*%
X71100000Y90320000D03*
X75600000Y85820000D03*
%TO.N,CELL_PWR_EN*%
X45500000Y87075000D03*
D25*
X21200000Y69800000D03*
%TO.N,CELL_PERST*%
X67900000Y20200000D03*
D24*
X51100000Y71800000D03*
D25*
%TO.N,CELL_RI*%
X70300000Y17400000D03*
D24*
X52400000Y71800000D03*
D25*
%TO.N,CELL_TX*%
X94000000Y12300000D03*
D24*
X55375000Y73125000D03*
%TO.N,CELL_CTS*%
X58025000Y73125000D03*
D25*
X76800000Y19300000D03*
%TO.N,CELL_RTS*%
X78100000Y18600000D03*
D24*
X59300000Y73125000D03*
D25*
%TO.N,USB_TXD*%
X60550000Y87370000D03*
X60550000Y86020000D03*
%TO.N,/Cellular/SIM_VDD*%
X14000000Y15600000D03*
X12800000Y7200000D03*
%TD*%
%TO.N,CELL_TX*%
D26*
X55375000Y73125000D02*
X55375000Y74275000D01*
X65100000Y76600000D02*
X94000000Y47700000D01*
X55375000Y74275000D02*
X57700000Y76600000D01*
X57700000Y76600000D02*
X65100000Y76600000D01*
X94000000Y47700000D02*
X94000000Y12300000D01*
%TO.N,+3V3_SYS*%
X41300000Y118600000D02*
X42400000Y118600000D01*
X43600000Y119800000D02*
X43600000Y122400000D01*
X42400000Y118600000D02*
X43600000Y119800000D01*
X41300000Y118600000D02*
X33700000Y111000000D01*
X33700000Y111000000D02*
X31800000Y111000000D01*
%TO.N,+3V3_CELL*%
X23350000Y56550000D02*
X24200000Y55700000D01*
X24200000Y55700000D02*
X24200000Y46900000D01*
X31400000Y46900000D02*
X32300000Y46000000D01*
X24200000Y46900000D02*
X31400000Y46900000D01*
%TO.N,/USB-C/USBD-*%
X80049141Y87322298D02*
X81003017Y86368422D01*
X80047702Y87322298D02*
X80049141Y87322298D01*
%TO.N,CELL_RX*%
X58000000Y75800000D02*
X56700000Y74500000D01*
X88700000Y10500000D02*
X93200000Y15000000D01*
X93200000Y47300000D02*
X64700000Y75800000D01*
X56700000Y74500000D02*
X56700000Y73175000D01*
X93200000Y15000000D02*
X93200000Y47300000D01*
X64700000Y75800000D02*
X58000000Y75800000D01*
%TO.N,GNSS_RESET*%
X54829798Y91295202D02*
X54800000Y91325000D01*
X54800000Y91325000D02*
X50505000Y91325000D01*
X50505000Y91325000D02*
X50500000Y91320000D01*
%TO.N,GNSS_RX*%
D27*
X59175000Y110945000D02*
X59150000Y110970000D01*
X59150000Y110970000D02*
X59150000Y112220000D01*
X59175000Y110850000D02*
X59175000Y110945000D01*
%TO.N,Net-(U7-VBUS)*%
D26*
X75600000Y85820000D02*
X71100000Y90320000D01*
%TO.N,CELL_PWR_EN*%
X39858884Y87075000D02*
X22583884Y69800000D01*
X22583884Y69800000D02*
X21200000Y69800000D01*
X45500000Y87075000D02*
X39858884Y87075000D01*
%TO.N,CELL_PERST*%
X67900000Y20200000D02*
X51100000Y37000000D01*
X51100000Y37000000D02*
X51100000Y71800000D01*
%TO.N,CELL_RI*%
X70300000Y17400000D02*
X70300000Y19600000D01*
X70300000Y19600000D02*
X52400000Y37500000D01*
X52400000Y37500000D02*
X52400000Y71800000D01*
%TO.N,CELL_CTS*%
X76800000Y20200000D02*
X75100000Y21900000D01*
X66800000Y64350000D02*
X58025000Y73125000D01*
X70700000Y21900000D02*
X66800000Y25800000D01*
X76800000Y19300000D02*
X76800000Y20200000D01*
X66800000Y25800000D02*
X66800000Y64350000D01*
X75100000Y21900000D02*
X70700000Y21900000D01*
%TO.N,CELL_RTS*%
X75500000Y22600000D02*
X71100000Y22600000D01*
X71100000Y22600000D02*
X67600000Y26100000D01*
X78100000Y18600000D02*
X78100000Y20000000D01*
X78100000Y20000000D02*
X75500000Y22600000D01*
X67600000Y26100000D02*
X67600000Y64825000D01*
X67600000Y64825000D02*
X59300000Y73125000D01*
%TO.N,USB_TXD*%
X60550000Y87370000D02*
X60550000Y86020000D01*
%TO.N,/Cellular/SIM_VDD*%
X12800000Y9600000D02*
X12800000Y7200000D01*
X12800000Y7200000D02*
X12800000Y7100000D01*
X14000000Y15600000D02*
X14000000Y10800000D01*
X14000000Y15600000D02*
X13900000Y15500000D01*
X14000000Y10800000D02*
X12800000Y9600000D01*
%TD*%
M02*
