%TF.GenerationSoftware,KiCad,Pcbnew,10.0.3*%
%TF.CreationDate,2026-08-30T15:43:09-07:00*%
%TF.ProjectId,farseer,66617273-6565-4722-9e6b-696361645f70,rev?*%
%TF.SameCoordinates,PX2719c40PY92dda80*%
%TF.FileFunction,Soldermask,Bot*%
%TF.FilePolarity,Negative*%
%FSLAX46Y46*%
G04 Gerber Fmt 4.6, Leading zero omitted, Abs format (unit mm)*
G04 Created by KiCad (PCBNEW 10.0.3) date 2026-08-30 15:43:09*
%MOMM*%
%LPD*%
G01*
G04 APERTURE LIST*
G04 Aperture macros list*
%AMRoundRect*
0 Rectangle with rounded corners*
0 $1 Rounding radius*
0 $2 $3 $4 $5 $6 $7 $8 $9 X,Y pos of 4 corners*
0 Add a 4 corners polygon primitive as box body*
4,1,4,$2,$3,$4,$5,$6,$7,$8,$9,$2,$3,0*
0 Add four circle primitives for the rounded corners*
1,1,$1+$1,$2,$3*
1,1,$1+$1,$4,$5*
1,1,$1+$1,$6,$7*
1,1,$1+$1,$8,$9*
0 Add four rect primitives between the rounded corners*
20,1,$1+$1,$2,$3,$4,$5,0*
20,1,$1+$1,$4,$5,$6,$7,0*
20,1,$1+$1,$6,$7,$8,$9,0*
20,1,$1+$1,$8,$9,$2,$3,0*%
G04 Aperture macros list end*
%ADD10R,1.700000X1.700000*%
%ADD11C,1.700000*%
%ADD12C,1.600000*%
%ADD13C,1.100000*%
%ADD14C,0.800000*%
%ADD15C,6.400000*%
%ADD16C,2.600000*%
%ADD17RoundRect,0.250000X0.825000X0.825000X-0.825000X0.825000X-0.825000X-0.825000X0.825000X-0.825000X0*%
%ADD18C,2.150000*%
%ADD19C,0.650000*%
%ADD20O,2.100000X1.000000*%
%ADD21O,1.800000X1.000000*%
%ADD22C,2.780000*%
%ADD23RoundRect,0.200100X-0.949900X0.949900X-0.949900X-0.949900X0.949900X-0.949900X0.949900X0.949900X0*%
%ADD24C,2.500000*%
G04 APERTURE END LIST*
D10*
%TO.C,J1*%
X95400000Y70160000D03*
D11*
X95400000Y67620000D03*
X95400000Y65080000D03*
X95400000Y62540000D03*
X95400000Y60000000D03*
X95400000Y57460000D03*
%TD*%
D12*
%TO.C,MP1*%
X27000000Y6900000D03*
D13*
X27000000Y31100000D03*
%TD*%
D14*
%TO.C,H1*%
X2600000Y125000000D03*
X3302944Y126697056D03*
X3302944Y123302944D03*
X5000000Y127400000D03*
D15*
X5000000Y125000000D03*
D14*
X5000000Y122600000D03*
X6697056Y126697056D03*
X6697056Y123302944D03*
X7400000Y125000000D03*
%TD*%
D10*
%TO.C,JP1*%
X82675000Y69620000D03*
D11*
X80135000Y69620000D03*
%TD*%
D14*
%TO.C,H2*%
X2600000Y5000000D03*
X3302944Y6697056D03*
X3302944Y3302944D03*
X5000000Y7400000D03*
D15*
X5000000Y5000000D03*
D14*
X5000000Y2600000D03*
X6697056Y6697056D03*
X6697056Y3302944D03*
X7400000Y5000000D03*
%TD*%
D16*
%TO.C,J2*%
X20300000Y127390000D03*
X15700000Y127390000D03*
D17*
X20300000Y114790000D03*
D18*
X15700000Y114790000D03*
%TD*%
D19*
%TO.C,J4*%
X94885000Y82790000D03*
X94885000Y88570000D03*
D20*
X94385000Y81360000D03*
D21*
X98565000Y81360000D03*
D20*
X94385000Y90000000D03*
D21*
X98565000Y90000000D03*
%TD*%
D22*
%TO.C,F1*%
X9300000Y116760000D03*
X5900000Y116760000D03*
X9300000Y106840000D03*
X5900000Y106840000D03*
%TD*%
D14*
%TO.C,H4*%
X92600000Y5000000D03*
X93302944Y6697056D03*
X93302944Y3302944D03*
X95000000Y7400000D03*
D15*
X95000000Y5000000D03*
D14*
X95000000Y2600000D03*
X96697056Y6697056D03*
X96697056Y3302944D03*
X97400000Y5000000D03*
%TD*%
D12*
%TO.C,J5*%
X77400000Y6500000D03*
D13*
X77400000Y31500000D03*
%TD*%
D14*
%TO.C,H3*%
X92600000Y125000000D03*
X93302944Y126697056D03*
X93302944Y123302944D03*
X95000000Y127400000D03*
D15*
X95000000Y125000000D03*
D14*
X95000000Y122600000D03*
X96697056Y126697056D03*
X96697056Y123302944D03*
X97400000Y125000000D03*
%TD*%
D23*
%TO.C,J3*%
X95500000Y112220000D03*
D24*
X98040000Y114760000D03*
X92960000Y114760000D03*
X98040000Y109680000D03*
X92960000Y109680000D03*
%TD*%
M02*
